<mxfile host="app.diagrams.net" modified="2023-03-10T16:51:34.380Z" agent="5.0 (X11; Linux x86_64) AppleWebKit/537.36 (KHTML, like Gecko) Chrome/110.0.0.0 Safari/537.36" etag="uXgW3hJjxdH1mLYdL5jz" version="20.8.20" type="github" pages="3">
  <diagram id="kmUigxEFK028a0RhQnVS" name="Page-1">
    <mxGraphModel dx="1184" dy="1065" grid="1" gridSize="10" guides="1" tooltips="1" connect="1" arrows="1" fold="1" page="1" pageScale="1" pageWidth="1654" pageHeight="1169" math="0" shadow="0">
      <root>
        <mxCell id="0" />
        <mxCell id="1" parent="0" />
        <mxCell id="JYS4BPK2dpWjeIuSEi76-3" value="Backplane" style="rounded=0;whiteSpace=wrap;html=1;fillColor=#d5e8d4;align=center;verticalAlign=top;strokeColor=#82b366;" parent="1" vertex="1">
          <mxGeometry x="150" y="470" width="560" height="320" as="geometry" />
        </mxCell>
        <mxCell id="A2itI3pVLudstaMCwzq0-24" value="Compute Tray x 7" style="rounded=0;whiteSpace=wrap;html=1;align=center;verticalAlign=top;" parent="1" vertex="1">
          <mxGeometry x="820" y="500" width="420" height="560" as="geometry" />
        </mxCell>
        <mxCell id="A2itI3pVLudstaMCwzq0-1" value="BMC HAT" style="rounded=0;whiteSpace=wrap;html=1;align=center;verticalAlign=top;fillColor=none;" parent="1" vertex="1">
          <mxGeometry x="840" y="530" width="380" height="200" as="geometry" />
        </mxCell>
        <mxCell id="A2itI3pVLudstaMCwzq0-12" value="&lt;div&gt;BMC&lt;/div&gt;&lt;div&gt;RP2040&lt;/div&gt;&lt;div&gt;&lt;br&gt;&lt;/div&gt;&lt;div&gt;USB Device&lt;/div&gt;" style="rounded=0;whiteSpace=wrap;html=1;align=center;verticalAlign=top;" parent="1" vertex="1">
          <mxGeometry x="1030" y="560" width="130" height="150" as="geometry" />
        </mxCell>
        <mxCell id="JYS4BPK2dpWjeIuSEi76-7" value="USB Hub" style="rounded=0;whiteSpace=wrap;html=1;strokeColor=#000000;fillColor=#ffffff;align=center;verticalAlign=middle;" parent="1" vertex="1">
          <mxGeometry x="570" y="630" width="100" height="60" as="geometry" />
        </mxCell>
        <mxCell id="A2itI3pVLudstaMCwzq0-6" value="" style="shape=flexArrow;endArrow=classic;html=1;strokeWidth=1;fillColor=#fff2cc;strokeColor=#d6b656;exitX=0.5;exitY=0.65;exitDx=0;exitDy=0;exitPerimeter=0;" parent="1" source="A2itI3pVLudstaMCwzq0-1" target="JYS4BPK2dpWjeIuSEi76-7" edge="1">
          <mxGeometry width="50" height="50" relative="1" as="geometry">
            <mxPoint x="970" y="660" as="sourcePoint" />
            <mxPoint x="630" y="670" as="targetPoint" />
            <Array as="points" />
          </mxGeometry>
        </mxCell>
        <mxCell id="a5iX6j4bG5qRSzKylkkZ-19" value="4x" style="edgeLabel;html=1;align=center;verticalAlign=middle;resizable=0;points=[];" parent="A2itI3pVLudstaMCwzq0-6" vertex="1" connectable="0">
          <mxGeometry x="0.8804" y="1" relative="1" as="geometry">
            <mxPoint as="offset" />
          </mxGeometry>
        </mxCell>
        <mxCell id="JYS4BPK2dpWjeIuSEi76-14" value="Button" style="rounded=0;whiteSpace=wrap;html=1;strokeColor=#000000;fillColor=#ffffff;align=center;verticalAlign=middle;" parent="1" vertex="1">
          <mxGeometry x="1180" y="560" width="60" height="40" as="geometry" />
        </mxCell>
        <mxCell id="JYS4BPK2dpWjeIuSEi76-15" value="Indicator Light x2" style="rounded=0;whiteSpace=wrap;html=1;strokeColor=#000000;fillColor=#ffffff;align=center;verticalAlign=middle;" parent="1" vertex="1">
          <mxGeometry x="1180" y="610" width="60" height="40" as="geometry" />
        </mxCell>
        <mxCell id="a5iX6j4bG5qRSzKylkkZ-12" style="edgeStyle=orthogonalEdgeStyle;rounded=0;orthogonalLoop=1;jettySize=auto;html=1;exitX=0.5;exitY=1;exitDx=0;exitDy=0;entryX=0.5;entryY=0;entryDx=0;entryDy=0;startArrow=block;strokeColor=#000000;fillColor=none;" parent="1" source="JYS4BPK2dpWjeIuSEi76-16" target="a5iX6j4bG5qRSzKylkkZ-6" edge="1">
          <mxGeometry relative="1" as="geometry" />
        </mxCell>
        <mxCell id="a5iX6j4bG5qRSzKylkkZ-13" value="USB" style="edgeLabel;html=1;align=center;verticalAlign=middle;resizable=0;points=[];" parent="a5iX6j4bG5qRSzKylkkZ-12" vertex="1" connectable="0">
          <mxGeometry x="0.0762" y="-2" relative="1" as="geometry">
            <mxPoint x="2" y="-1" as="offset" />
          </mxGeometry>
        </mxCell>
        <mxCell id="JYS4BPK2dpWjeIuSEi76-16" value="Compute SBC&lt;br&gt;(Whatever)" style="rounded=0;whiteSpace=wrap;html=1;strokeColor=#6c8ebf;fillColor=#dae8fc;align=center;verticalAlign=middle;" parent="1" vertex="1">
          <mxGeometry x="865" y="780" width="330" height="90" as="geometry" />
        </mxCell>
        <mxCell id="a5iX6j4bG5qRSzKylkkZ-1" value="Ethernet Switch&lt;br&gt;5V/&lt;b&gt;12V&lt;/b&gt;" style="rounded=0;whiteSpace=wrap;html=1;verticalAlign=middle;" parent="1" vertex="1">
          <mxGeometry x="190" y="140" width="1050" height="140" as="geometry" />
        </mxCell>
        <mxCell id="a5iX6j4bG5qRSzKylkkZ-2" value="SSD&lt;br&gt;A/B Partitioned" style="rounded=0;whiteSpace=wrap;html=1;strokeColor=#666666;fillColor=#f5f5f5;align=center;verticalAlign=middle;fontColor=#333333;" parent="1" vertex="1">
          <mxGeometry x="865" y="970" width="330" height="70" as="geometry" />
        </mxCell>
        <mxCell id="a5iX6j4bG5qRSzKylkkZ-14" style="edgeStyle=orthogonalEdgeStyle;rounded=0;orthogonalLoop=1;jettySize=auto;html=1;exitX=0.5;exitY=1;exitDx=0;exitDy=0;entryX=0.5;entryY=0;entryDx=0;entryDy=0;startArrow=block;strokeColor=#000000;fillColor=none;" parent="1" source="a5iX6j4bG5qRSzKylkkZ-6" target="a5iX6j4bG5qRSzKylkkZ-2" edge="1">
          <mxGeometry relative="1" as="geometry" />
        </mxCell>
        <mxCell id="a5iX6j4bG5qRSzKylkkZ-15" value="SATA" style="edgeLabel;html=1;align=center;verticalAlign=middle;resizable=0;points=[];" parent="a5iX6j4bG5qRSzKylkkZ-14" vertex="1" connectable="0">
          <mxGeometry x="0.0952" y="1" relative="1" as="geometry">
            <mxPoint x="-1" y="-2" as="offset" />
          </mxGeometry>
        </mxCell>
        <mxCell id="a5iX6j4bG5qRSzKylkkZ-6" value="USB/SATA&lt;br&gt;Adapter" style="rounded=0;whiteSpace=wrap;html=1;verticalAlign=middle;" parent="1" vertex="1">
          <mxGeometry x="865" y="900" width="330" height="40" as="geometry" />
        </mxCell>
        <mxCell id="a5iX6j4bG5qRSzKylkkZ-20" value="" style="shape=flexArrow;endArrow=classic;html=1;strokeWidth=1;fillColor=#dae8fc;strokeColor=#6c8ebf;startArrow=block;" parent="1" edge="1">
          <mxGeometry width="50" height="50" relative="1" as="geometry">
            <mxPoint x="1200" y="830" as="sourcePoint" />
            <mxPoint x="1220" y="410" as="targetPoint" />
            <Array as="points">
              <mxPoint x="1300" y="830" />
              <mxPoint x="1300" y="410" />
            </Array>
          </mxGeometry>
        </mxCell>
        <mxCell id="a5iX6j4bG5qRSzKylkkZ-21" value="4x" style="edgeLabel;html=1;align=center;verticalAlign=middle;resizable=0;points=[];" parent="a5iX6j4bG5qRSzKylkkZ-20" vertex="1" connectable="0">
          <mxGeometry x="-0.24" y="-1" relative="1" as="geometry">
            <mxPoint x="-51" y="-312" as="offset" />
          </mxGeometry>
        </mxCell>
        <mxCell id="a5iX6j4bG5qRSzKylkkZ-24" value="Ethernet" style="edgeLabel;html=1;align=center;verticalAlign=middle;resizable=0;points=[];horizontal=0;labelBackgroundColor=none;" parent="a5iX6j4bG5qRSzKylkkZ-20" vertex="1" connectable="0">
          <mxGeometry x="0.0956" y="-1" relative="1" as="geometry">
            <mxPoint x="-1" y="39" as="offset" />
          </mxGeometry>
        </mxCell>
        <mxCell id="a5iX6j4bG5qRSzKylkkZ-22" value="4x" style="edgeLabel;html=1;align=center;verticalAlign=middle;resizable=0;points=[];" parent="1" vertex="1" connectable="0">
          <mxGeometry x="1195" y="610" as="geometry">
            <mxPoint x="28" y="189" as="offset" />
          </mxGeometry>
        </mxCell>
        <mxCell id="a5iX6j4bG5qRSzKylkkZ-26" value="TODO:&lt;br&gt;* How would new form factor affect connections?&lt;br&gt;* USB hub power&lt;br&gt;" style="text;html=1;strokeColor=none;fillColor=none;align=left;verticalAlign=top;whiteSpace=wrap;rounded=0;labelBackgroundColor=none;" parent="1" vertex="1">
          <mxGeometry x="60" y="880" width="270" height="250" as="geometry" />
        </mxCell>
        <mxCell id="nD-tN_yUyBWVlTquZh_A-1" value="ATX&lt;br&gt;CONN&lt;br&gt;+12V&lt;br&gt;+5V&lt;br&gt;+5VSB&lt;br&gt;+3.3V&lt;br&gt;PS_ON#" style="rounded=0;whiteSpace=wrap;html=1;" parent="1" vertex="1">
          <mxGeometry x="170" y="545" width="110" height="155" as="geometry" />
        </mxCell>
        <mxCell id="nD-tN_yUyBWVlTquZh_A-2" value="" style="shape=flexArrow;endArrow=classic;html=1;strokeWidth=1;fillColor=#fff2cc;strokeColor=#d6b656;entryX=0;entryY=0.5;entryDx=0;entryDy=0;" parent="1" target="JYS4BPK2dpWjeIuSEi76-16" edge="1">
          <mxGeometry width="50" height="50" relative="1" as="geometry">
            <mxPoint x="619.66" y="690" as="sourcePoint" />
            <mxPoint x="620" y="850" as="targetPoint" />
            <Array as="points">
              <mxPoint x="620" y="730" />
              <mxPoint x="620" y="830" />
            </Array>
          </mxGeometry>
        </mxCell>
        <mxCell id="nD-tN_yUyBWVlTquZh_A-5" value="&lt;div&gt;Backplane Mgmt&lt;/div&gt;&lt;div&gt;RP2040&lt;/div&gt;&lt;div&gt;&lt;br&gt;&lt;/div&gt;&lt;div&gt;USB Device&lt;/div&gt;" style="rounded=0;whiteSpace=wrap;html=1;align=center;verticalAlign=top;" parent="1" vertex="1">
          <mxGeometry x="360" y="640" width="130" height="80" as="geometry" />
        </mxCell>
      </root>
    </mxGraphModel>
  </diagram>
  <diagram id="6NxBXGfKM2cuJRmJCFxG" name="HAT">
    <mxGraphModel dx="934" dy="1079" grid="1" gridSize="10" guides="1" tooltips="1" connect="1" arrows="1" fold="1" page="1" pageScale="1" pageWidth="1654" pageHeight="1169" math="0" shadow="0">
      <root>
        <mxCell id="tb8Lkx9Qm9kQfr8fyZOy-0" />
        <mxCell id="tb8Lkx9Qm9kQfr8fyZOy-1" parent="tb8Lkx9Qm9kQfr8fyZOy-0" />
        <mxCell id="2_bnYT3e9y1Y6GlhtHqV-0" value="HAT" style="rounded=0;whiteSpace=wrap;html=1;fillColor=#ffffff;align=center;verticalAlign=top;" parent="tb8Lkx9Qm9kQfr8fyZOy-1" vertex="1">
          <mxGeometry x="440" y="200" width="320" height="240" as="geometry" />
        </mxCell>
        <mxCell id="2_bnYT3e9y1Y6GlhtHqV-1" value="DCDC &lt;br&gt;to 5.1V" style="rounded=0;whiteSpace=wrap;html=1;fillColor=#ffffff;align=center;verticalAlign=middle;" parent="tb8Lkx9Qm9kQfr8fyZOy-1" vertex="1">
          <mxGeometry x="560" y="240" width="60" height="40" as="geometry" />
        </mxCell>
        <mxCell id="2_bnYT3e9y1Y6GlhtHqV-2" value="DCDC &lt;br&gt;to 3.3V" style="rounded=0;whiteSpace=wrap;html=1;fillColor=#ffffff;align=center;verticalAlign=middle;" parent="tb8Lkx9Qm9kQfr8fyZOy-1" vertex="1">
          <mxGeometry x="560" y="300" width="60" height="40" as="geometry" />
        </mxCell>
        <mxCell id="2_bnYT3e9y1Y6GlhtHqV-3" value="BMC" style="rounded=0;whiteSpace=wrap;html=1;fillColor=#ffffff;align=center;verticalAlign=middle;" parent="tb8Lkx9Qm9kQfr8fyZOy-1" vertex="1">
          <mxGeometry x="630" y="240" width="90" height="60" as="geometry" />
        </mxCell>
        <mxCell id="2_bnYT3e9y1Y6GlhtHqV-4" value="PAC1921" style="rounded=0;whiteSpace=wrap;html=1;fillColor=#ffffff;align=center;verticalAlign=middle;" parent="tb8Lkx9Qm9kQfr8fyZOy-1" vertex="1">
          <mxGeometry x="645" y="350" width="60" height="40" as="geometry" />
        </mxCell>
      </root>
    </mxGraphModel>
  </diagram>
  <diagram id="t0F34XYKFjaZHX1E5aVY" name="Rack Diagram">
    <mxGraphModel dx="1579" dy="2589" grid="1" gridSize="10" guides="1" tooltips="1" connect="1" arrows="1" fold="1" page="1" pageScale="1" pageWidth="827" pageHeight="1169" math="0" shadow="0">
      <root>
        <mxCell id="0" />
        <mxCell id="1" parent="0" />
        <mxCell id="XSdGwLVqfme5y12cQTK--4" value="" style="rounded=0;whiteSpace=wrap;html=1;movable=0;resizable=0;rotatable=0;deletable=0;editable=0;locked=1;connectable=0;" parent="1" vertex="1">
          <mxGeometry y="1.7763568394002505e-15" width="944.88" height="1049.9978999999998" as="geometry" />
        </mxCell>
        <mxCell id="XSdGwLVqfme5y12cQTK--5" value="" style="rounded=0;whiteSpace=wrap;html=1;fillColor=#d5e8d4;strokeColor=#82b366;" parent="1" vertex="1">
          <mxGeometry width="944.88" height="524.9989499999999" as="geometry" />
        </mxCell>
        <mxCell id="XSdGwLVqfme5y12cQTK--21" value="&lt;font style=&quot;font-size: 50px;&quot;&gt;Network Switch&lt;br&gt;&lt;/font&gt;" style="rounded=0;whiteSpace=wrap;html=1;fillColor=#f0a30a;fontColor=#000000;strokeColor=#BD7000;" parent="1" vertex="1">
          <mxGeometry y="525" width="944.88" height="174.99965" as="geometry" />
        </mxCell>
        <mxCell id="XSdGwLVqfme5y12cQTK--33" value="6U Half-width rack:&lt;br&gt;&lt;div style=&quot;text-align: left;&quot;&gt;&lt;span style=&quot;background-color: initial;&quot;&gt;Inner dimensions&lt;/span&gt;&lt;/div&gt;" style="text;html=1;strokeColor=none;fillColor=none;align=center;verticalAlign=middle;whiteSpace=wrap;rounded=0;" parent="1" vertex="1">
          <mxGeometry y="1047.24" width="120" height="42.76" as="geometry" />
        </mxCell>
        <mxCell id="XSdGwLVqfme5y12cQTK--34" value="" style="rounded=0;whiteSpace=wrap;html=1;fillColor=#d5e8d4;strokeColor=#82b366;align=left;" parent="1" vertex="1">
          <mxGeometry y="700" width="944.88" height="349.9993" as="geometry" />
        </mxCell>
        <mxCell id="XSdGwLVqfme5y12cQTK--37" value="&lt;font style=&quot;font-size: 24px;&quot;&gt;3U Chassis&lt;/font&gt;" style="text;html=1;strokeColor=none;fillColor=none;align=center;verticalAlign=middle;whiteSpace=wrap;rounded=0;" parent="1" vertex="1">
          <mxGeometry x="944.88" y="241.12" width="145.12" height="42.76" as="geometry" />
        </mxCell>
        <mxCell id="XSdGwLVqfme5y12cQTK--45" value="&lt;font style=&quot;font-size: 24px;&quot;&gt;2U Chassis&lt;/font&gt;" style="text;html=1;strokeColor=none;fillColor=none;align=center;verticalAlign=middle;whiteSpace=wrap;rounded=0;" parent="1" vertex="1">
          <mxGeometry x="944.88" y="853.62" width="145.12" height="42.76" as="geometry" />
        </mxCell>
        <mxCell id="XSdGwLVqfme5y12cQTK--46" value="&lt;font style=&quot;font-size: 24px;&quot;&gt;1U Switch&lt;/font&gt;" style="text;html=1;strokeColor=none;fillColor=none;align=center;verticalAlign=middle;whiteSpace=wrap;rounded=0;" parent="1" vertex="1">
          <mxGeometry x="944.88" y="591.12" width="145.12" height="42.76" as="geometry" />
        </mxCell>
        <mxCell id="akU_VqpwlgIZYW7BHdBq-8" value="" style="group" vertex="1" connectable="0" parent="1">
          <mxGeometry x="7.87" y="710" width="929.13" height="330" as="geometry" />
        </mxCell>
        <mxCell id="akU_VqpwlgIZYW7BHdBq-1" value="Tray" style="rounded=0;whiteSpace=wrap;html=1;" vertex="1" parent="akU_VqpwlgIZYW7BHdBq-8">
          <mxGeometry width="125.98372881355932" height="330.00000000000006" as="geometry" />
        </mxCell>
        <mxCell id="akU_VqpwlgIZYW7BHdBq-2" value="Tray" style="rounded=0;whiteSpace=wrap;html=1;" vertex="1" parent="akU_VqpwlgIZYW7BHdBq-8">
          <mxGeometry x="133.85771186440678" width="125.98372881355932" height="330.00000000000006" as="geometry" />
        </mxCell>
        <mxCell id="akU_VqpwlgIZYW7BHdBq-3" value="Tray" style="rounded=0;whiteSpace=wrap;html=1;" vertex="1" parent="akU_VqpwlgIZYW7BHdBq-8">
          <mxGeometry x="267.7154237288135" width="125.98372881355932" height="330.00000000000006" as="geometry" />
        </mxCell>
        <mxCell id="akU_VqpwlgIZYW7BHdBq-4" value="Tray" style="rounded=0;whiteSpace=wrap;html=1;" vertex="1" parent="akU_VqpwlgIZYW7BHdBq-8">
          <mxGeometry x="401.57313559322034" width="125.98372881355932" height="330.00000000000006" as="geometry" />
        </mxCell>
        <mxCell id="akU_VqpwlgIZYW7BHdBq-5" value="Tray" style="rounded=0;whiteSpace=wrap;html=1;" vertex="1" parent="akU_VqpwlgIZYW7BHdBq-8">
          <mxGeometry x="535.430847457627" width="125.98372881355932" height="330.00000000000006" as="geometry" />
        </mxCell>
        <mxCell id="akU_VqpwlgIZYW7BHdBq-6" value="Tray" style="rounded=0;whiteSpace=wrap;html=1;" vertex="1" parent="akU_VqpwlgIZYW7BHdBq-8">
          <mxGeometry x="669.288559322034" width="125.98372881355932" height="330.00000000000006" as="geometry" />
        </mxCell>
        <mxCell id="akU_VqpwlgIZYW7BHdBq-7" value="Tray" style="rounded=0;whiteSpace=wrap;html=1;" vertex="1" parent="akU_VqpwlgIZYW7BHdBq-8">
          <mxGeometry x="803.1462711864407" width="125.98372881355932" height="330.00000000000006" as="geometry" />
        </mxCell>
        <mxCell id="akU_VqpwlgIZYW7BHdBq-10" value="&lt;font style=&quot;font-size: 24px;&quot;&gt;Front View&lt;/font&gt;" style="text;html=1;strokeColor=none;fillColor=none;align=center;verticalAlign=middle;whiteSpace=wrap;rounded=0;" vertex="1" parent="1">
          <mxGeometry y="-80" width="944.88" height="79.76" as="geometry" />
        </mxCell>
        <mxCell id="akU_VqpwlgIZYW7BHdBq-12" value="&lt;span style=&quot;font-size: 24px;&quot;&gt;Side View (Left)&lt;/span&gt;" style="text;html=1;strokeColor=none;fillColor=none;align=center;verticalAlign=middle;whiteSpace=wrap;rounded=0;" vertex="1" parent="1">
          <mxGeometry x="1320" y="-90" width="1170" height="79.76" as="geometry" />
        </mxCell>
        <mxCell id="akU_VqpwlgIZYW7BHdBq-14" value="" style="rounded=0;whiteSpace=wrap;html=1;" vertex="1" parent="1">
          <mxGeometry x="1320" y="0.5299999999999994" width="1102.36" height="503.94" as="geometry" />
        </mxCell>
        <mxCell id="akU_VqpwlgIZYW7BHdBq-15" value="" style="group" vertex="1" connectable="0" parent="1">
          <mxGeometry x="7.874" y="10.531474999999999" width="929.132" height="503.9359999999999" as="geometry" />
        </mxCell>
        <mxCell id="XSdGwLVqfme5y12cQTK--16" value="Tray" style="rounded=0;whiteSpace=wrap;html=1;" parent="akU_VqpwlgIZYW7BHdBq-15" vertex="1">
          <mxGeometry width="125.984" height="503.936" as="geometry" />
        </mxCell>
        <mxCell id="XSdGwLVqfme5y12cQTK--39" value="Tray" style="rounded=0;whiteSpace=wrap;html=1;" parent="akU_VqpwlgIZYW7BHdBq-15" vertex="1">
          <mxGeometry x="133.858" y="1.7763568394002505e-15" width="125.984" height="503.936" as="geometry" />
        </mxCell>
        <mxCell id="XSdGwLVqfme5y12cQTK--40" value="Tray" style="rounded=0;whiteSpace=wrap;html=1;" parent="akU_VqpwlgIZYW7BHdBq-15" vertex="1">
          <mxGeometry x="401.57399999999996" y="1.7763568394002505e-15" width="125.984" height="503.936" as="geometry" />
        </mxCell>
        <mxCell id="XSdGwLVqfme5y12cQTK--41" value="Tray" style="rounded=0;whiteSpace=wrap;html=1;" parent="akU_VqpwlgIZYW7BHdBq-15" vertex="1">
          <mxGeometry x="267.71599999999995" y="1.7763568394002505e-15" width="125.984" height="503.936" as="geometry" />
        </mxCell>
        <mxCell id="XSdGwLVqfme5y12cQTK--42" value="Tray" style="rounded=0;whiteSpace=wrap;html=1;" parent="akU_VqpwlgIZYW7BHdBq-15" vertex="1">
          <mxGeometry x="535.4319999999999" y="1.7763568394002505e-15" width="125.984" height="503.936" as="geometry" />
        </mxCell>
        <mxCell id="XSdGwLVqfme5y12cQTK--43" value="Tray" style="rounded=0;whiteSpace=wrap;html=1;" parent="akU_VqpwlgIZYW7BHdBq-15" vertex="1">
          <mxGeometry x="669.29" y="1.7763568394002505e-15" width="125.984" height="503.936" as="geometry" />
        </mxCell>
        <mxCell id="XSdGwLVqfme5y12cQTK--44" value="Tray" style="rounded=0;whiteSpace=wrap;html=1;" parent="akU_VqpwlgIZYW7BHdBq-15" vertex="1">
          <mxGeometry x="803.1479999999999" y="1.7763568394002505e-15" width="125.984" height="503.936" as="geometry" />
        </mxCell>
        <mxCell id="akU_VqpwlgIZYW7BHdBq-16" value="3.5&quot; HDD" style="rounded=0;whiteSpace=wrap;html=1;" vertex="1" parent="1">
          <mxGeometry x="1320" y="39.999999999999986" width="574.9988500000001" height="399.9992" as="geometry" />
        </mxCell>
        <mxCell id="akU_VqpwlgIZYW7BHdBq-17" value="&lt;span style=&quot;font-size: 24px;&quot;&gt;Front&lt;/span&gt;" style="text;html=1;strokeColor=none;fillColor=none;align=center;verticalAlign=middle;whiteSpace=wrap;rounded=0;" vertex="1" parent="1">
          <mxGeometry x="2422.36" y="-0.24" width="177.64" height="503.94" as="geometry" />
        </mxCell>
        <mxCell id="akU_VqpwlgIZYW7BHdBq-19" value="" style="shape=image;verticalLabelPosition=bottom;labelBackgroundColor=default;verticalAlign=top;aspect=fixed;imageAspect=0;image=data:image/png,iVBORw0KGgoAAAANSUhEUgAAAbgAAAGbCAYAAAC28oUrAAAACXBIWXMAAA7EAAAOxAGVKw4bAAAgAElEQVR4nOy9eZQd13nY+btV9fb3ul/v3ejGDpAACO6UKImyNtuyYslrFuckGWcmiWnF9njGGeeceCYT03bOmWQSzySZnLHHjiaLM/Ek9jixZVm2JUu0LJGURBIkARIkQBBrN3pfXr/9VdWdP2qvV/W6G2gAD0B9OI1XdetXX939u/fWrXvh3hAl9NvvbPiehL3zbCKJJHKPSVwFEOWuRLhHuUW596r8b5ZVADPivn5m48Ibd1/C7g5LiNmqUZKwCXs3s4ncI9JvFelWbPie7bgn7O6xiSSSyH0g4dbAVq3ccIXRq7LfrvuNslH3mBHX4vTfSVbxsduN34S9eZYYPuo4YRP2bmcdt6gysN369V5hb4vs5KE79WBUBRanox/YRBJJJJFbLVvVVfcLe1fKrTKYCXvvs4kkksg9LsJ3rOANrxHh7lQeUUzUPQ4bPvYP4UVd3ynrF/MuYqOGMsM6Enb3WX/+jeL97gmbsPcC66+Pouqne5rdzVbvdnTtZotciTm+G1nF90fEccLePLsd2c38mbAJ28/sfSn3SgT5K7u7gU0kkUQSuRWyk8bevcxuS8FO2bj7d5PdqhfVb2zc+XZ7Hwl7Y2wiiSRyn0rS27jz0g/DFvcym0giidxHIvAqiPBLyvBL+rjJJQrx9/Zid6I3zo+Om0L3S8go6Vc2HAe9wpawN85GuYfzWdzkoIRN2LuNTSRGdrMFHXc9yn0nbNT17fi7H9jwPXHnCbu7bCKJJHIfidOD6zXlEqJbBdtpIW8lt4q922SruE7Y3WP9btCd/+PuT9iEvdvYuB7efcXeSGt5Oz2t28XG/d6NbPieOB0Ju7tsL/eETdiEvfvZnQE7ZOMqn91itzKQ/cgq22DDfwm7e6z/nu1Kwibs3cj2W91329le0FYRuJPrW+ndCbsdv+y2Ib3VbJT7VomcsNtno86jDGEvt4RN2LuJ3apOvdfZgMRVHrslO9G/HXarCuxuYLdKpITdPTaRRBJJZNcN0e2UW+X3uzlOEkkkkUTua9luz6MfjEIU26/+uhk2tqudsDfNxvW8t5O3EjZh7xb2Tj+/X9i7Wu4Wg5VIIokkkshtknDPbKetX4Xt3xdmt9K/FRv17F7h6Sc2/Nfreq/nJOzO2LBEXYvLcwmbsHcbG5X/70e2S7aK0Btld0PHVm5bBbIf2O3y20nkhN0Zu5UkbMLeL+w9L702PPVHVHglCD8XJVH3bmfdtJ2wW92zE7/cbtbvFhfnUZKwN89utSrPVu4Jm7B3C5sIW/dG/G5KzHH4PmWb7jfDRvmh1/W7lSVhd40NX+t1nrAJe6+w27n/fmVvrZJEEkkkkUQSuRXiX2x5O7/Q3R2OYvzX2Kb7TtkoA7sd//YLu51h3q2YhN0Z2yvf9hrmSdiETdi7n3VFiTneit1tffdyL3G78eb8JezusUqI3Upfwibs3cqGef/vfcPuRMF25EYi/WbYKPe4xO9XNpFEEkkkkdsg4Qq4VyW9nR7Xbhqzre67G1i/4dsq/hJ291gi3Pu21ZmwCXuTbPj6/cy6UNK7uD2y28Y+YXfOJpJIIvewhFu6Jt0v6eMqip30Vnbin52yYaMc16K/m9g4SdjdYbfq1SVswt4rbBxzX7E30tpNenuJ3K0SV0EkbMLea2witsRFUlTPQ4k4j2Oj9ITdb4RVQu5R/orS349slHvC7j4bJTupHBI2Ye82NqpcxN13z7H+pbrC0I18e+Q/3ordid6dPNc5dsJi9ikL8eELh71XXCTsztlEErmv5PqlS0Vg0jmXAFI2hRBzUwcO7LicXL94UUGIGSAtCRiSuakDB+o37eFdkrBVNH1/2xUz5ngrdid6b7WuO8lG9TYS9tawW8nd0CJP2ITdMSul/OcSziPleQnngfMI8TpwZAf6PRHiEQlnpZSWLk/vz9+QvlskGtEt3ageCAQjMKq3EvU1eVSrOqznZtjwcwkxcT2rO836wxQOu1+UCCZhb4yN6uX5JSq/JWzC3q2s6y6EOASAEP7eVhkYBd7dho6wTArII2xttl4p5aE4P2xT766yGtEVb7hSIOQOzz2rgCyCKILUQNicv8PqHEv7XMRcvxE2zMSxYd39wibSP7KTNEnYnUs/+Pd+ZiUtvZPNqJpFCuEMUfKVaxcmee7ZfUFdbPnsU4vXxh8fn0FK6dVqQlDrtPNBfTvT6wuPCVIHqkCV536912hZ7LWod3BRLV147scVkKPAx4CPg3wKxDiQB7TtJcitSOC7IYNtxW7HMCbs7rBh6dc80R+sAkxoCk+UsjxeyDCd1chqCgJoGCbzTZ3Xay1e3mwx1zEiapr+Ddu9yCqm5PCVFTLNToD67Hd9pvixJ9+vCeGxleom/+A3fr16fWNNd9ya+TTv7h32qRSMbDSYur4e0HdwZFx77kd/rJjNZD2fSMnnv/68/v984ytV11EILu8dYjOfwTNy9AyfAAqKIK0IPS9EXQgWDXhVMeWfLOnm11qCRX7+17bzekjxL7YcuOC6PfesAjygwM+cyKb+wkw2NXwgo5JVFQwpWe6YXGx2OFtvs2FKXyCiejThYNwMG3UfvvM4Hf3AEsMTcX2rij1ht8/2So+t5H5jBYfSGn9losSTAzlyqoiMXilBIGiZJqcqTX5rcZM3mx3i4/xW+TdhwTp94MISw8tVXzJZR6qqBkqFYZpIKX0ELEwNcnHfcKD4lKptTrw5i5AEWCEEquIN8EkpLZ14t+uawulHZmil1S3DMqgIvmMwx/sGshzOpShpKpoikBJ0U7LWMZhrdVZnm53f+dpa/X+Xkrff/J9+JcrQufYrzsBZ8tyz44/lUr/w/oHc3/jYUD49lNaIqyR0KTmz2eQLKzW+udmi0zORgglzuKVHDqJWFIWFlBpg97UNMrJbd0sIroT8l9ZNUkZEm1II6ik1kIgZTSWf7U4EKWGz3sHwPVNTFIo5DSHCMFSbOh3fMxUhGMinulmg0TJodozA/bmOgRIRPl1VaGnBWCpmNVJad8wZhqTS0PHHRS6tko3IZFJK1mtBVjMkGd3oYgEaKQ3T90hVUShFxQVQa+q0dS8uhBAM5jSE0g032waNtv+ZgoGchqp2sx3dpNrUA25aZgglle1ipanTqS8HwpcyJOmI8EkhaKRUpO+RKdVK624YNhs6uukLn4R8W+9mgZamogfCIijno+Oi1Taoh+KilNPQIuJC1002Q3GRz2hkUt35wjQlG/VgWvuf4bgXFIUfHS/x6bESmmI5B5oQQthu0nNDgJAYEr66XOXX5itUTJO+NQT3MDu5uMmBC0tIK0nc9Ap2mmTwx0pYzh+bZLWc8+kVaIbJI29cI233Cneid7Oc581jkxYbaPR4v4OK4EfGinxqtEheVQhUJjbqGGJh57ONttG+XO/839/aqP/8b//3/3yRGDvm95o3KeK5H1MezKQ+/Knhwue+Yzh/pKAqiKiHhryLBAPJO9UWvzK7zvlWdGF3WxRS8qNXV/iv35knKkGraY1/8PgBXillEcCnVjb52devopndRktXFP7ZwzP8/tgAEijV25w8M4fWia6orxwY4fJ0GYRVeXz8g3solTLR7NUKL76+iG5IUprgo++bYmK8EMkurzT402/N0WybKAKefniMQwcGibIA9Vqb51+aY63aASmZmd/gwHsriAgDZ2gKb52YYr2UBSE4MFng6Scn0SIMnDQlr7y+yLkrFSQwMpjmo0/vIZdLdXtYSs6eX+O1t1cwJWTaOg+dnaew2YwM38pYkXNHxtFVhbQq+NATk0zvKUaya2tNnv/WHPWmgSLgyRMjPHB4KDIuGvUOX/vmHMuVNgDH9g/w+CPjKBEGQO8YvPDKPFcXrNnIxfETTD3111HTuYi4MFg887usvfengEmh0eHEW9fJNjpdLMD8dJl3948gFchlND76vilGRrr1AszPV/n6Kwu0dAPVkBx9b5mxhUokWy9mePP4FM2MihCCRx8Y5qEHhyPjotnU+bNvzrG43gQER2dKPPXYBEqEgTN0k2+dWuC9uU1AMDGc5aNP7yEV1ZgxJWfeXuGN82uOC+Ge7oSm8vf2DXOsmPEqMCLrnMB5+OBSvc3/cnmVKx2D6IqNkFtYe8LeKFtotDn5+lWQ2PW2tK9Y796ElCCE+/7M0WBqKq8/vpe2pgSfIyXHzy0wuFrznrZNvdf2j3BtTznS/wJ4vJDmp6aHmMo6jWRhaZXCaTMhkdZ7Q1u/FS6JlLDWNt49u9n4m780u/F1nvu1rvkk/lIgAJPnnlW+p5T9S391avA/PF3OT6XDFtUhQ1bO9htCCMYyGh8p59hsG1xo+VuMnh5Nwo9dXua/OXudlGmiGSaaBNUw0UyJJiHfMfjwUoULw0WeqDT42deukO8YFmszminRTEnaMHl6scJaKcu8hJNn5sg0dRRTRv6V1+oIVYGpEh//0DTloSyqIlAUBUURKIpAKAJFgaFyloFcipW1Jt/x1BR79hRj2VIxzfhQloWlOk+eGOXokSFUNcyCoihksxp7JvIsLtYYubzK4XOLqEa0f1XdZGSlRm0wy8SBMs+8f4p0RkMoVi/Keb6iKKiqwtREAb1lgIRPfGiGQjEdy46N5EirgrW5TU6enqO40YiNt3y1RaHVYXOsyHc8vYeZmRKKKrr1KoJ8IcXkSI65hRqPHxvh2NFhFC2aTWc0picLLC01OLCnyJOPTaCllEhWTanMTBbZrLQwCg8y/fTfQM2WUFQNoWgIoSJUDaGoCCVFYeIYpt5CnT3HyTNz5Kvt2PCVNhqkTUlzssTHPjjN2FjeDp+Vxk66CwUGShlGBzPMzW5y5NwC43MbsXozTZ2hjTprY0UeOTnGyeOjdlx0602nNfZOFVleqjMzXuB9T0yipZVIVtVUpqeKVDfb5DIqH/3ANNmcFskqqsLEWB5hmCyuNUMFWjKiKvziwVGOFDIIe1acEKHy7jv0V7UBVkA5rfFEMcMrlSabbk8OP+2rFwidJ+zNsB1NYWpxE9WUDA2UGB8eopTPUas3sK0DiiKYnhhlaGAAoQiarTb1gRzXJ0o+vcJVnWkbDFaaaCmNmYkxyqUihmnS6XRACoSQDA4UmRgZZqCQp9poYgKz+4Z9w5NBvX9uMMfP7BthOKPZE18s90DvELxJMb48KS1jQ14Vw6MZ7c8fzWgXX37y5Fud51+x7JglivNkpxsgv+/7n/mRv7Sn/K/35zMFN5P7/2zr7C8A/laAw6UVhacGcrR1k7cabV8CWPKhSoP/4bXLqKbsMqDCDgxApmPw0YUNnrm+YQ2b+aalSikDPUtNSp5arHB9pY7e6f0OUgCD63Ue+tQRBqcHvFaI3YIQOGEX1tDaYIbD+wYYGsr2ZAEKhTSH9g4wNpZ3EyfIWgktEKTTKjMZhcznz7pj3HGiGpKJeosTf/kkqYwW0Sjy9AoBU5MFDuwdIJvtzQKMjeQY+vZVtEtroZTqjrdcrc0Dj00w+eiUe3+kXinJ51Mc3ltiYrzopVUMm05r7NtTZO9MCcWZlBvDaprCzJ4itZnPoqYL7nWr5WcXFLsWFopKceI4+770RXJLiz3jWAClSpNjH9rL6JERO597JcAJr5MvSqU04/MbpL59rWe8AaTbBvuHMhz+5BGroROnF9BSCvumS8xMF9E0pSerKILpySIH95asRk8PVgjBxHiexYUa1YaBUy7TQvBze4c5PpDz0sl6webmWdfWOS1q9zyaHUipPJBN8WfrTTpu7IZjW/jcw8cJe0OsEAxUW2TqbZ5+7ASPPfQgM1PjvHvpKh3DRAD5XI7v/o6nObx/hpSmcmVugaWJASqlXFCXfawIGF3cZGRwgO/68Ps5uG+adqfD/PIajtF87MQDPPXIcfbumeDStTmqQnJ1egipdPvxo6UsP71/mKwzQuOUc6w8ijMk6ZZlvJGtEKsJkRlLa58ZEuLdb33hhdM+j0vn5YIJKE/8o5/80PdPDHxuIqNlncrCfR/h5mbborkPsz3j67I63UtVCP76dJk13eBPKsEhr6xhopjSrXc3Hp7mQl7FNE3MapPHz62Sso1f1h5mdNjG4THOTRTodHRarQ6Pvb1M0TZommGi6QbOVwsjQzmOHRmm0WihGwYXLm1Qa1iskHjvNSRkDcm+09eprlYxpWRlegD9+JQbkemM6rIqcOjtZWpzq0hgfTBD86n9bvjS9lAUVrnn0JUNmhcWkVJSUSS1jz3gVgiaIgLG7fjRMQp5gWmY1Oot3r28iWGPtCpSoqqKlTxIRqsdiq/P0m51aOsGq0/tRY4U3co9lRIuW+iY7Dk1R63awDBNVh4cw9g3gmN8U0icQWVNU/jQUzNUq3VMKbk6V2FlzaumUoqnVwEOn1+jdnUFKSUbhRSNDxy09EpJKq3Z0WYZqP2zm3TOzSNNSdXQ2fzkCR+ruv4RCPasNlFPz6LrBk3dYO0jhxHZNFJKFFVBEWk3a+6tz/HIqd+i1WzRMSSnHvkLVCaP2EMcCqrw3qUNlDI8emKMWq2JaUreu7pOZdMbzk45uc0ae+HBNxapLFWQSFaHs7Qfs2dCCysu/NXBB56cptNuI6VkabXG1bmGe00L6d07X8N8e95Ka2lS+ehR0Kz3w1pK8b26kEyst8mcnqXT1ml1dFafOQTFLAhQVOHmN4Sk1DQYOzVLo95CN01WHprEnCpbeU6IrnebPzRc4InBHG5BdxsVfifp5qvQhVj2WDHDXxkr8q8WK3RX1nESHoJL2J2ymwNZyqtVnv/mKfjmKcBplFlcrd7gN3/vj73bFcHGQHgo3tNZy6YwUirLaxv8xn/+oksIt9sueenUGV46dcZ1r44WMQLGzZKDaZWf3jdEWlFCnRTn2GlAyUCovKHRbjanKdmnh/KfO/VPfurK1//uv3wJ26a5L3Amfumzwz8wVvzcTC6Vd1pngQ5FwABLt+Fg2TyvnYi/AAjQFHh2Zogp5211UKtbMNJ7hlAPjdOYGuSy0cH0G9EQqw4VyDwwRWNqkCuqpNOj65PLpXno+B4mJ0tommuCgyKtqFSBo5kcw9UOqYVNOkubPsTuQNuskHA4m2W0YZBfrdOcWwuwfr0gmEmlmdJhsNKi+d6S/+Fd3pkYL3Hk0BiTkyV0M/pdkVOBFFE4rGUYrnbQLy9juu+WZBebRnA0nWW42oG5dfRKo4t1RBGCkyemmZwcoFRKY5rd71P9vddD2SyjdZ3SepPGtRWXcHKGv3Kc0lLsMQSDmy0a7y32ZIeEwn6hMVTt0Lq4CIYZYMHLbiXZ5OHUAjOb50hfeQ1Rr9isL01sSadUHjo+zeRkiUxWARnV43fyq+BIJstoQye3Wqd1fd27FpGdjh6eYGa6zOhogY7eitDr6BaMqylmTIWhapvmxUXbn2G9FjsoFA4oKYarHdoXl5DO+60INisFR+y0ltfWMGrNGFYyoSn84HjJ7a1KQApJ8B8IFDK5AYZGDjI0epBcrowQSgxrW2YBnx4vMZPS8OIz6i8Y3wl7c2ylmEEKYdfNwm10SLDrJXDqagG0MxqNXCpWv64q1PNpnJ46bl7xpzk449QSycZgzrMX9l9awI/vKVNQVRyD5WrwN5L8z7ez7VbsSFrNf3y48LnyL/74sH2zaa1k8tyzPFlM/9wT5dwxt0voxpl0I8IRIVS352YVSG+M3b3Pea4QDGgqPzo5wD+5th6c5hL8qh5VEWhCdF13ghpkFbTQ/RF1ja3Gbt1GTfUL+ENa78k0BaE6Ltb//iEZx9AJLFbRrHeaYdb1s32iqCpC8157Oi9Po0RRlNhrTpjcTrRq+cMJn6vX1813WDd8dtsmzIaixR5K24YfnLjQFdA9vV5HX3hlA2vKsqKq9nh6PAv44tiX0SMqdRAIRUFoKfsLGMs9slGDky+U2GzhvyCEky+UwLXYPGe/b+2RKd1LimbFRdc1GcGqCkJTfI3IeFaoip3Wouua7QDAd5bzlFPW893BGISvYoFCaYyjJz7ByNgBVNWarGQaOqsrV3n37PNU1md99zp6LB1ZBT49UuD/mo+egBOKmNBvwt4I28il0TUVrWO4MySdyzKAW6N0tVIWXXU6IcL367HVgSylDW80Yiu9G4M5nw5L35OFDI8MZIP9IOm8Y3McBJnsAKMThymWxjGlSWV9jpXFC+idpmuSnGcKO68i4MnB3LGjK9Wf+/ZzP/Z3ee7XTQ0wC3Diw+X8symheJnU967LkVx+mP2H38/oxFGyuSKGoVNZn2f28inmZ9+02n7+9HBVSJ4p5/ntpao96aRbzOVN8hrkpKQ0OIDCZmzSykqD1GKFcVNSKBVJsQLISL7V6jB3fR1DFwyWiqjqBhA9s9IArmOiTAwyMFYiP5iigfRFqBezUsA8OoyWyFNkUJNsxLAIWMYkVc6SHswyMpxj0UaiKt+1tTq5jIKUguHyIJeuRs9oFAIaimQtpaBMDDJWzrGZS2FE6BUCOgIWVYkyMcjwSJHVwTztGD+YUnL5ygq6DtlMlmw2C77M7dcrJVw3O4jREhkkQ4rJqowyXCClZAWD3ECGVCnD6GCauR7spgKpXAo1PcjEYJaLqjes4Rk5K4PXlQyzqT0Yk6MMDJuQH/CGQEKZo9MxuDa7iqFDsVBA09aB6N4ywDwGjJYoUKSUhmp3u8+V2bl10ikBKJQHSswvbUTqFMA6JqViGjWfYqycYdb3zkGG2JqQbGRV1IlBxgey1NJqoDrys20By3ZajwwXWC1m8d64BeW7h/OBdx1eHWCdj4wd5tH3/RCp0CxVVUsxNnGIoZEZzrz6eRbm3rL8I8PVh+Aj5Tz/dqFCM2iN7V9/0zHqWsLulNVVwfkHJ1AiPpOKkmbW6b2J2N/r4yUqxeiZ5l0iBE13colXF/7gaBHFaRz6yqZn21QOPvBhDh79IJrmzfqWUtJu1Tn31leZu3LK1eu+zrB1ZlWFpwdzz3673vkc8JYGcCiX+sljxUzR6YGACAzpCCEYnXiAh5/8flK+b41UVWN0/AAjY/sYn3qQN1/7PEanZd3vi3QhBCkFPlHOccE/jdrX5CucusIhf1PalN6wYKiJnTm/yIELS10sEezSSp0vfPm8h5pxTWpJSxW8+sCQ5yLiGuASE3j9wADsH9iSlcBbU3nEZN7nGi9vnJ3n9NteUzjKy054F/MaS4+MB/wcx9Y0wcsnRnuyjui6yR98+Zwbn+EhvrDb6X0l2Fvq0ut+SOpjz43nEGMRU/oj2CsDKa4+OuFBws86fgOQXMru4erDn3VRw34PG+X3jc0WX/jyOVdHfL6w5JUjZayl++zw9Yi7r37jPbfART3bLxdGs4iRSc+hh97ZUoq5R7y46JV+GxmFVx8a25I9mFYZy9hvHO3y6EezuUFOPvF9AePmfpNkh1HT0px8/DNsbsxTr612v7eXkuG0ytFMitPNTkQgI1rF2zpP2F7Xuo1RnLH0u4WbSt55J6WxPhj3LfTWeqdTGkcLmcB7N7exCihC4fgjn2LmwOOBa46kM3lOPva9aFqaK+99086u1jCDtPOZEILHStni0MLmT67Bf6vw3LPDR3KpH86p3lCNMwzk/JUGp3jkyR8gnc55w33+4AmFyenjPHDiu0BYwyfe/U6QBU8M5FDdVgcBYyQkCFMiTAmmz7BFjB8JPFaYvlmdMWNNpindv3ixniUV788ZZ+7Wa7Nie6yI0N1r2FRKn59jvOzdj6vTdPwR0rsTNhBvPn9E1dMBvSJar9eS9+UHH+vExXZZQqzFO5WtwBCq++ekCf485w+fyZb5wi2eIT/0yklyi3jz60V4eqVi5anbxQLsy6ZwFilxZkb7vbz34FNkssHvHKPKmpbKcODoh6zrzp9frxDsjfoOM5FbKCL0F3a/veyxXIqc6ss7brm1iPGp40zvfyxge1wtjpuicPTExygOTLhl3mmUOfxEJsVwSv1hnnu2rAAfPphNj4PXKg6ZL44e/xhaymsNeENEMnA+vf9RBof2eBz4elaSibTKhP/DZPtlp/Sz/sU7Q1EVZmXI/UbF0+mcud7rAneHlQHuZv3tnInwxRtkd9cP4vaxwuupOD1qKWScfduW+Cv8cDv1ZiJuJ3pvFQuSfWmNQOTYk1yc0jU+9WCgrAfuljLgPjJ2EFVNE8j8Pr0HMv6JJviOt/pL2N1lw9duD7svl3J7a1Zdj4+D/Yffh+Jb+itONC3N3gNP2ndKnMrX0asJOJDRxkF+WAP58b1ZzVsvwi0VEhDkimWGRva6yqOGkRxRVY2JPSfYWL0WUOWEIaMqFFMq6CbZ6Q6Tf3upS0eUNIwC31h5Hx25deANIKWqDMS0WLv8XM4hfS34XoareXGV9tXgoqNxkpoqkTvqGyLq0usdK8UMA595cFt6hf3exd/rCJp6TzRh8onymxS12rZ0f+XpAS7v2Z4/0gfK2/KD1WaR+Bef6cXqjTb1b1/blh8kCvIjhpvRAlq7syfFD0yTPh63uk5QtKlSKHxRz7f+T+0rbzv91LGCGydb6XUanNthTcOk9q2r9szKraVTsd7IFVV73qT0Xiv4JyVncwNbDk87x+lMHkXVMPQ2Ulgzjf16C4qzQoYjfhMc7jtG9QQSduesjLgnir/1bElTQToDRs6KJdb96WyJYmmsa1jSkXCnqjwy43bFnGFKv95ySlWAj2vAE9b6X95FgXA+ZSObHUDV0u5D4sS5VhwY96LcDpuwn65IaWdySWFPi/1/9WKkLmfigvO71p7gtQvH2DSCi4VK7G6pC1tuaSQZ/xhvDGvpCI0H92Cbby6w+aULsXHgl8KH91F4cDxar13khTVwjBjIUP7k0YgWt/d4h3WubYdNKfDdY19hPHM1Ml7dIWlbydX3/00qx49uqRes4UunVbQli9g2S1Nn4/97KypKu0QqCnxEBcX6ENpfCNxZr1Jaw3NSMvCBveRF1k4HV4sbm+7MTWE1IBRHxxZsbv8QhQPDu67XNFlgjnoAACAASURBVL1CuxUrDah84R3Mzfa24q7zxF4YyNGxPeKPM1e3kBhGJ/Cy37oWLDNg5WvTMEDKwOw6v17Tbc3HNT79FWc4pyfszlkZuh5nkG4Pm1U8o+Z9P2eJpmWsGdA+4+bPZ/5ybfFpFEXDNK1FRMJ6rdn44gkFrI3wvJFEW6H0OdoPiPoLXw+wxL3j8d/X/ee4u78iCPu/7wh8Cig8/YGiFMcK69q22R1KnF4p/d+meB53lp+xHifcxAqy7JiNjddIP2+t13mfc6vYnYrz7ZbXohNurHYVOWH5xsvboWcK35zSfmDZKbsTkSzrht0A8+l1Jnch2Fib67orrtxXN5fQ9Za94oSTsz12rhM1jzPse+H7TdibY0XoN+wep+PWsA3Tv5KTY2Osq51OA9MMjj50z/XwzjudpvVtrmOvQnrb1ujLIQUYr+tm4MWfrQ2EoNmoYOheqzCqF+d/cLXiWwophJpALWKhZEtvpHPwOc6v9A6E09UManOT2n17E8fKHbA7lDi9gXRzo91XFQhhBTIcKSLicBvslv7cod6u7L3L7E4koN+xaHi/bqb3ae9qdDmsCJN3H7szEVxq6pY6QcCwOUqvXTqFGVFmo4Yor11+DSntb2Kdl6E+vdeaUZ9h7MT3Cbtztn+k0jGCXvcdd9p1NtcXtq1rdekyVpeNrlasFLDW0QFGNZDpK60Ox8nirNZssdZdjfo6aytXGZ047CmIsUamabAwd9Y3dOIMxVmt85ZhUu2Y+C2fo+ryxWOcfbOMlJJUpslHP/4mqZT9vkQGnztU7ZA6v4hpmOimycbDe5B5ZxjF8b3l/3zbYPDtRTrtDqaUbBwawRgt2GSQTZsmo+eWaVebSKAyXqCzfzjAOqIoggcPj2DoVgWxtlFneTU4POTvBU7ObdKZWwcpaaiC2uMzvgo58FEFI6tNxMUlpClpK7B5cg8yowYaDM5Q8kCtQ/bcIoZuYEjJxoPjmIPZQKI7w5HNZpkXvvYQzaaORHLy0ffYt2+5y88CgWJKps4t09xsIIHN4Rztw6NWZ8L2iLuSiZRMXtmgvbgJSGqFFI0Tk5GslJKJxTrG1VWQkiaS6vv2BVi/zEwNUMirVlzoOldmq0S1kaSUjLeWOXj2jzF0HUMKzh35BPWh6S5bKiVkTZPhs4u0G20ksDE9gDHlfAYQzJ9CwMy5ZRob1u4FlXKWzpHxWHbq6gbthQpIST2n0TgxhTXy0M2OLtfhkrXEWUtA9bEZUJVItrzZ7sr35NIB1pGBUoaZqSJ6x8AwTWbnqzRb4YiTnG90aBgmeXvHEM/YAUKyNP8Oc1dPM73vkeBQfqh1vXD9HNevvuHdj1O2LbZtmJytO/vEOeKvnbZq4Sbsztn+kvcabdvG2A7uvjuWXHz3RYZGZqxF0kXEKwe7IHfaDa5eesWtWcJGrmNIeycbmVVA8Ha9bSvxG0KBM6Pq3bf/FL3T6hqaDJ/PXnmdjbVZ37CisHtClnlYaBvM68FhCqdxWt98gMvvPcqbp4/xtT8dodNRvKE1pzFoP2vUFDxYMxmfq2CeuoJstMNtXvemgoSTbcH4XAX1zTmMtVqQ9T0gJeFRU2N8rkLu/CKdKyux7WNFETz91H4OHxxiz2QBRYl6ue94XHJUquxdbjBybYPWa5e9nofT9bDDJoFpqXBoo8PYXIXOa1eQVmsk2NOy2SFTcLwhGZ+rIF+/imlvcyPCQQQMvcTy/Ad568wxXvzGNLPXCoHhS79eBXhUphif26R4YZm2vaSWFV0iwArgIVJMzm8ydGWN1tnZWBYBh6TKvtUmI9c2aL96qYv1y/59wzx2cg8H95fJZkyU6ORAIBgzNvlo6zTHZ7/O2OkvklpftK4IEUpzSdqER3SV8bkKmXfm0efWLQMr6GIBHjE1JuerlC6t0j4/35M9Too9CzVGrm3QfONKT3a/qXJgvc3YbIX2a5eRphnLjpuCB2omY3MVjFOXkc1ON2vLwECWp5/cz8EDZQYHNRQlqjIU1KTk9UrTM1jOTGaBvcKE5O03/pAr772MYTj50DN0pqEzd/U0Z179XZwl7LD/rLxlsW9VW6wZzopHvkId+A27J+zNsdu5dvvYc40ONcPEahQLwB7Rsj8sXVm8wMV3X3J7PX474/yapsHZ039Eo7Zq51XvVZijd7als2wPh2sAr9faVitOU73WmTsLQVJZn+ONV/4Ljzz1Q2hauqv1JqVkfvYs5858GaRphyeoAwmnKk2C+716iBACVdVQFC22h+hf+zClqWj2Yp3eNa8XYD8VgJSmoCneWpgB1n6+w2qqxSo43g7q9YuqKKTSKmpbRI6xuvPHpBW+lGZteeImoN+nErzeM6Q1lZQvfAHW1e+Ez4qLbr3doqoqQmhI4r/lcu7UVAVN9YZUe/lBVRU0VUEXwssCEawVTEFaU2kp/r2jgqxfUmkNLaX0HMZ2ejEpTSGtSJy1Jbs/cPaUaKoTb7a7CBPS/VUVK3y+FcAiWYm13FtKVdAVETMT02MRTvqJ4GzeLl874QumdRTrSCqlkko5E7OiKMvtD1drvL+cx5lL7UaZsI4Nvc3bp/+Q69fOMLHnOKXBCYRQ2KwssDj3NmsrVwDvUw5nry6rDrAml/zRag0jVPa7e3N+t4TdHVaE3Ii4fnvYBd3krc0W7x/K470Bsq5bxybvvv08jfoGR49/jHQmH+i51aqrvHPmSywvnAec9Wptq2A/Rgp4ab1By56BrAFc7xicqjT50HDBruz9FaVlwJbmz/HCV3+NA0c+yOjYIdLZAqahs1lZYPby68zPnnG96/vP/W2bki+v1YmqyCy/1CmV2uRzUB4q4djYYKRZfmkjaamQGSowrkBNVRxj7hNr6oEBVE2TzFCBsazGWsZeysqOYGfGl2OMNnSdzFCBoWKGpYE0TR8blrX1GqpQKeZzFIt5FleqIcKe/iCgZhgo+TT5bIrhtILzplK4rRXvrpY06aRVK3xpwVXFmxEYFh1JXUiLTSlUUqq1Mqh/KMAVE1XdZHIcyoMFigVnpY+IwAHrnQ6ZcoFyKUs+r1C39fobBE7KbLQ7pAZzqKUsZdlhLYYV0oqLbDZFLl1iVJFc97FhaTY7tJodUlqKsZFBLlyqR3tWQgeViiyiDqUYzbRQUmm7NxJcj9KeVcymYaX1aDHDciFrL9TlLP/jsQjYMHRSgzkGixmKKUkthpUCNjs6ailLvphhpJRitQfbME20jEp2uMiYBnN2gzCKdfJ9dqjAuDJu5XunoIfE0E02N5toqsbIUKnHEnWCV2ptXq80ebKcc5zc1xXgxd/62lU2Vq95ZcdJX7tx5rF47TYB71Zb/FmlSXeGDLUWYt0S9sZY8Epf2OD43W4f+1+WqzwxmEO1h468IUu7UEqTa5dfZf7aGYZG9lEojSGlwebGAuurVzGl6bGucXRmSkPdMPjiWs31g+C5ZyXA8azG/3p0HC1q8dlQ3ClqCkWxenuG0bbmjMcYc+fWr6xU+ae+xZa/f/8Sv/Ojv4uqWC6GrmGYqu0piZZqu/64XtvDL7z30zSF9Z5N2JtIOmI4SzEgMAwTaYKqCbcnqho+VhH27ndW5HY6JqmUEsmaAqQqXHbp996m8eV33eua5sWVaUoM372ZZ/Yx8SP2ewsJimm6w80SMFUrgZHQ7hikfIviKs6KLoHwWaxhWH1gZydvISWKEc1q6Pz9/b/KgYGL1nOloNNJu6yqdlBVK/5NKfjl83+LN9vHbE9GxYW3TU+7ZZDJah5rSjcfSwGmzSKg1dJJp73tgxTphU8Cpuax9aUqi7/0VTeuFMW3tYuEju69RzJSKkv/+PMo9jJSijRJGd570LaSQgrVrrBNjrX+DQOZddeiB8LnW+3DCZ+1t5pV0au+55oC6xMFLD83mzqZjN1TEgLF8KW1sHSDCMaFw5qhuFA9tt02UO3NVhEiOt/bbKelM/dLX4ENa/cCIQjs9q7rptuQkQJef2KftTu8LYfSGv/oyBgDqe6dwLskri6NkLpu8A/eW+ZMzA7qidxfogE/t3eIZ4YLvW1k+HwbrETyH65v8BtLXkdD5WNPPAewols7+h4tpN3+TGAoUniaTGkijQ5S6q5iZ7p3UCz3SsfgH19etXf2tZRd2sxRTmk8NTOHVX5NNM1AUQxUzXBbhpvNPJ/9zx/hldkckxN5a6FO2/A4y0M5Og3T5NTri5y7tM70ZAFNVaxGgZ+1DaFE8vb5NV59Y4mp8TyZtBbBCpedna3y0tVN8pUmWbuw+pcA8/eCNgdzvD5ZJlfMMDhorwCjhJb2sltd9brO116apd7oMO7bINVb1svbPr7TMXnhlXmuX6+xZ6pgrVYfwxqm5LUzK3zljRyfeeAKubRV8auqgaYZqKqBokj7lYvgN159jH/45X2MjxXcCjig126hS2B+ocbzL84xNJCmUEjZPWGPlT62stHiKy/MklIF5XLG7TW7rDvmB42mztdfXWSzYzK43nAnW0YttWaoCucfnGBVblKYPIFQrGFXXUlhKBq6otn+ECANls/+AdfOvsSeiTyptLWMl7QNlVSEu/uABC5fqfDCK/NMjGTJZu3dhmPY5eUGz784S6mQolRKd7FO/pRArdbhK9+4hjAlw8M5X1rbrG+PtnbH5GsvzrKx0WJiPO9L627WMCWvvLbI5ZZkeLXmGsGoeJPA1YMjzI+WfMMGkjVDstbSef9gzmn/eYVe2gP1IuSMf6SgmzVMyb+dW+dPN53eW69aKtDPT9hdY7eS28uawPl6m4+Uc+Q0Bf/2M1KERiOEL7SCnqxE8m6txT+bXUf3xYPKx556zrnpzVqbp0oZhtKqN/nB71e3S2hVaAJvZph/woGf1U3J/3F1ldMNZ5FVizCk4MsXJyiKLB/cfzUwJOkcV5t5/uJ//BS/f3GUpfUWjVqH6T1Fq6fj25tB2j2sl19d4OzlCpVah+XlBvumS1YrNsSC5Ow7K7z85jK1psHc9Sozk0UyGS2SvXZtkz97ZZ6GhOWRIoNVz8iFZXMwx+mTU9Q1jWvzVQbzGuVy1pcYQeP21ReusbjeYn65gTAl46N5t96RdryCpKObfP1bc1y+XmO10qa+2WbPZNGr+HysKeHUG4ucubDOhUqOFy7P8Jmj18inW55u6dVvn/vWU/zEHz/BehNm56vsGctbu4CH9CIEc9erfO1b89RaBlfmqowMZigV05HsxnqLr7w0y0atw+x8jXxaZXg46xZFP9to6Dz/0iwLay02SlnMjEp5rR65y7mhKpw7McnCaInW5hztyjzFyZMo9jYuwm5YWT1Gg8Uzv8fyO1+k1uywuFRnxjFyTmaz/SCBixc3+MZri9RbBrPXa0yO5sg5ayj6WBAsLNZ5/qU5qk2Da/NVysU0gwOZSHZzs81XvjHLWrXD3GKdtCIYHcm5PTk/22oZPP/iLNdXmiyuNWk3dPZMFn0TcTzWMCTfenWed65uUs+lqA7mGFmpBnp6jkgBVw6NcnHfMN2zdQTvtXSaHYNHB3LB8m+nlYCIYUkHC7JSSn7z+ga/tVJDBvJ+1C++84TdXTbuL6zr9rFVU/Jevc0z5Zw1z8AlvYVGLOneIzKOXWrr/NLlVVYN6Xsu2EOUjmmS7NFUfv7gKPvz3lAWOBlbuC0091G+CSlWY066lVfHlPzb2XV+e7VG9LiGpeOJ4SZqxCyvpYbGpVrK9RsIBnKatwu3TwxDstFwlmGydBUyGplU9/JeUkrWakE2q6nks9HDMxu1Dla82UNbpiTXjl4SqZFSMdx9layNQwfzqcj3S42WQaMTnLpdzmuu0fJLu2NSbQWfOZBVA8NQjgTjwvL3TF5nKt9tlE1T8PpaFt23BHxGUyhktS4WYKPewduBQ6IqVviipNbUaenSZa240LomKQE02wb1tumySMh1DGvoMyS6qtDUvF4lCLTsEKqW7WKlqdOuO0vCWWwupZDLdKe1lFb4TN9H1WlVUMxFx0WlrqP7RiUUAeVCdFzUm9aO5A4rgHIhLi5M6m0Df5mJy/e6YVJp+FgpyegmqYhtUkwhqKdVn0GK6gEIPlLK8NmZIYbTXiPH+d/9qF46rWh/NWRR1Y7Br8+u8aWNZuDe4HN6+SFhd5fd6vfOsO8vpPk7+0fcvQjBZ2ccDW5DvNt+OOy1Rpt/eGmFS2296znuOzi/TGkKP7N3iIdL2cgCaKv39+e6AlPVDf717DpfXG8Q/Wn3bkg40FFGtN9ZYviEvbVsIr1kT0rlr02UeKacJ60qbnsZ6b2OsGLbi/O2YfLyRoPfWKhwMaYBmMidkF510p1lj2Y0fnKmzIOFTLet2UK9ISXfWm/wK3PrLOrRVibSwAHkBPyl0SLfP17CWqvSGaLA7Y04x17vzpoS/Ha1xa/OrnOua3PTWxF54dbB3cLe6PWEvTk2kZ3I0YzGx8t5PjCYZTSjoYlgb82QsNrWebnS5EtrNc419VvYoE3kXpSsgO8dyvMDYyXGMpq7VqvTPnUHHGwxpORyvc1/Wtzk65UmvZZPFzz3Y5EGzrk8pal8eiTPR8p5xjKa74pdrdjj7W1TcmazyRdXarxYbdnfvHTrI9I9+tnbZ2+l7lvp50Rur/RDut+trGBKUxhPa2TsodKWIVlp68zqpjue0z/+TdjuEYxe53eezQp4opDhfQNZjuXTjKZV0vY7uqZhMt/Sebve5oWNBm82OqHvKqP1xvbgwpIWcDitsT+fZl9KpaAqdKRkSTe52uxwttFmw5C3ufW2kyGou5G9072de5lNJJFE+lU0sDbi9a2ao8voLzm30GNXuluYuTaCs60OZ1vObMhwiy1csfgVhofv4qz4TlgRen641eDn+5H1u/cKb8LuHhuVJlF8r+OETdi7hYXufB++1p+sjkCX4CwXeaN63WlSe69vMLqwSZQYmsKFo+PUsilbQdi4ETomdD38G+WZnbJRz46r+PqdJXSP/zxhd48ldC3qPGET9l5hneNwXR1Vh96brIaE/bPrHLiwFPnNkSP5+jXeeHSGeta/xX1c5eJ3D7cygh7UDIkWs4VOIrdepICWu+GtI70KT1SGuj3seDrHcLYQE5L7TySS2doGVSNuMldUaz+u1S9ASoqNNqoePRBkaCrVXAr/B+KKCcVaM3IZOYBmNkUrrW3fDzvx7+1iu4IWVdFGgn3ORkkfsSJcP8RJ+Jp3ru27vsH+95Z7GjeAbKPDw6dneeORaRoZpycX95CtWhCeHLy6ysS19d4PT+SWSbuQ5uVHZzBFr/SD+DTcOVusd9h/ba13Hg/J1PgE/+Lv/D2G86Xt33QfyOvXLvCz/+wXMdu95pJ1y8UDI9QzKm5aSZhZqHDo/GJgmTi/mIrgvaMTzE6UQFhLnT347hKj8xXilu5uZVOcfWiKjWKW3r2PqFZ4f7ADtRZH3tn+XmWJ3Ly8fXIP9Uz4+9O4OipKLFbbM18JrHqgqqFpwL71+nK1NuWNJo1xfy+ul6Hb2l0xJFrMNwyJ3HoxuuK+15BHuBK4MTbd1hmd2+jZJgvLw5NHmC6Petqk18Lu+nwmtF9ZHOvfr8w5j1rppZ/Zh8b3cnDDoLK+wU5kdqbsVSD2KM7+95YjV0BxRDUkh88toBkGcxMDHDu3yPDiZs90zDY6nHxjlrdO7mGtlO3RKo/rwd95VpGSdFsP+N3ZGshaeFq4ecxOmb5g3c/whbdrh/R/5iHpW9brcPWyJ+HOUzerhe3Tpz5xlM1KDSlNKtUGZ95Zx+gaseiVKfzDAOHhyjCzgyZ8IrdY4oZswr83z95Yqvs3PvQ/F9+57ykRrLf1hrMFkHRZ7z6sAia4K1hrUG0nTYVALAGC8bX6lq8oHFFMyYF3l5ic2yBXa299A5BqGzz0xiwvfuAQhub42nm+cx6uE7bqad1OFpwFzJ3bnE2cHbfgFmP9wYpQC0kKy80zMP3N9jZiYdsSzXatQTQxNkg6LWi3OyyurMfYoK0e6vz2MmJxxi+ROyPhhkn4mp/ZLXb7slHZQDd0NFXzlYGozO4911k30WGD5cffEwr3+Ow77gJ2s1mn0W5yY2LpSOlmwLipqmCwlHb9YJomlc2OV9olZOpB45bNaOSzqsu02zq1htcyVnXTfk/nLWPn90N3XRGVZ+4U6zUqnJWbrAra2+8RIcBtQNEXrPD52zqX1lK70mtk9jMb3SiJuh7PRi6yt7XZEaFfR3HYPWwAd0dawwUKDx4mp0avEXg/SluaLM/OUrq0tDUcKeHWEMQbqZtjbyQ3vHv1Ij/9b36ZyfLIDdx978qZ2Us0W026VyTdjkQ3OIr5DJ/55HHmri8jJVydW6Fa70SM5Hiyf+8Qj50cZ3mlQqdjcP7iUsDABaVXyzycd/qBJbSMlN37kHbP2l+Bdy1teAfZcIfIfx5W149sJBSuY+wbY9guC1GtNtFUFTWjMDFa5sKlRhiJUBx2i6vCwhnqxuTTH/g4f/tv/RSqcmPF+l4UKSX/6Y9/l9/8lf/zRjVEuMWl1c2yOxelrTP3+T9hble03Vuy66VAwMBAjtX1NIZh0mpvYy83YW2iW6s3MKWJHjMTc/st8P5i/UPF3iadImBYXF7SNyzgDgkGwyb6mvX1nYmW7dU1XQbu9/7orcBq9rH5NNaQRbXuw+c316PbNzmDpqqhYR0nI3otmOAL+35jHT6iGYPwsVE9o25WURQenNzXK9q2kLg0iUvDG2d3x+QlcvMSn5amKVEVBYFAU1VgayMnpURVVFJa9I4YWz2zn8XrFfnKsHD/8xV04au3+4C1PO97vxW61qcssldHKSzxbJeBa7a2uxiKv1IPV8RhTm5xvFOx7gtOGrCtv/AMSfC4v1jwzSyyDVnUhIio3zj25iScLlul5c2wifSztNs6r71xDSf9crkCUvZ+z7e+3uDNs9etfCkl2XQOqMbQUUNKW+WrO8k6PSZhVdQRJMJ+Gybtq/3A+nt7gSBKT4dz3pfsVrbEz0SzN/gSK5xJehk5v1vYc4JWVqM22L2PVy+5UltDNwwUd4gyuKM2BCM0/OKyH1i/W5RxCl/bipVScn59Ycdx2c46++0F/bY9Y3SjLO6u34ncSYlOt0ZT54WXr+5I08JSlYWlOIMW90x/fRCVf/qFDTZaIbTztGP8JAjhldM7zXq8fRmQSDcs0g5XP7JemkQZLmLcu920KHRribOkIuQW5bGgXJoe4tL00I6e/sbSaT7/n/43UskkE1cM0+TNpWtUHvcPU4YrsF6GKIqNkqie2M7YzWKG1x7fG3NPnGzHiN6vsvO4sZbdc+69nRKuLyTx+amfWAHC63w4o2pepU2wpu4HVhJ6JeJd75rM0a/slg2U3qwmFZBRbE+JawFtVaHutIKNZlumzjfnL4aeGdV79Es/sc4x2zj3y42wced3jtU1lcpAeEftWx0PN5pf7wf2Tki4LIQbyLLPWKxPKYTEHQrE+T6x+0vEfmCtT6eDYYyvffuRhe66FeLTrZtVhAmK3P6fpzR8HFegpO8vrvK/EdYf2PBv1F8/seH463UeLpAJe+NsVN6RBAsLBPPg/cDebunXePDYn3j0Q/z0I894PpYgBUg/K3FfS7g1l+wf1nMTHgv2Kw0Cf/3HQk5R+Rcf+0HG0zk88acbIfdut5sc44szQNBtoJzz8O9usFF+8GfkfmPjrsUx3HZWQ5BVBOOqgi4ly6akaUrMPvXvzthwZRdlAOV9xN5u6dd4sBhNqJSzef7VGy96Pg5lKwH2ElnW7SL8mL5gRSDIbunoGgbsQxZomgZ/fPkcTVP3BcpJtzj7IAPsTRq4cKYJZ6rwcdgDN8s6AY26HmVU+omNqozD9/v13B42g+C7ynm+ezjPwXyatGIto9swTN6utvj9lRrfrLZ8hu7O+ndnrD+PJuydlf6NByFAR7LYqAXu9mppGXAXQgRKQ/+wjjGxz6V/iayYWrtPWOua5PcvvkVQ/I2TcJp2N1i6DNxwOcOeiQHXwM7OV1ld7/Wxt89HAW/3OvffdzOs34LjO46rBPuVjZKoOL217L6Uyt/dN8yRQtod15dSoghBXlN4spzjscEcL67V+Zez66wHFua9/f7dORuO+zh2qzx5L7K3U/o5HgQd0+SffPNPAj4Wfjai9yH6kg2dh+4Jl5Z+Yh3XmeIgC7VNOtJZFD7KPsTVCTJqEQSdqYkcRw8N8/ST+5ic2Gp7kqgCspWxiqoYb4T1M+HMG7bm/c5Gif/+W8vOpFR+4eAoR4sZAFbaBn+4tMmvXlvn166t8Y3VOjXdRAGeGcrz9/cPk+3KU7fPv7eOhbjCcu+yQRECMhnV/Uunt14rRVVF4B5N6/Wcfo0HL58oUVP8wJ7abv1zzkHi9ahk/7AR9wbcnfv6krXk733wk+zJ+feAjCrTceU8ogdnSpNao0Umq6Go21kEaKvWdNSDd4v1u0UFOIrvFzZOwgUxfL77bBr4iekykzkNKSXPr9b43PUKy4aJE6bfWREcTKv8dzNDPFjM8NBAlv9qfIBfX6hs8Zw7G7agRKVJwoalVMzwPR8/wuLiOhLJ4nKF8xerPdeiPLR/hBMPDLOxUcMwTN67usLs9V67DfRrPEhSisb/+OFP8Qtf+4J32X7ZFZjGLn3nwsfZ53eadRY1tj+Pc3cfEML+Zld429L0G2uFRfJPv/llrjdqBNMw3qB5bhbTZcEEAtOUtFoGzVav5XlCFjnSPcoTfo/eLNvr+VF//cpGSZT7rWGfKmZ4dCALUvCNtTq/fG09YNwcudg2eO7SCpfrHZCCT48VmU6psXr7IWzxcR3OT1vddy+zQRFCMDE+SGkgS6GQodFs9dBliaIKJifLFEtZtLRCe8sNWPsxHqxzU0renp8NkiKqNPtWxHf+RP+wIPGshfCRwq1W+5V1ZlJeqqzSllF7VsaV9WBDpsvASamyutbiytUNvv3qZZaWo1YncBT5LaYMueO7Fm49+d1vho3y13blTrPhzAPzBAAAIABJREFUROpV6dxa9hNDeRQEHWny69c30CMzkOW2bpr86/kNJJKsovChgWws2w9h677uz6dhNuqe+4n1XZWgKgJVVXqsKxm+yRraUxUlepKc+9zd8u+tYQ1p8B/PnQqwwud359hbKzZ4rV9YgcA/GSXAyv5nAb5z+jClyAU9RMxxUDRdC9q49UqH9Ur07sASMFS/YfMbnSg67lqUEdsN9m4Vf5i2Ctvus0fzaRCStzdbLOjmlnrP1NustQ2GMyoPFzL81kqtB31nwxZk/feEj6P03C9sUHTd5NKVZUzDujZSLnNldrGL80uj3mF2bg3DkGhqilKhwOLyZgQZVTH1Szx410rpDJttX89VgmO1pe8YRODcWVWkH1gpbLdA0OzZlra7WzL6jbW5733wUc6tLrLZiBoRiDNy3rF29ug4j5yeJdPYerXwuX1DLA05L/z8FYaMcPM/MFzBhH9vhI277lyjj1l816IMdpye3Wc1rBmSAsHllt6TdfS2TLhYb4NMYZhmT/ZOhq2bjav4wrruR9aTWr3NF750LuK+eLkyu86V2fUd3NGv8SBJqxq//Mm/yLO//++7UGH/FyjdwqdFhG65g6wA3EWiQ6EO72zSn6zk5776u/YQ5XbKsavFdVdq+RRvPDJNM++sTdctEsu4nT84ilT8rv4H+o+lj4njd4slxIX9EyX9xkrf3+1ldUCXIJEUlPBuy9F6VQHjGY3hjEY+FV5y69b69+ZY59ifl3rpuj/YzUKaTmb7n8S2MxoLM+VtL/EngWo5h9k11Nlf8eBIxzD5Fy9+OUjZt0rsSth1BGexc+96f7DOziVuyEJDhW6M9CsLvvdv28lsYZthb5dTy6V545EZBjejt8QwFGH13ALjveEMFK7c3RBFHPut7I2yvXjnfDu67wQbbnVEuUUVxFvDLrc6lLUsjxbTaAj7HVy83jFNZSKjIYTgWlPvyd4K/944G1Xxha/777s/2Eohw5mH93DizetbjuQ0cynOPjTFRiFDtZDh8PlFFCPqmd7TNkYKvHV8ElONa23furDdCCsxObMyT6D8Cl9JdrtIwvcjPK19w4pgDeT/wNruPfU1C/yNh97H750/zXK7QTCt4upg59xiNQesZ1PUs6mIm8JGJcqQxWXw7fZgboa9EX/2AxvFR7nF6d499qWNJkcKGYbTKb5rMMcfboQ/7PdYAfzgaIGMqiCl5FsVJ+PdPv/eONvdwot2j2us3bvsRjHD6YenOfbOPKlO9PcAnZTG28cmqOasLZZmJwYxVIUDl1aszSwjZGMwx7nD4wTf9fdvPAAoKDw2vodXF2cDhIRADyQoYSMZ1Bx9Nepse3p3wsb6OLQaSl+woaHMsVwBzftugOh0CzdSPHct2Kr1/8YZnLjKI86y+nXuJhvlr6383E/sVvdEpcOtYb+8XuczY0WG0hp/c7rMUsfglXo7kv2+oTzfM2p9/H++1uJUvR2rtx/CFmSj7uvVKry/2Go+xcuP790Ga7sLmB8rMT9W2pqNLNf9GQ+aqvDZ93888A7OufvA3n2MlLe3vVe9XuPChfcQwAMPPkg6nd7WfferzC8vMXt9zu3RgeAfv/xVHxFVjv1lvtvIaUEofCMR7n43ItzDEme4bpb1+9PfTgj7LRymfmB7hTeq7RfVANk9dkE3+XfXN/ipvcOUUir/86FRvrhU5U/W6yx3DFQBk2mNHxgp8sxwHlUImobJr8yu05a33783z4av+aVX+iTs/cC2DYOf+oPfDLACkBJGh0o8dLBApZlHEZJipsF6o0Ba1cml2qw3CuRSbVKqzpWFLJcuvAdCMDE2ysQQGKZCvZ1hMFenpado6RqD2Tr1TgbdVBjM1qk08wghKdm6U6pOId1itV4kn2qT1nTW63mK2SaKkFSaOQayDUxToebq1mjpKU+3oTCYq7PZtFbmL2UbbDTyaKpJPtVy/Z3WdNYbeYrpFopiUmnmGcjWMaWg2spRztVo6xqNTppyrka9k6ZjaJRzNTZbOZC27mYeTbF0bzTzZLQOGU1no5Gn4OrOMZBpYCKotrLUW03m5v3p1Ssd4+pUAqx2ZGiMn3r8OzB6LVPQx6KpKr955tu8tHjN5xpnHHsZyjvBii2uRzG3hv2j9QYD2jp/bapMRlH4wYkSnx4rUjNMFCEoqAqqPXyw2TH4l1dXOdvUt9TbD2Hr/pUht/C5XxL2fmTbphHJjhaq/OUnvs5/eeN7KKRbfOeDX+P/feX7ODg6y+Mzp/kPL3+GJ/a+zb6ha/zqwodwhtwUIfnksW+wVh/hzy48yvef/CrvLBzh7MIB/vxjf8wL7z3Fcq3MDz/6RX7/ze8kpRj8uRNf5d+//H3sH57nmYOv8Gsv/AUemznLkdFZ/t23v5cPHzxFId3md974KN9z7EUqzQG+cv5xvu/kn/Lu0gFOzx3ihx/9Mt+89Cjzm0P8+ce+xBff+ghg8r0n/oz/+OqnmC4v8cEDr/Mb3/70/8/emwdLbtx3nt/EUXe9evfr43WTrWbzEMkmKYmURIkSdVgXZcpeyxrJWtuyI1b2TuyMN2ZjPBtaK0ZjWfZ4x/asx17b8jE7sqTwirKkHVm3TIn3fTXJ5t0k++531n3iyP0DRyWyEiigqvoVil2/Fy8AZH7yhx8ygd8vE5UAcN3qi7hk6Ti+/PAH8fbXPYV8qobbHn8X3nfZg6h30vj+s2/Bzx/+KZ5f349HTlyBX7zuh7jv5cM4Vd6Fj133ffzg2ZtgmBI+dOVd+OaR92E5W8RbDjyB2x5/P67a9QouWX4Ftz32frz1wNMopMr45pPvwnsuewRNTcYPnn0bU8vdtvjc2z+Iv37kLpxp1QXtJmpLb7qykM3jWHkb337+CR8w3nLLgSuwb3YBD6yftFP4k9mv9z5uli8nyhcx54c1QfG1zTpOtXT86u4CVtMqVFnCnCwBFKCwPpVztNLC350r43nP5JKdt3cwNqjN+LbDlL1AWYXI+Pjl1+Erzz4KV6iVSwiFImuQCIVEKBRJAyEUEjGhSNYEHZkYkCXdqxaAIumQiQECQJY0SJIB2DokYnZ1w9YtayCwdcsdEAASMSA7+5G6+5E9unXIrD5ighBYtsIEiAmZtVvWQIilW7H1SUSHTHRLh2RAJgYA6uq21jVIkgkCatlHTBBC7P1Qd/8EgCSZlm5CBXZTpj1YoXji7Ak0DM2T1hXRNe8trwDAdruJ47UyB/PCK/PLFzmbIB2DspZstxqA50dIkW1Bto6LZXk/8auP88feW2vjgRfXcVVaxbW5JBYTMkwKnG7reLzWxottHeKTaTz2DsfynMgBTtkLjSUEuHh+yd02CYGWtn7NSaUbaOoK1EQNitpG01CgqDWoagMdU4Kk1KEmmjBAQdQ2tKQMAsCQOqCSAVlpQVLr0AGoagOyUkfblKAm6lA7Klq2blU27P3UkVDraOkKlEQVqtqCTgFZbUBW2jCJDlltAEQHkduQ1QYMakJWmlDUBjomgaI2oKoptAwZaqIOAqBlWLoVtYG2IUFV65CVJjRKoSYaIEobVNKgqE2YRAORJShqAxqlUNQm1EQdbUOGaq+3dAWq2oBkSu5+1ETd3r+lW6cUitoAkdqAZNlNiQZF1dEyDXQIhaFak5GoPfL9/449zbUf31Fl25SPE77fg/MLVnw+Kw7L5wWxUfSGlaD997NtHGxQ/nhYA8CRpoYjvlPG42VveJZfhlmfshcaq5km/uDeH7oplWwST1y9CgDIyB28u6Xib4plLKk6dq0o+IviNm6U2/hYTsGfljewWTRwAxT8lVlD/Zq9AIAj2haursh4tW7iz0rruLIm48dFDd8tbeLqhoKvFZt4oQZc3lLx34pVyLKJ/S0Vf1bcxptIG4V5FV8obuA3Cgbeqcr43eI5zJUIcgmCz5fO4dKqjFNNE/+xuIYr6wruLXfwleImrmoo+FaphYcqRVzeVPD3xRraAPa1FPyXYhFvNtvIzyn4g+ImfjOn420JGb+7fQ7ZMsVySsLnimdxsCZhqw18rngON9Rl3F008OfFTVzfVHBbsY2HS0Ucbqn462INkinhoqaCPy+WcFhrIjen4E9Km/jFdAc3J2T8YXEdtGJgX0fCF4pr2FUFKpqEP2ochzlLYVyzH0D3jVnL6Sy2Ww3ontmrfHDzjw+CzwXw0dAv34/tt87fJhqWFdkWdzaojvnh+pQdHcum8+uitCl7YbIAZdOI5XANWUKTAtsdBQ2Tom4CRU1Bg1JUDWu9SU1UdQklTUYbFLpMoMsS2qAoazIqhoQmpShpCqoGQZNSFDUFNQOoU4piR0HdpKgb1n6aJkXVICh2FLSoiaohodSR0YKJsi6hrEtoURMlzVpvgqKkyajoBA1qothRUDWABgWKHRV1E2iYQLGjoGECNcNab1ITFYOgqMlogqJiH0MLFCVNQkWT0IKJoiajYhA0qbVeMwgapmM33PWGSVGz7W5S2tVNLbtLuowmTKtOdEt3R6IwFAmGItlun+Kzb/sg9qRzAe1IBGldlrz5b/+AXjK7hK8+/ZCgkGgYyOYDvdFT5IDYcmG4sCzBxw8dhkEIvv7CEUG+yGa/aD8uls8Hw0zZ0bLgGJYVlZuyFyKrShL+tze/B//x/h/3sBIokgRoU6tEggAtCsgAVAI0KaDCettPi8KjN2l/IqYDIEUAgwK6va5RwAQi6CZIwPq0TJta5YJ0G/Z6274ckn3sTgC2btZugjSh0CmgAUhzujvUOlLnGCRbd4ta0/V7dXvtFl2/l84t4UR5Gy2TndAWdK170/u8n6db4DdXi5hLakgAON1RcGm2iTu28/jIriK+enIRv3VwDV88thu/fmANX311Bb900Tr+8dQCPrCriJ9uzOCyQgPrTRUGoZhL6DhRS+OGhSp+dHYOv3LRBr58fAWf3L+Or7y6gl8+sIavnVjGR/dt4JOPX8QdhGOXn71Bwp/M42Ih4PzKitKm7OAs5RiW5dtwyl6ILKXA2UqJK2MtTVjBwBFn3XrlnaVXg+X4+bJtplyLdm0Q6fPqJu4tuq5uagUFm+nqJmgxj+40afd4mwzjpOuwAhZAoIFCs+3q1c3qcNb5Y/Cmm546IdBsuyzdxK6T4Gv4heI6gjusfmlWuuKFmJ1RYPVcBfNb1udy3rhYxlJChwxgT1PBZYU26sU6bjxYwTNrGt52/TYefAC48dotHN02cePhbRx7uoO3XlJF+eUGrp5r4XRbAZEo5lUDC5Uk3rq3gbXNNt52bRFPPWaVeWrbxNuu28JzR3TceGUJh5+23q5Sns3g+N7Z3ljXI3wACQo642L9giGfFhQ4p2x01slnhaK3vabshczq1MSXjj7MlYuvvf4sex34LePN3rC8iqNba6gb+kB65dVb3/u5+VQWT62fYQpbr2S65OUNXLtrP9573Q247iITK7NZFLIFzOZ2Y1cByKYP4cBiDbL6Bly2cg46bsShlXXo5EYcXNkAla7DxYs1KMql2LdAkE+vYHmmgOWZNGayF2H/fAdq4jAuWd6CQW7AJcubMMiNOLSyBoPcgNctFUGlD2I5lcXGy8exvqvAveCV4KqFFVBC8MzWmpvWe2KC2eZP2HGxlEtz1okgbcqOjuXTWefApk3ZC5lNyDIMz0sM4m2vmOUZdkk5Lp7s//G2D+LxM6+irLUH0stNMqHeJQUK+RlctHcVhZk55DIzyGbzKOTnkE5nsDi3gGQiieWFJSiyisWFFShKAgvzu6AoCczPLSGRSGNudh7ZdBaF/AwK+RnkslnMzc4ilUxjcX7RLrPslpVlq6yqpnDx3lUsLyxy9rEHBC6NPQb+4OPKsicpv6RTdmQs0NsOLM/LlL0Q2YQs4/96/78Yqw2jYfk8Py6+7L/752/gZEP0XcFwernf4NjKo+4mIQTHitdBItanC0wqQSaHoVMVa/WD6BhJ3HH8U2gbGdxz8pNoG2nce/IT6JgpbDT2QDMTOFO9HKb9rR1CTJhUxpnqVegYCRRP7EHbSKHUssrec/KT6BgpFFsfQ++ngTkbe4R3aqIeThxYvyVbXpQ+ZUfHsj3BIIcyZS8kVjdNfOnxeyfGXn+W9ztBHb14slWfN8qE1cv9BscJ7S40M2ltUgoCQCNJUEqhmdYLRA1dBShFneZBANT1PEApdNP6DU2jqvVpBLs8AHTMpM1aZQ1qvbS1ruVACIGmKSA9domcGJvHp/O9/aDAtFMsK7xj9jveKTs8K9rm14N0T9kLgTUpxYNnXxXkx9PeYJbn2ODIp8eP/ReHrsGPXn0eRa3dlxXpZW5REu7fqyMlN5FTa8gl6kirTeTUClJKG4VECQmpg9nkNlRZw2yyCFXSMJssIal0MJMoIym3kE/UkFbqyKoNZBM1pJQWCokyElIbc8kiErKGQrIIVepgNmXrTJURPIJjJcjJxY3lexzgtonPcsqOluXz/dKn7IXEEki4an5lrDaMhuU7dk4aH1jiy16xuAtpWQ7FivQGPyZAu8Uvnj2CjFIBBUVLn0EhdQLnapfjdbMP45nNm/GGXd/DY+d+HoeXv4un1m/FVcvfwfNbN+N1cw/iRPlKLGWOo9YpQCIGkkoNxdZe7M09j5eKN+Dw8k/w5PoHcNXSD/HU+q24evnbOLrxPrx+6Q78+OVfExgmcmL91uPG9tPB90am7PBsmDYRpU3ZC4lVZQn/+sb349Pf+fJE2Ds4G1Q2Huzn7v/RUHq5AMcNcQlQa9RwZu0cVlNVIFkHKEW9A6RIC6VKGZ1cB8VyEcaSjlJ5C8aCjnJlC8a8hnKlCC3XRqVaQU5qotZUIEkGTLWJSq2CpWQb5UoJ+oLFGvOarUNDpVqEPtfBmfU1bJdKjNH8MDzA/h6OxIQNGgXyMmXPD+u0mV87TdkLle0YBv7dj7/OlY2vvcFsFH8TQ5btrw6gVzDJxNJIQVGcy+DxV4/hiVePIffeKhYLOmQQnClLuGx3B/c9W8TubA13PPoA3ryvhnufuAfX7irioafuxNXLJTzyzIPYm63i8edq0C5q4cy2/Rxc1sSLZ9aQvbKJ+448iGt2lfHAk/fiquUSHnjyTlyzu4SHn74Xly9U8Pc/+CcAQHk+A4MEHRRfE761EhPWyY/ZCfWaZ500vq1EjmLKXpgsRbHdDMnGwV4/Ftw6fJj4sr/9lp/B3x+5D+da9YH0Ch70ttcJ8Mr+Bbyybx4A8M+pEmaoDhXAWlrGS+02HprPgpTLuGfPPC5eS+KelWWsbKZw9+ISClsp3Dk3D6NSxkMzObyqN7GdUGFIFDMwcLaQxFa9jnuXCljYSOPuxUXMbqZxz9ISFjZTuGt+AentbTz6hlWv7a6dIsfld9B8pYybDZK4BobXCiu6+Nnyfs5hyl4orEwk3PK61+Pbx45OhL3+rJ/4+dD4sSfLW+gYxsB6uXdR8qAjBKB8ZYpGJ9SL9LB+vQ6GJcROtlkSwIJ9F+UT6K0EUc+HX46DFeWBS/c75ik7HNuvnYLadspeCGxCUvC77/gw/vc7/rvNxNveYBY+nGj9tccKvibAwkwhYgcbAm7d+XcYO0HIEoZFl2fzwbEegx2b+IPh7fZjRSfFOFhRHp9Gme0pOxrWYSBgROfSlL0Q2Y5p4HN3fWesNoyWFXFkIthCIgUZ0sB6fT6XQ9FbYZRb8rwfK8ofBQv0OjE/e9h83tmNgxX1Otg0UdCcsqNhg4IdfxFN2QuVbbkPGE+GvWIWAq5ferzY373pQ9ibzg6sV/ImOE6C/XeET+Mdhh/r10jDsn4HJ7IlbiybRzme+KRP2eFZP2cR5ESm7IXGKpKE33zTzRNjb/90EpAeb/a/PvkgNjqtgfUGv6rLkxbknNk80ehEtD0sKxLWHr48mz9ulj8mnnHypuxoWT5d1E6Yshc8CxDd+Zr9JJ87PO/nT+PLHtk4NZRe7k0mYGDeYROfNMqV5VleN2/goCy/X7/AEkeWrzc++E3Z88OKLhQRS6bsBczqpoG/fOJepky87fVnETItvuzhuRWkJXlgvYIHvR2Ad96sOOlhnL6oAUROaRBWZBO/9HN0cWJFHQpR3pQNw16amUFOTWAq8ZGNVgMn2w0ulb+GRdfJlB2c5SXIp8eT/VdveS++cOd38GqjMpBenwe92aDC5vGK+OAm2ilbVpQ3SpZ3eqyNcWKpIA0+rEjvlA1iv3DD+/DmPRdbL/YmBKAUnneaMtsu46N5yo6G/fujD+F3jtwpoHkNIp+zs2xCkvEnP/NR/C8//Bp6JX729mdF4ndtxYv97R//Iyp6Z2C9gndR+jlnUaWSAH6nHJ6f7bxdvI3jZMN2EBxmykZjbdL+egUAOF/BcGufMjooFXY5puzoWEtE1y5fcvysTk18/ZlHBVw87fVnRf6a9du8L4ofW9TboVmRXp/n4PjgxSvkWT8HzqaxS5HBg7BB5Xi7HCExYNk0PgjydTllo7MM6T6bCVB7nVoZACFWEHSWNk/t/yk7Ora3vfh1vuMyPtakJu48+eLE2Nuf9csnsWc/dOAKFJTEwHoFjwlAoIgvyArhyohYP2YYlm9cUTD20zVulu99iPgpOzjLtAqlgH2bjDDfIqT2CAQsZ61Y3JQdKdsros6qXwd2Z1kCggP5eS4/vvYGs34+SeSP4se+c/Ug8oo6sN4+syj9Ko8VUXAKI6NgeZvZKO8XiOPCQsDwnQxRm0zZMCxxbqE5owfndyHGCRPbQRObc7U6o74pOzIWnjXeMYm2x8eqsozP3PxhLj++9vqzfp1vNi3e7Gfu+R5OteoD6/V52TKrwBHCcYTbCcsEGcGWG4blD4oXv/4jr3McrF+jiPRM2egsXGfrlnICnf27nBv4+D2w6VN2pGz4a0d0Le0c2zEMfOb2bwXYHC97/Vk/fy5ajydrUP6YounlRnB8T5jvKfCK/XoYfL5f3jBsEONnf1BvaCfZfscu0j1lw7NcKdbZMiMMIctNjpiyo2N7rwm/62XcLLDRqPnwcbTXjxVx/PUSb/a33vhOrCQzA+vlfoNzlpTb5k9Zyv37n9K9ozzHAFHPZBBWtM2v83rjxPJ5YbanbHAeU/vcSILakyBoT8/QZhl+yo6YDdW+Ydv+/LEyIfjA/ks5u+Nrb/g855+EYOLBVtttexQ3mF5uBCcKZCJDIGDB5Il2CC6PDMmCYwmXRtGri6BX37hZVoiA5dOnbBiWAO5jAo6z9WhibmE6eZTbnrKjY7siumbZdb49d56ViYT3HrpqYuwNZv38tN9IKF7sf336AWx2mgPrDXgOrl8aH+j8nDavIwwflu29fMTBhg2cfCXFgRXZL8qfsuFYuM6V/S2IwHLI7pKdJMFNiJiyI2Y9pF+ayGHvPNsxDfz7O77tUyZ+9gazUfPixWZkFS1DgzmgXu45OFHAcNL5PDaCikZdIh3skoyAZQ+Oz3N4z+Xno2ecrGh7yg7HAs6tM76E81wcPwmCcGlTdrRslxC1oyh/vGzd0MZuw2hYfsmW9WPiw/7eO27B3nRuYL0BD3rzhYJOWDafcCzl0vjexzAsAvLZ4Es5Jo6sw4mOecpGY+3aphRwblGy60xJzy02e90pO2VHy1ritCF/rbPtyPuSnWUVScavXXMjvOdcfO0NZuFTFoK8+LFfe+5xbLufy4muV3CL0inELkXCOxY/CcOMgvVrbBETB9bvOHgR6Zyy/YQA4CeYWGq67pawzph/Zsv+DWnKjobtlSAnx5fbWZYAWEimJ8be/qzIP00G++DZ40Pp9QlwTkFHGVtYlO5XuZTb9tM/CMvvV3TQPCtykONiwxzblB2apdQ/0HG/z7kOmuen7NAskyFIc7XFgtVME3/00O0+zM7YMHo2KhMP9kB2BqcbNXSo6Avr/fUGPOgN9AYx3pETjhXp6he1B2XD9A75QOh3jONkw+qZsuFZuA6WAu5bTdg8zxtOALgPKLsI7ctSSkFNM9JlHSchhEByJoIMUQ+h2O5eHZrbdtZF/mbKDsaG9efxZT/zzg/jC3d8B682ygPpVbyAIzwoCm5hAoyfThEzCBtkA5tHEC+WBqT5BfEpG4V1ApvnjOFuoXVVEi8DuNPcWTEpRaPZRK1eR7PVgmGE7VXGVwghSCWTyGYyyGWzUBSlbz2AzY/AWuK0Fe+gqGB9PGxCUvCFd30E//b2b06Evf6s6LrhdSDW7Od/+m2cbdUH1tvnNzh+m3XMosrmT2QRKwoKo2BZG0Q9g0lhHZmyw7DOM3A9s/mYmZWscwZgvSFfxFKKeqOBrWIRnU4HkiQhmUggk05DknzmaU2AUEqh6zra7TYazSa2i0XMFgqYLRQgsfU2SJ0JWLFj4/P8HODOsQY1cfsrz3Hld9aG0bBsPn/dBPn4+LAnmtWh9Ab8BscrEVUgqxjMkg905DywQfb6VSLlmHGyQXXKluePbcqGZQkToDzfhmN+N/K8ccNO57tUW8UiiqUSZFnG4sIC8tksZFnuscwpTwR6e26Txoil9si0WCphq1hEo9XCrqUlyLLcw4aqMz/WFVHvm88nY2MNSvGDl4+O1YbRsKLO4WSxb189iCfOnURN1wbS6/OqLmdJ0VuxfsI78jC9tWFZUSOL0uPM8vU9ZUfBum8wsR2s81sRsTY8Gkm3kLvtpG1ubWG7WEQ2k8H+vXsxNzPjcfyE5UPqjRsrSRKymQxW9+zBwvw8Ws0mzpw7B8M0R2tDj4gctR+9cywBwd7MzFhtGA3rXB9h/G082Z+75CrMqcmB9fp8LsfZ5oMWy7HK/QKbU17U+xAFxCisSFh7RIxIx7hYwv3zaSJmyoZj7TX+oWPBQ8guw6w7H+6sVKsoVSrI53LYtbwMRVF82Sh648oSQjBXKGBpcRGdTgfrGxvW1TgCG7wiaq+g62VnWVWW8dmbb50Ye/3ZoOtkMtjfufu7ONWshWJFerlblPzogy/Ap4tGd05A8hvB8GWHYUWNG1SWzxsXy+b7jVZExzplo7EAKHVCYSyMAAAgAElEQVS/KE2ZNPf2GTNBgi2p6zq2ikUkEgksLy568nmW1asoCvJzc5AVBbqmoVmvo9Nq9Y7rQ9gwLnYmn0en00GpUkG90UA2mx1ab5dg24gwafBJ33lWMwz85/t+KDiyeNrrz/aT+LMtQx9Kb8hfyPlKjcoSn7xh2CBbRD0ECPY1LrZfXfL1MWWjsfCOItjp67T7jkRi5xH7ViabVq5WYRgGFufm3N/b/FhWb2FxEZlsFolUCpl8HgsrK5iZnxey/WwYG0sI5ufmoMgyiqWSmzaUXkEbedP8/MDOsxQUz5c2BVw87Q1m2XQ+XxQs4sX+T4dvxFIiHYoV6eUCHOH+WaW8IhEr2mnYQBWVDSthToCdZkX1FVSPU3ZQlr1Nyd4uc0cX7L8tFEC1WrVmSmYygSwYvZIkIZlKeawghCCbzyOVyXjYfjaMm5UkCfl8Hq12G51OZ3i9wrZja9zv2t55VoKEG3btmxh7g/2JyHcG/ceLTcqy3VkdTK9gBNdzMwXdUQcVpMMnnedFeodlw+qKGxv2OKfsYKyT5J1owqaLXgbsvDdR13Vouo5sJmNdJgEsK5J9MVIA7VYLeqfjPqqQymQi2TBuFoQgZ9vcaLVGold8/Yr8xnhZRZLwK9fcGMDHy15/1i8Ngvx4sn/++D1YbzcH1uvzuRzKbbMF+ROXCjgiYCmTxusfhuVtD0pjy8aIpRTeXzNYll3y6aNhKWD3sh3b2PV+50KcWeYomdl+YLZZLQBAKEVH0wBKkUgk+rJ8GgDUKxVUikXrVt/yMpKpFGRFgTOdPowNPXrHwCaS1uw1zR7BDaO3K4RJJUKi16fsLNsxDfz7n/73ibHXn2WvCcKlsT4ovqxKJOjUBB1Qr+BVXXwkFKWJJMiR8saJ+Kisn60iXqQrLiyFbFIcfu4clLaOnZZOWsVTl+2CScK0uyiAxJWFFbSdwMas87fM+K6JYRigABRZ7ss6v0NZq5b+TrvtbterVSRSKXdE45aLoHdcrEQpJEmCYZoj0dsVkT8J41d2iqXY6jTtdT//Fyd7o7JB11G82C/cdAv+y8M/walmfSC9gld19Z6O4jTqky4SUUP4lY3C8ul8BKccGxTtd5rt2ktAkam1oTY17LTIholemx0R2ytu+zixNkm96wTocb4M0JsXhnUCJyHWeym523PUtD7VKMsyMvbsRN0ZEY3KhvPN+kkUvVYmt+TXg8rsHCsTCR+94g342jOPjM2G0bF8x5tNF6XFi/3h8edR1joD6+3zJhNeEassKOh5Ryi9kdqvAaKwfnbBJ42toDiwUToIOyV+9Ss6keLMwjtFnbmFxo7oeraZgEgYPSIWANK5HLL5PAxdR3l7G6ZpolmvQ5IkV5dkPxQuKwpmFxZAAWycPQut3e5rA/i8cbEB9RBWr50J/86Jkw+O2XlWIsAls4sCu+NpbziW95W8n44ne/vx54fSKwhwYSqUd9LOkg9OfMDidQ7L+gUIUaCNMxsX4dtV1JGYBBbomeRAvF8WcB22PaXdCYjulHZ2FCZgFVVFYW7OCmCJBAzDQGV7G+1mE+1Wq3cUx8wm7AmeAhucZ/fC2Hu+2aB6CKuX0RLQnn6MmC1U2kh0zs9t/b/+9j9iacQ6qzMptBLOW3BGVw/9Wb/OIl82fuxKMoOtdgs6zIH0Ch707jc6CVPZLMsbw0fhQVleRLaKIj0fvMfFBh1LHER0LE563FmAfdhYpMH5Tc79bYz9jY7bg5C1VtylJEkghGBmfh6SJEFrt9FqNtFptbC1tgZFVaFrGhLJpPsVgiAb+LNm0lkIqeFk/4ltLGzW+oMxkeeu3oNzC7kxWsD7qPizv/een7c/l1MZSK8ihkTi14MWjbii6BiUjaIrrP6dYvnRXVwkaNTM2xtzNuC3IDZAeX4zY8o4Izk/1tB11CsVZPJ5mIaBWrkMCsDQNBiEQEkkMJNKgf1u3PqZM9aMRG6ffjZEsXciWN/24v2GyFn5sZMo56Meglg2X6Qjvuwf3/MDnGvVMOixBXwuh1fY00eLwPKNINIzCOuXxwdb0ckwbtbh43Sh+rWxqE3izDpFbM7nVptQuDJBbLVUQr1atSaX2Lch67UamrUaFFVFIplEIp2GoijotNvuhJNQNghukb4mWI9Eucbjdq2MUoathzB1LWL7jaTGzz5X2WbKRNfr8xwcD4uU+t0+ErF+TmlY1k/8yvntb9xsHCRMZ2ZS2DA58Iyk+jplEUspTOajp5RSdFotzC4uQpIk6JqGVr2OdqsFahg9gXYkNkwIa0nY68TPkU3CddRPohzbsGwcr81o7BtXVvHs5jk0DH0gvdybTCj3z6eBWYJLF6X5leXzB2V54e0PY/u42biIn71Ar+1xZ23CnuTgzPSjAEC4rwvAWeXSBLco/VhWb2F+HulsFqlMBrlCAXNLS9i1uorCwkJkG+LABqVH0YsuAf/r3vknIdlJlLDHFqUeglgRD0FePNlfvvJ6LCZSA+sV/AbH75ivOHbURrmlqGwYGRUbxYZxsk4a2/uKi7DtLcoDkx9f1plcQtltZuQBWA7aXYe3pdhygSxhZgkSAllVAVgPixN78gklBIqdTgbQO04WI9LbFd6n8H4E3LIfO2kS5diGZVk/w5ZlJd7sZ+/+LupaJxQr0uvzuZzu5p9efRLfOrWAT+zfxD8cX8ZH923in07P49a92/ju2Vm8dbGGJ0tprGQ6aOoSOibBUkrDsUoaNy7W8NO1Am7du41vnVzER1a38M1TC/jYvk18/dQCPrC7iDvWZ/D62TqO15OYUw1IEkWxpeLymRYe3s7hAytlfOnEAh6pJgV2Ei6NP/FFB+/nGHeSjasQn/XJYx3n6roCwj3DxbHgAiJ7ay2Idcs4aYaBtq6juLEBWZKQSKWQcl7YzLBR9I6T9dTpMHrdVJGTFkkUdtLkfNWDiAWzhCCfDxLxYqtaeyi9whGcbJjYf7IIWTNwy7vO4fizOm7dtY7nn6K4ZWkdZ1/QccvSJjZe7uD9hTKymxlcnOigakhoUgn7Ux0sbmTwwbkqaq+08LPLWzjxnIEPL23g+LM6fnZlHS8/p+OD81uov9rEW/fU8FwlicWkAVUBzhkqrp9pgpzO45alIp580kDplRSoRHD8ogXosugrP4Rb8un98sbFxkXiXk+D1Sn7HBaxt8EEGzfwAfCMxng9Aawiy0hlMui029DsRwFAKTRdh1atol6rDWRDHNgo9dBXr0vxIgqAYdhJllHWgx8rqivqkx5P9pdf/yZ876WnsNVpD6SXexelJam2hiuaBFdeeiVyiXVcu3wAKaWCa1YuQUat4aql1yGtNnDl4n7Mp07gsvklLOeqaCYUdAwZi9k6OguLKCRP46qli5FSGrh66SDSah3XLB+0dC1djEKihSsXV7EncxZ0bha5ZBuKTJGXslhIbeGqxVVkVA1vXrkEakPFY08/ia3FHEozou8D9RsliXo2cWbHKdxIPtDeOLJwH0L2rLPPubG/GwluX9IILJEkzMzPOzsGCMHc0hJq5TI0+4sCwreD9NH7WmK5XHvpd+7zTiuInTSJcmzngxVx8WWXszNQCf9wfHi9gndRAoQCszMzuP7wtUglH8KB/ZdAUV7Egf2XIZF4CRftO4Rk4jj2rx5ELlvDnl37UEhuoGMkYFAVuUQJeuIiZNJ17F89iETiBC7adxmSyZdx8f7LoCZexMX7DyKdPoOLVi/CbL4NJHchIdchE4p0fg65DMW+vQeQSG7gkgOXoaMm8NjRp7gD8OvV+wUSUQWNm+11DuMR0UXh2NfvWOPG2mvMQ96eqeysw+WmuLsPMQu0+7FOGrudTKeRTKdh6Dq0TgetRgPNet2rq5/eGLGh6qGvXtE1K2rXfh2ZOF03USXKsY2CZfPYMgTieowX+8cP3W4f0mB6A99FSQjBw2d+DnWtgAfP/AJqnXk8cvZWNLRZPHz2Z9HQ8yi1FtAxUzhX02CCAFSCJOnQjCS2m6to6jnUznwEdW0WD5+5FXVtFg+e/jk0tFnUtVvQ0rPYbq1CN1UQYoKAwqAKztUOoW2kUWovoq7NAqgy143oQvFY7rMeJ5Z1oXG4WP06C37pMWeJ/dqtnpl8Vp57BjGjEOGU9xCsoWkob20hkUohmUq5758EACJJSGUykCTJG+BGbEPcWTuDWfp1AHuURWAnQcQdstHWQ1AncMLYnmLR9ApvUboplKLYXgEBUGyuAABKxjIAoGMs2cs0QO3vXHE95LZufcW4radAAJTMFYBSFI0VEELQaacASi0OsC4Mu9fdsm8ptfQ0cxH168HxaaLK4Hs842TjJEG3kfrZGzcW7shB9BUBj2N2ek2Ee+uGyIn7sJRSNGo1NOt1LOzahWqpBAogmUohkUxC07Te2g1jw2uJtTbg7WU7aeySlSjspAh/To+6Hlg26K4H3xbxZH/vbR/CXz56F063agPpDXxVFwGQlBswTBWybEAzVahSB5qZQELqoGMmoEod6KYKmRgwqQRif1eMUgKJGDCoAkXWPWXZpVVWh0llrqwJg1o9YZNak0p6X/nTr8JExyXSsdMsQqSPS3h7gk6ouLL2mu1o3dmU9pJdd52044i5ZT/W0/qSBDWRgGma1i3JWg1zS0uQZBn1ctkzvT6K3nGzUetBxPZKWGcXxE6ihD22KPUQxIquFb7+4ss+fu4E6oY2sF7uN7jeE+eNu36A09UrcVHhUbyw/U5csXg7nl5/D67b9V08du79uHLpLrxUfBP25F5AubUbSaUOiQB1rYDF9CmcqV2GiwuP4cXtt+OyhTvxzOZ7cc3K93Bk7T24YvFuvLT9JuzNP4vt1irSSgUEEhp6HgvpszhTvQz7C0/h2c13YB0SF3rRY6s4PY5sHC9Okb2OiIJ1nFnAM7uP/42ML81MiCDdxB49IrZfSzbrdTfIBf2u1U/v2NmI9SBig89/3v+EYSdVRl0PQaxfgORtiSf7jWNPc0w0vRKf4ICmaaLV6YCgBcNoQ5FqMPQWFFKFYbShSlUYRgsyqcI0mpBQA6VNgDZAaAMwG5BIHabRgiLVYbI6pJqVTmpWWVIHNRsgqAOwysqog5pNJOUiTKOJjtZhDo0y//wBUgEj+o8bO24R2RXmmOLJUkoBZ/YiO4uRSXM4aqf3zvZDeNbZj2kimUp1LbLfP5nKZDxsFL1jZyPWg5Dt1gh62wyCtDDsJErYY4tSD2F8i6jDGH92RlYheUZn0fQKXtUFGBLBq2dP46+++iWsbbyK+x/5CUrlddx1//dQrW3j9ru+i2arhu//9EfYLG7jJ/fdhROnT+CRJx/Bi8eO4vmXj+Lxpx7CubVX8cCjP0W5fA73PPh9VKubuOu+76DVLOH2u3+I7dImfnL/nTh++iQePvIInnvpOTz70lE8/tTDOLP2Cu575KeoVs7hB3d8G7d9759AAZjuM3B8v5GN8FSQx/+Pm+XtjpM4tgeNRuPMOlh3lAF4na3joIm9ZBl22Ze1HTq1tzVNQzqXQzKdhkQIMjnr8yiyonjYKHrHyfK1PKjerjjtxF4fbPuJrhk/dpJllPUQxIrKkolh//BnPop9mfzAeoWTTJopFc9cuQeKbuJIh+KZmRwubct4YWERz7QoXlxawtGGjhdXFnFUo3h2YQ67UcNzuRRKqg5TArayKlSziecKeRxqy3hhzi67sIijDR0vLC3haAd4fmEeu1DBs/k0Sgnrs3bFrArZbOKFQh7nTIpXdi3iOaRhSASVTKLH3v7b/Xp842Lj3BMV2e5nb9xYwPPbD39r0nHEXDo7OYLvqvixlEkDpWhUq5hdXMT80hJM03RnVFLKfBQ0hA283nGyg9QDz3aFd9IQrDt7C8NOmkQ5tlGyhNnu54viw/7tI3dio9UYWK/wOTgQiko2AYDgU09fDAD424etWZNfecB6oPXrd88BAL79sLX9D+VlbocAzlqV/cWtZQAU/+3BBQAUX73HKnvbw/MACL5aXkZPw5y1jP5/719EwyTQCkBvw4kuIFHjspXAVsa4WH49rsL3FoPsjRPLtQClrrNl35PobLMOmp8QQfuxTJ4kSei022hUq8jk85AVxd1/u9ns6gxjQxR7zzMbtR5Eei1hnTCYNHYvGICdNDlf9SBiRVxQWrzYRzfPDKXX52sCbAX69Qb4deLD+nHh2LIpQevbI+FtEh0D5ZbjZOMsfNsE2RxXtrvV3ejOoPTrFnk0cSM5X5bVK0mYXVxEpVjE9vo6GrUaOq0W6pUKOu12NBtiwrLpw+i1hG1Hh+SvYb5DE8ROqoy6HoJYnhPlx5e9YmEXUpIysF7BJBNWgk4oXqGfHn7oSOF1RIOyom1WgkZPcWD9jmncwgYUUeDg2yuOLCyHSwhAiLt0xX7G0lq11vkRCwnJ8jMjE8kk8rOzaDebKG1uYnt9HUSSkJuZ8bJR9L4G2F5h29Pveu/HTqKEPbYo9eDHAr3Xj6izGF/2f77u7VhOZkKxIr1DfPCU36FfsBPp7TeSCcuKAohonWXDHN9OsXEUUYeDT58Elk2209lAx91C8wS0nl0EsI6TZ5x+dmYGnU4HWruNucVFqMkkOq2Wl2XsSaXT0DTrPkU6l0OzXofeboe3V6R3VOwg9SBg7URu6Ui/jrQfO4kSxj+I8oZh2UAwWex/uOf7KLWboVhRXuCrurrSL4D5BSJ25+x2kKOKwgbZGZQWBzZuF6rThpRZZ4W/oOLNUsAb2Jx1v5GaW9C/XYQso8s0TVSLRczMz2N2fh6UUmv2JABD17ssUy5fKECSZaRzOciKgkalgpm5OZQ2NmCaZjh7BXpHykaph356Pde303Z8+/FtGsROmkQ5tlGw/Hq//HixW616aFaUxtyiZId5fBrh8kRLfkd8Hs+PgmVFZAMgrow4sM56XMTvwhH1OOPPEubWpHMrjZ3J6AQyt6W4GZeeySYBLKUUaiKBldVVzC8vA4RA63RAJMmaZEIp6pUKStvb1v45GyRZRmV7G816Hc16HY1aDe1mE7KqhrZXpHdUrEeG0NsVvv14EbW7HzvJMsp6CGLje42GYX/hksOYU5OhWJFeyZtABBDxWafcNr/k2aD8QVlRRUU9jjiwcRDejrD1HkeWEeZ2mntbjZ08wfyGRAXp/VgnTbK/CTczNwc1kXDTtU4HzXrdDbi8DYZhID83h/zsLBRVRSqbRSqTgaHroe0V6R0Vy9bjMHq9wrcV67CCrhuenUQJe2xR6qEfy6dNDvv65T1Iy+rAehUAUCUJSeYN6JMkqiTB8PQ0RSMldps/ScbNxkX4jgU/GvU7vriydq4zInNy7dEc4UoQC+7RTsOwpgnTMDxfEYC9LzWRwMKuXWg1GihubLjpjg21chmpTAYN+6Oo6VwO1WIRpmH0sEE2nE82bD0E6e3Wam8bwZPPShR2UsTPN4gYRwZl2XVR+fizn7/vhz754fQqjXYbH7joUrxz134BFH9JJ5L4uyP3Q9yzY52fyFmOi50ECbqoJod1JzlQ5uFj1gnb09vZgMYpCGap9faStVOnoCaT7mxJNZGAJMswDAOSJEGSJO9tUEYvPwOR2vsSsX42nFc2ZD0E6e22kUhE6VHYSZPzVQ9BaaJAOAmsqHMbXq/y1MYZ/I/f+bKg8OSINYLje/d8z95ZRwxYngMMVYKk7/wo2lRliE8ev962KODEmQXgcbLojjqY9J7p7PxtuiDWFkPTkMpksL22hna7DVVVMb+8jHajAdPHhtzsLAAgmU5DUVXUymXkZ2etSSb2KC6UvVGObQA2Sj2I9NoJDoDe9mL1iHrq/XrskyJRjm1YFgIuyJ74sZ+94b34uyP340y70ZcV6VUAQKcmU9gpJHLefsr4vJ3opfs1vp/EiXXWLVaXCB67erX7+ZEdFEoITI/JfieP6NjizFpCgK7D7ckkvts9JfxYgW4iSQCl0DodNGo1ZHI5bJ47J2QlSUJlexupbNb68ne9DlmWIauqNYtyQBtiyQp73P1GKGHYSZPzVQ+i0U+/Oos3+0q1iBY1BtYreFUXr6BfIPEbQop6HEENE5UNYvzKxZElAAE6qjN6448t6Fh3mhXxcWSZHEJ6U52p7PZtSzcIiqbGR2AdKxR7BiQB0Gm1kCsUkM5mUSuXe/Qauo7CwgLUZBJau41MLodUNotmrXbe7d1R1iPsNezXaSEh2UmTKMc2LMuW8bMj3uxXnn2U2YquV+kWZJU4UJgRRVBFO9s8xxo4KMvnE25dZF9c2SBh22PKhnZyIkfM5bNa3XzucYFQLJNumibS2SzqlQqoaVqjOQCJVAoolXr4WrmMZDqNaqkEEIJ0Novy1lb39mRUG+LK9gjxWQK9fieInXQZVT34sfy6iI8vm5YktEwTvZ/fDadXed/+Q7hx9aAA8hcKitueeRTPljbRG4D8gqVIRsH2CyR+23FhRUGd76WQKRuJhRugKADnUQGRiDTBLsPqCWTdIhRau41kOo3ZxUU0ajXkCgV3Cr3oNl4ynUan3QY1TWRyue7vWlHtPd9shHoQ6Q23N78ObhA7aRLl2EbB8n6VD47xZv/g3T+PP7nvRzjRqA6kV/ngwavwK1ffgChCCMG57U08W9rgdgDBdpCDH5aNEjzixLIcywC9jQQub8qGZdnaZt+A76GYYOI5i0UBRsDyLVotl5FIpazn2bJZN0/XtK4aplw6m4WuaVCSSevWZL2O2cVFbK2tgZpmKHtFZ9Uo2UHqQcSKO8FBTq8fO6ky6noIYtl0KkiLN/vNo49gu90cWK9Sr9dw5vQZhJVCoYBcPsukOMpFTocPfKJGGpQV8X69ujiyfBrrGqbsaFh0H0QGE+ScaezMLTbXZTAzAN3yQaxzK9TWa2gayltbyM/OQlZVK59SNGq1HpYNomoigVq5jHazCUVVoagqOq1WOHsFekfFeupxCL3eNnNbRNRiEdhJFMotR1EP/Vh2fbLYu86+OpReRTeM7jM3IcQwDAAE+wpzeNPyKo6VNlHstCDouzHbRJA/CpaXKD27OLEiR+13zFM2LMsHNFcDN/NP1GLu53L6sJTTO7e0ZL1+q1h0ryvTNKG12z2skze3vOx+S44QAkVVrd/gBrQhvmzQdcx2kkUtImInUcIeW5R6CMP67Tve7OsKCzhdLaLNzygOqVd5z4HLsGf3noCdcmoIASjwGze8G5++/l343Xu+jz9/4m5mB2ywFPU4RNF2UJZfBloeI5ZP85MpOzzL0AG/bfH5fd0nM0qhAEAIZEWxJpPYgc40TVBKIRGC0tYWWvW6yzpSKRbdgEDti7iyvW29nDmkvawNo2b7ShS9fa95v+s9iJ00iXJsw7I83883x4/9Nze8C//p3h/ieKM6kF5lIZOFoiiQJO7TcH1EAaDrOtKJBLMD9uQOcvx82qAsL369+7ix/dwnYZb9eqtTtpe117ip6gQA/8aNnu+YOcLeXuvDOnplRQEhBJ12G+XtbciyjEw+j2QqhUw+j1a93mMDgfU7XLvVgpxMIpVOo1mrwXAekg5p7/liPfUxrN6e0YeokypqYz92EoU/vlHUgx/L75Ny23x6/Njfv++H2GjWQ7Eivda7KFUV6VS6W8TpUTI9OD6NEIIy+1xPj7CRtV/va1CWlaBGjhsrOinZBuIby0/nlA1inWfR3BT+uTXOCXu6JNxtNl+WePcHWC9Y7rTbIADazSZWVlehqqowcOTn5wFKkUynAUrRbDRQWFzE9rlzPQ96h7HhvLER6sFPrzgohXHQ/dhJk/NVD35B/3zpPv/smXqFKRddb99hmzPFmX9ruPW7Rr/S3p3ZGkfIsmX4QBLU2ONmRYzjikWBcMpGY+1ce9Ykn0sBy/FC3JlzNCMk63CGprnPweVmZqCoKtRk0nL+9nXD2yBJEmqlEpq1mvvJHOdzOVHsPZ9s1HoQsV5hux1854RvsSB2EiXssUWpBz/WyWPLsXaQ2LMfuvgKFJTEwHo9HzytVCrI5/PuNnsiB18AxGed3ZkfPyzLl/GL5nFmw9bplA3PMucqP9qgtPelys5vTk6606Hrw7JuxjRNtBoNpLNZzMzNAbOzbmDTOh1Q5napY4NpGJBVFa1Gw9WjqCpMXQ9tr8flnwc2aj0I9XZzBdv9rh0/dhIlqF4GrYegOvELBH52xIu9cf8hHFk7hbLeGUivO4JrNpt46aWXUC6X+/bmHEnYb0zvHb3wvQm+5z0qll3yHPsfN1ZUr35pUzY6awn7jTIPaac5ztjtDxLBRz6jsLAmiLjPvEmS5fwpRavRENpQLRahd7wXb7VUsmcrn2d7d5C1RHRd8Ol+nB87aRLl2IZl++0XsWd/565v43SzGooV6XUDnKqqyOVySKVSbjH29oLoI4ipZAqy+w2sIMfNB65RsezBwYeLI+scE99YTp6o7JSNxsIdMbkOmHuGi3LbEHXo+rGUuuvZmRnMzM+jVi6jWiyi02yi02qhWiqhWi57WEdPJp+3OonMc2TZfN66rsLaK9A7MnaAehCxYhFd21HY14oMWw/9fA5fnl2+tlmppesgIFAUBYcOHXIDHBvI3FcN+YrICFGk5Uc6w7KUY4PW48QGXahBQX3KhmXZ2+p2AviJEp4ZgNy221L9WPv3Nee2ZCaXw+ziIkzTxNbaGrbOnUOzXsfM7CxkRemxod1sorC4CCWRgCRJmFtehq5p1ggurL22DeeFjVgPfmxX+LQwfiUMO2lyvuqB9z3OtSFK58vFj/1fr3s7VpKZgfUq333lGVxz8DIrq8+IzVXRkyZy8j2lBIYF9VLCsKID43v3cWWDAjrltnmZssEs4PkNiblNyaZZC+/ru5xz23MmB7COvkQyaVliXzf52Vm0Wy2kMxlk7fdR1ioV75EQAk3TUN7cRGFxEZIkoV4uo+k8LxfS3vPNRqkHP71dEV0bfBsHXUdB58MkSJRjGwXL+06ejzeruS8iGUyvUum03Gfg2F6vKLDxveLuvX/9uicAACAASURBVHe2sqP0soZl+f0F2RFXlnfififulA3Poju6YJb8i4wpk+d+VoebmOJq9mHZt3aws40lWcbi7t2QZBkEcKf8u/uwy6mJBBRVRbvRQLZQAAhBKptFu9GwdIWw1/N6sfPBRqkHH729bShqO9ZhhWEnVUZdD35s0P4g4OLH/t9P3s+Ui65XAthAJV6nlPbMpOw/m9LVwi39uKhsUJ5fRcSJJcxS1KMh6G28KRuOhTe4OdvsEnADkue9i845Dq8EsazUymWsnz4N0zS9v6N5lbmrkv1xUyJJaFSrkBUFiqII2b42nC82Sj346e2mBqyLHHYQO4kS9tii1IMfy+4zbJ3Fi7VmeATFgGC97iQTPmDxJ2bwb3BsYKI+6eCYYVk+fZJZBOSRKRuZtYUdVbAkc667t9uc0Zdzaz4s60y2sFld02DoOtrNpmu1aRho1mru1wFYve1mE7VSyfNv6DqIJIW3l7NhlCxGpBduCwRdB8Qn3Y+dVBl1PfRjgzqI8WZ//10fwWo6N7Bet6sY9tEAMUu4JXy2/dKmbLBM2eisJc7bTNjbZeLb7PDmU+vjpf1Yj3WEID87C9WeMAJKUa/VUC+XobPvlmRskFUVc4uLAIDS5ibSuRwURUHTfi4ujL1M5khZ6tQfIaPRG/o6iHIdTZqMy/f4+WbR6DA+7O3HnkFFaw+s1w1w/K1J8e0FeNKCR3VAN5LyQ2m/YXQUlnDl4MOK9hEHlgjSROX5Opiy/Vkmhwko1EpwnTchBOwEFLuA+1qtjqYh24elnHOXFQW5mRmLoRSKoiCVzaLTaqHTbrvlHBuy+TyqpRJ0TcPinj1oVKsobmx0A3IIez0PtI+Q1XUdlFKoijK0XnGbidqUcFwQO4kS9tii1IMfK8oX1WF82R+deHEovRLQG6gIf+ECnt/dwn9ehzA79Yu2g7J8uTC9uzixYctP2egsc47agcK5lcbODmbPZ1ZLMpEAIQRN5zZjAOvuw1Lq6fwRQpBMpzEzN4f55eXu826MDYQQ6JoG0zCgtduolUpuXlh7HRtGzTYaDYBSz6NDg+q1KwjeNhO1Kc/1YydNohzbsKwoH4Dn9ma82T25GahEGlivZ5KJ38xJkfhPNBHS6EZZdn0YVpQ+qSyfN2WHZT3vffRxxp6JElwAzGWzaLZa0DStLwsAtVIJxc1NNGo1sN9Y5GdC8jZQSjG/soKF3buhJhJY2L0bC/bsyyj2ng+2WqtZI1D7EYih9E4lRhK2Mz5+9jNvfT/2pLMD6/X8BsefqEHvovTy7LCZX3d2SgXbGJJl9yfaLy9xYR0hXLpIB582ZfuzzqoVWPhLg6WdW5f82VaYmUGtVkOxVMLy0pJ12fiwAKAbBvRaDc1aDc5tzkQqhWQqZX0jDu4OPTZUtrd5q7t6OTbI3ijH1pelFPVGA81WC3Ozs5AkqftIwIB6vTl+1wZBb5sGsZMqo64HP9ZqsxmJIEsIqiZFjVKuPXhdrH1+3M6xf/zgP+Nsqz6wXs/LlsPMmhQzomGjs+53GfD6B2H7BRZWT5xYCNL44xHJlI3EclPZCQDQ7ouA3RJsILQ7c6lkEvl8HpVqFel0GvlcrquPiJ//okwnsGN/MqdWqYDAet6NmmYkG3r07hCraRrWNzehKArmZ2d7zuCB9HobhtEmumZE174fO2kS5diisxKAQykVby+k8cZcCrtTKlKyBAIrsDUNEyebGh6ttnBvpYVjbV2gixdRF3Fn2FcqxaH0egKc6EFuvxlU3gDIBiY/A4IMGoT1C6RsHh/Z48KCyxMFdtaBT9loLDwO2C1h36p0HgLv+WI1e+sNwML8PNrtNtY3NwEA+Vyu25IM6+gP0qvZE0zCsFH0jpKlADqdDs6urYFSil3Ly93fFEdhg7cg/DuG/LUUxE6aRDm28CwBwdVpFb+0MoMr80koRPIQDpWWZVyak3FpLolfWJnBE5UWvrJWwUttHZTR11u/QQH2/LHv2nsQj5w7iarRGUivMp/KoqN1kEwkPTMn/W5Lim5binvQogDgJ8OwQelxZfmgF2Z9ykZiSXfpnqXMCIyyjFOK21YkCbtWVnB2bQ3rGxtotlqYn52FYn+521M2gt7YsbCu50q1iu1iERTA8uIiMum0kzm0DQzBrfPLQdhJk9HWQ4IAn1rO45alPBIS8dQ7BQUBQc+v0BRIyBJumMvg6nwKX1sr45ubdWh967bfdTla9mcvvxYvba+j2tQG0qscXtgFTdOQUBOhbksC3YDX++My77j5EY2oBzIo65fnJ3Fi+TrqVxdTNhrLJtvphHs4Gd7z2vPbsrNHQqAqCvbu3o3NzU1UqlXU6nVkMxmk02kkFMV9zd0kCqUUumGg2WqhVq9D13UkEgmsLC4ilUp56iFKnQVNWmP2ju417Ajh8sKwkyZRjq0/m5ck/Nt9c7i+YHdG3E6cferzcyu6vT332kgrBL+6ZxYHkir+85kS2jTIp/mNNM8P+29u/+ZQehX2HDxz5gxmZmaQy+W6qgS3LR3pPYFFQYdtEL9ANQgb9hZFlFsZ42CD6ozPm7LhWK9QwHMbjj3L3NvwThpzfjusLElYWV5GodVCqVJBvdFAtVbr2c+kCiEEyUQC87Oz1m1YbvbjIHXGs95cQNxelFsPy06ajKYeUgT47X1zeFMhbQUsp5ynvqmNM2WpnecZfVO8cyELAPhPp0swfDvuYXx+fFj3NzjTNLG+vg7TNJHNWgfK3q70qONuXXp3yjsdkUEiQwdhw0jc2X6NKOrBTdkwJz47quhJZ0cZtHux827TYQkhSKfTSKVSMAwDHU2DruvuS5QnUQghUGQZiUTCuu1qJTpu0SOD1JmHtbZ4CwTbUZzaJMronPuvLufxpkLaTbE6chzrbnf1WWukm8zofcdCFi82NXxju97/UPr67OHZ37jqzfjmC0ew0WkNpNcNcJIkYe/evcjZPTjRW0wAePIazYb1CqKBelOjHC3xJ0RQjygOLFtGlEd80qZsFJYA3S9Oc78VUXhHF+7Ig7mlKWIJAFlRkFEUMcs5dmd6/cSwIeshSp31iijg+V3jUdhJk8Hr4cqUiluW83aVO58vIq6qXs1d/0S4QSHLSiD4xK4ZPFJr4XhH58qyIkobPZtPpiB5RqTR9HpmUS7a78QTCT+5hFJqvcrHtwfL7pw3JGg7LOt30BCkx5kVHQ9FcONP2VCsaFYwR7oPgTPT28mUHT3rtpNDgyF58btuROykSZRjE7MyCH5l1wxU53dlAIQClHTLWMGOoDC3irmF/UgkMmi3aihuHUeldMbW1GUpUz6nyvj4ch5/eKoE77XF2sX7a3Je2D969E70njfh9XoCHC/8TMqeW5Nu/fudeHw6CZkXhQ2K4uDy4sLyaaIyU3YY1u2IeTBmNBd0i409z6fsCNko1zgvUdg4i8j2aPVwMKngqpmUO3oDrODElszml3DF4Q9ibmEVkiQzEwNNbK69jGef/D5azVJXK7ECnnPr8oZCGqtrVZzSDPS2tl87ivzgcKwEwBxCrwIAhmGg0WwgqpjUb/Qmcuh+6YOy4PIpx7CsXzAaF+vwPMv3RKbsoGzPrTHmNhqB5ZAJZd7q4GyzvxlN2dGxPe0FeNvTz4mFZSdF2OMZrB7eMZvu3rZzOxSOGoJ0dh5vuvGXkEzlbYR99EvC0q5LkM58HI8+8A9oNSvuHqyRnKUoI0u4Pp/EKfe3uH71LfJ/w7OffduH8DeP3oUzrdpAepVSpw3TNNHpdKxk6jw3wY3ewHUR7HRDeIuyXy9llCx/kgT1gOLCsk45qCfCl5my4VnAvUXJOgPbIQhLEO7h5Ck7WtZz3vPpvXQ0dlKED2aiPP96IABen0taNemOkp33fgJEkvH6az6EVHqmd89Mpy9fWMZlV/4MnnzkG57ddH9fJbg2l8K3tqMMfKK0STj2yXMn0NS1CLq9nHLXS8/imtxSaLNSqRRmZmfwB3d/Hy+Wt/DIuRMcwfdQ+B5JUA8lCssfDHvCiHr2cWL5db9j4R36lA3HOtncM1lMoKPE+4YeVgM7IWXKjo4Nvm4gSAvLTpoMXg9zMsGehILu72cOZW3Pzu3FwtLF3r0JfosGgOVdh5DNL6FW2bDbkDIWEBxIq5xNIr8FQdro2G8dOzqUXgWEwDAMhBVrqAvce+ZVPLh+ktlpqNLcelC5fiybxi9Z4R1fHFhRelAev5yywWxXPI+5CEYankdh2JGeR+2UHZZlMrglBHmDsJMiYf2FuExCkpGSJcCuevd3MwoQUMwt7OvpWPDzKJy2k2QFhbm9qFc3rCuHEhB7iiWFNdmkN3DwwYa3V5Q+OLuYyqHUbkCntC8r0iul0ynsXd0b+r8wW+AUOUv+X5TvV25YNmj/cWWdbRpQjl9O2XCsdTGD0q6D7fk9CN1Zf86F7/wQD4GLmbJDsZYEXSuD/E+iEHz4kqtx7co+AAR5JYFPXHkD9uVmARDsyRbw8SuvR15NAiC4ZnkVtx46DOeY37n/EiRkxT1893F7e1tNZP33zAU6AEgkMnaQBKwRHHH1ygASdtl37b8UN+87BIBAIRJ+7tJrcHhxDwCCrJrEJ69+M5bS1gtCDs4u4RNX3uDafNPq6/Duiy9zy9566DCuW9oLAEgpKn7pqjdjT7YAgODAzDw+cdUNkIgEgOA/3PQh7E07Lx4J8q/idOX5rTU8fvJYpNOlbeg4V68EEGxPmj25R8kOkh9HNmyZKRuF5d+ryt5CEz7LZRVyLxE6ZUfK+ku/a96fbeYSqOjpEOXiIR3F+sZfsdVAXbPmPBiUYqNRQ9uwnifuGDo2GzUYdqegrnWw1er+DlZqt6BnKVQQgDg1Ytc1Ieh0gt+ww7+0o92uAZTYszCtjiCINfvYoEDH5srtpufK22rV3WMw7WPQTOtOYEvXsNHo2lFptyDrir1/YLvZQI0r27HvIrbs43fkzx+7C+vtoN8B+fjhPY8IPvdpKkfuDdGAV7lMZSrjla/f/FG8ec/FnlFbz4vDwYw4SPfCBuucp+zI2C8ffQi/c+QujFT426KTID2/S0aTWYngLy9bwWyCv31orRdm9+It7/gUiCR5Oniipa53cP9P/xaN+hYoo8dpu/WWhl99fm0oe8ctkhWsTPufMv8mszS5bYDrszEqqSCd9kkfhBXeFJkQtt/xs0tM2UFZx5kIbs1QQqzRB++obW7Kjpjtaacw10Yfltht61ny6yJmjOyQ9VA2KU63dXuze0MRFCCgqJbPYnP9ZU9bsEs2yK2dfs4Obt1OieXVLb0vNztCG7xpomOKD8u8Ct0JWJQr4By2SKFIOc/yOlgZhmVtFtkxKayoo+DUQ1D5KevPsijxUsztSsJuO06Yu5U5ZUfECoX1GaI2nbK9JMXTtbaNe98TbMU8E88c+T5azYrb6eg+5N0NbtXyGl545nYrz90d8bBPVNs+tvDBRnQtxoN1f60sKAm8cc9FA910bGgd3H/2OJPipyUocEVlnYMKo3PSWIcXyZQNxdqOlbDOmHXKzK00j6Nmer5TdsSs22ZhvMyU9WPvLjXw0ZUZyHDqmNrZVnBsNUt46O4v4fKr34+lXZdAkmS3rGkYOHv6KJ5/+sfQOo1uu9nFnScYq4aBB6qtkDb6+bXxs4qTcdPeA/jSRz4VUplXSq0GLvvrz0MPNMpJZ/OHYUcZLOPGivJ62V87/Fb81ts/gGKtgj+59wf4p2NHR6L3tcPC7eV6HC07qmAcdQ83ZUfHhpIo3esLl32lY+CxchPXz2Zc1B53uQGq1SzjyMP/iExuEXMLq1DVNDrtOopbJ9Gob8Ovw+2M8u4vNrCmh/1SRnzrzB3ByZJk//Coo1wu+3ecBdKkOqM+KGA5+c72KFi/ffL6JoUVlRHzs+ksDiyu4HWLK/jjuUXc/8XPY7PV780D/fVOOmtQEzo1g89hPm/KnleWn73XCxPBcsqKWBPAV9cquGYmhaTc/ZWJULva3RUT9coa6pX1nndVurcrYbHOb6UEBGXNwG0bUb53OAEjOIfpdDooFa2XcPa8XJkRNq9JnQfFw57Eo2Sj5seNJVwaf9yiwMiUt9thPpdHKpEEWnUfNoreyWY/99gdyCeSmEp8ZL3JOky/9mTTpmwQ+3xbxzfXqvj47hnPpB+XYCaUOIHL0mLpIQR2GS9LKcVXzpS4lyz365zz+fFhlX/3xpvxL9/0Tij2fdp0Oo2LLr5IoMBf2rqGPZk8jjeCno0LarxB2Hj2GMKzbBp/jGx6QHAD289jX400vN5JZp+rbvmwfK9YdG55+rlT9rywhNsWsXTK9mH/YaOKvUkZN81nAdjvD7b/rDGJE9S634Bz3npizeqkHpZSiu+sV/GdUpOxg79meNtYiR+r7CrMIZ/KdKeSgkCSJEQRSZKwLz+H441qhFJhg0NUdqf2MwzLN5afLr+eCpfiGWGPTu9rk/VzKmHLTdkpGw+2A+BPz5RBAdw0nwVhedIl3Z9DndKEgeyFaVJ8f7OGL56r2CEjjB8R5cWLVZyAls/lAxT4i67rqNaqjM4wI5t+jRiWDVOeHdqPk+2XNsixOUWjBNuoI8/AHQ+hd9wsK3w7BumZslM2PmzdpPjjUyWcaOn4xV0zSErE4w88z8Mx5bq/wQF13cCXz5Tx3WIDOoIkrO3xYd0Pnjov4exBmNGB58W1vmWiOJjzxZ6/feQUFb/xhptwcGmPt57tYNDSOrjtyQfxgP2VBQLgf7j0Wtx88PVQZFmkEhTAermIv3jkDqw3rd/QFpMZ/Oo1b8WBxV3CdrnzJWvGpOj30ZySwGdu+iDyqQxqzQYK2VwPQwEUaxUk1QQyiSS+8dRD+MnJl9z8lCTj1655K67ee7FvrXR0Hd98+iHceeplH2KSJGyPdcpO2XixHQBf3azhwWoLn1jO44bZDFTJ/tgv6X71u/v8ouW724aJ+0oNfHmtijMaO48iKOiy6/Fne77oLQpgvW8EtyajJBIJvnhIGVWvfOeD6eff/XP49be8pxvb2GetYFn7ocuvxTv+5vex3qzjwwevxBd/8dNIyLKQdfVQimv27MfHbvsi0oqCb33yX+Pw6gErnzlJHWk2Gzhdr1pNzLXN5Qsr+NT1N+P3fvwN/OOzj+FHv/7beN3SboB2P0755Qd/gv/zvh9hMZ3Fl37x05iRFU+A+/y7P4JP3/g+zw/Yopb42DVvwSe++me449Qx50gC689bv+NkHZmyU/a1wb7U1vF7J4tYPVfB2wspXJVLYTWpICtLkIj1bsmaYeJkS8Pj1TburzSxppvcfZo4XJujYxUQApkZWbCjNFFgA4BarYZjx47h4MGDSKVSTI5TVYTbZo2hI2JF5YJ0Dc+mZQVv23/IrSPDNNHstMFLNplCIZ3DerOGa3bvR1vroK31YACApKpCVVQQQnDdngPIJZJ450WHcHj1gBtULHModPvjsrL9njnLNMI1q9Vmf3nfj/BXj98LExS/84Pb8P98/F8iqaogAB4+/hI+e8e3UdFaqGht/MrX/xr/6g03uRoKagLvuPhy1FpNoc2EANlkGoQQZFJpvOfQVXaAY9vLr634+t1J1u+c4/M9Rztlp+zEsBTASU3HP2zWgM06soQgJRFIBDAp0DJN1Kmfbj6N+qRPDqskEklkM9YnFtwXpXLTRp089tEAM9SXvEXRN8poLAy7E/uwRAJBUpbhPLz65Ilj+LVv/Z2w9Kl6BQDBXzz0U3z1yP3/P3tvHm9JUd7/f6q7z37O3We/M8OwDZusw4CAMIMoAgpuqEEDGr9Rs72yfb/RfBMjJvn5TTQx8aUxBteoUdG4EURFBEEGhm2QdWD2YZjt3jt3P3t31++PPt2nurqql7Pce85wHl7DPd397uqnn66up56nq6slxwD++oo34e3nXwqro2G9i7i8f8hl64f3vID/ePQ+vDw/A0IITu4fRo4oSGf74HqpltH7maMHYffN7trzPH78zKO48bxLMFfM44//5+uYKtdnKTh5cARxLeaUMFet4MZvfw6qZLDRYDKNO9/3v5FNZQBKkdDsRECQfaNct3awQfXTr7fYY3ts97F5SpE3ZJ34hWs7F4vVAIB/tubCBM/dcrkczj77bKiqCl2vzV8i3h3unggRrG+W9WPaw9Ja1FQxdOydm/ZnKcVIpk/4/G3n5BjmqmXwc8optZJAKSrVCv73z27HsxOHnWM8enAvAOBPL7rKk560ey5/eunVeG78EHZOT8AE8PF7f4RL1q3H1x69D89OjgEAliTT+JtNb8K7N1yBu55+xCnBBABCsCw34Ingq4aBg3NT1vWWXnRZdNWpbE968kqSKPdDd7OuQSaAO4rjt7GiqipILb15rDCP5yePBBwsqLfRCOu3T3vZukOSs68aWYHvvOv3XREZe6wPfb8e/Xm225Gz61heIZ7tVjlnrToBP7nlz/GRu76FH+58Bgfzs7h92xbcePbF+NKTW3Dl2lPxsde9FWuGl3nK++ilb8DvXvJ6ZBIJzzlNzk7jhm9+xlaa2RrGvp3KBkmP7bHdzPISZb/uZh0H53yhVzDElE9PAvUGWVEUzJSLmKqyn1YI27g0y4aNAFvF1rfWIyc5+39ecw1WDy8VxhKUUig+w/tFDtHak3jXSspZNjCE2278IM598GdQFRW/c9FmpBNJ/PTmP8PSXD+Gsn3gn+Gd1D+MD112NTLJdF1nZkixqsq+Hug5Q6G+i8uGyQT4re+xPbYbWf5+8MtSHV+sBsDjwGQjJwH4Rno1gvvNK8MyzbCiE5WtaxXr1UDGJhQV6waXOKxuGPjZ89vwm4N7UapUkE2msXtqHBevPgkiEVdbb6RGwGvmXorHYvijK67DHU8/gv2TYzh56UrcveNpfPnx+/Enl16N9150JeA8a6MYyfYhGUs45c4V8rjj+SdweNqaHSQdS9S+Pswfjb1eIpt5NV0c1l7H1ytRGT22x3Y7C2a7qC0NcprdzbqewQWlJfmP6PlPoOqUJPndLCvieS/ONnStYC2hALyfAOFZAsUeBUkpHtzxDN79gy95nNG7z75YeKbis/e/Jh6GUuyZOIq/+ul38NO923HRirX45jt/D1/Z9iD25WfxZ3d/D48e2INPXPsuZ1/rv3q5H/vFf+PLv3mIOXOC4VQmQDevzeRntdCsHy+SHttju5mNuu34YhUAQkfFDyxh/7If0WP28DlQmO2NsLJei6jBbwXLLJFobEKLQSXuUYkaUbAsI5lBpmZfVVGxMtvvKVcjBKN9A/X31DgpVcv48sP34PVf/SR+snc7TAAlvYp0Iom/u+otiCkKTADf2v4E3vOtf8Nc0f0VArvcuMq+KmnpMBBPCgbN8BGTX8VbbJYKWFmd67E9tptZfr+wcnywrhe9RRGa3zM40eAG70FFjkSmYFTWrwEL6+mjsOxuERpcSrHxxNPww3f9Pn5zcB/mq2UsTWVx2orVePW69XUNKLNXLfqLqSpue9v7ce/OZ/HS5Dgq1MDSVA6nLh/FRSec4no+xsonfvFD/PuTv4b9MsdgIonPvPE9yCRTuPbMDbj+uSfw/R1PAQAeOrwPl46uYzV2yv3I5utxwYo12DM5Do0QrOofwsUnrEcqkeTOPuy16wSW7Zz4RXo9tsd2OyvaL4wcH6znNQHeqfHr7XXR05MLybbnuGVTx5HCPNaFYKumWXvXzBJVUXD5qa/CFaecxUR/cNl3tlRA1dBxbH7OqrK1bcO5ftx4/qXMVDvWRybtWUkogEK5iEq1/jb5JSeciv98Zivm9SoUAJ+48i04Z/WJoAA0RcHHX/92PHhgF44W87j+pDNxyvByAMBUYQ4lvYJ0PAkKYDCdxTvOv8zR2dbB/tAlBXB4ln1VoptksR1tj+2xC8W+MkWaogwS2cg9t/ChNLvcLOu3ThTCN8/q1MR/PHIvZvLzoPBP05ow8b3fbMV8sQAKChMUlJowQWFS0/lHa+vzpSL+7eFfYK5awS92P4uHdj6HqmG4eJtly6OgyBcL+LctP8dY7WsO+UoJm089C1958/tw6ap1+PgVb7IcJKxrbQIYHRzBJ19/I24+80J89q2/g3m9AoBix9Q4/vX+u5AvFev6SnTQTQP373wWX3e9yC6yLX9dF5Plr5dfPeuxPbbbWVlb98pgyecfuY9+6MIrrAVB5MY7Mr5RJ4Tgsd0vYOM3/yVAEeKz3Ci7OLIq249cKo1SpYx9M5NSjgAYzQ0ik0xC8TkHExT5Ugkvz03VLhFFWo1hRd8g4lrM9+ztfQ/OTTnpSAXAiUNLkNbiMKkJhcg/f0QpBSXAS9OTmK2Uavtbz/cyiZTvsSuGjkMzUygYFbTmei4Uu7BCKEWuWAUxwzRax69QAsyn4jCVzrqfe3L8iucZHC8yRxduFKXdsPAVWlTBG2GDjtse9uD8DDA/HchSEByYmwLmojawBAVDx+6p8Qj71MUEsGuysX2t/Slemp0CMBVyD79zC3M9F4oNex3set0aNmaYOOvplxEv+X+M5HgXQ1Pw2IUnoJSwBygt/LV4ZbJ+ncHjm3WewQHwDDJhRfQieHCashOewXUD25OFkbA3DX+9mmV74pZW27fH+rN+y8c36zyDYwc7sH/t3yKHZ0+6rJFaQVLh86NBedVG2Sg6LDYblD+mkm09tnmW/21nDkTXsRVsT+Sy0NfilcbK9guS44NVADiRWZiBI3zKslqtYmXfEFYm0tyBKPNPVC7f2DfDBjVmncjKeh6UW+Z/99jGWfY68NEc+5uvY61ge1KXdti3x4pZCH6LuOOT9UzVZYvM2RFCUKlUUCgU0N/fDwoKQoCYosLdcC9ESCpyGn6NYCexou0iNoxtemw4NqztZdIo2xO3yGyzENfilcgG1fvjl3Uyi3bKMSiKo5Ti6NGj2L17N6pV/iue/L6yHqxofbMskawXSSewYFi+B9ZjF5ZdyHrak7p0wrU4ntmeKIaho1KxvgQgGxnJDyzJ1YALIQAAIABJREFU5XLo7++HpmkeltszwvpGWNahBF3kTmP59fzvKL3cHhudDSPtYntiSSdci+OZ7Ymm6zpK5RLi8bh0YAn/u7+/H/39/REPJUvPNcsGNW6dyvK/RecsS/n22ObZdtXHKGxPLOmEa3E8s52mz8Kxmqu55SK4oJSl+JtlYZQIK36sHQ2JGi0qYDqJZc+LjwD57T22tay9jnDrROW0iu2JW/jrs5DX4pXEEhCTYvXR2QWZZGBqMIXZdJxby7eRsnNqD+sMMqlUKiGn33KLoRtO8dEjmGZZ/iRFPXfSwSy/XbbcY1vLLvYxX+kis00n1pXuZhWTYu3ucai6iXaLuX5ZzcGF0VfWFraW1UxKQU2KQqEAkHrURh2XZf0mlDhlUFCAwpW2rJqGz8H5aIZVqBm2Jz3pSU960jkiaqvDduxbz2p37ngKuq4joWl491kbUalUUCwWfU7AK3snx3CoXPAhRNFMK1g+dJWlDTuRFTlvPuS2t/fY1rC8yK6RaJ9m2Z74y0Jei1ciu9gSRafWsdq9B/fi3oN70Z9I4bfOvBDVahXTU9E+fzI5M7NITxpknlvm7ReJtZ9rCr+8LUpv8pW0x7aGZYVfby+3g+2JvyzktXglsq9c8Yzzz2azSKVSkQqZjUW9iaP0MhavR/KR816Di9ec7Cwb1MTLxXm8OH4Ed+56Fi/Nz0j3PX1gBO8959V43UlnYjCbg2GaODw1gduffwLfef4JTJTtKNmONqxzVACcPbICN521EZvWnor+TBYmpRifmcIv972IO3Y8jacnjsAAxUAsjn/d9GYQAO+/57+hUzbPTpDTYvj7y67Bmr4hfO3JB/HjA7sk2lo69KsxfP2Nvy1tkgmA3/v5d3GoNA+A4K8uuAIXjp7oYub1CvbOz+CxA3vwi/07UDSqqF8/v2tJuO3tYmWyOD3MnoikOfsmCDCgqYgp1qC5gmFi2rAmP18oHTqbfeWI4+BMamKqOI9ULBG5kInCPKI5olZcuHY5yTq7ce3JuP7si5CvlGGYBggI4pqGhBbDR2en8aE7vo4f73neU8LNp52Hf77uJgylszgyO4WXJ8ehqRrOWrkGl550Oj5wweW45YdfwZPHjriOpxCC/3vRa/EXl1+HdDyBQzOTGJuZRlzTcEZt37+4/Fp8+Gffxed+swUJNYY3nHkeQAHll993BQspRcVnrnobbtm4CbdvexD3HNoXeM5JRcWbzrkIJqUoVytCMnvvj4CSpe9Fa0/GG8+6EHPlIgzTBCEEmqIiqWkgRMGdzz2B99zx9dq35hBwDWQRWKvZKD3ddrE9saS19u1TCG4YzuDSgTSWJzTEFQKTAvO6gRfzFfxgYg7PFKpwD7fohPrQq2ftEs022FyljIu+9inEfb4dJpN5Q0djjUwz7ML0hCilePd3/h2/PrALCiFYms7hveddgj97zbX4jxtuxiP//rc4Uqo/f7x8xVp8/s3vBQD8+Z3/hf946mEUawNwVqQy+H+brsdvb7gc333HB3HRl/8Rk5X6V7///PzLcevr3oqx2Rn8zg++jDt2P4cKpQAoBrQE3rz+bPz1FW/Eqr5B3zNQAPzjputxy4VX4KfPPYH33/VtR4egcyaE4LH9O3Hjd/5dSB4uu5/PGqaJa7/+L3jq6EEohCCrxnD6khW47c3vxZvO2oDrnnkUt+982ldfXof2sn5RX5Q0Z9SUaE+80rprcU4qjj9ZM4QVyVhtlTVMTiXAQFzDxpiKDf0p/GxiHrcdmUGZhiu3PfVhodhOlfYHJ7Zo7Ippo13fq5I1Ms2yCyN5Q8dUzTbHZifxkfvvxKYT1uOCNSfjjGWjOLJ/BwArAvvbK29AKhbHn935X/jMkw+6yjlczOODP7sdA6kMrj9rA/7wgsvxtw/fDQBYlcrib656C/LlMt7x3S/gwcP7XftO6xV87bnHcdfu53Ha4BLInu0QALdeeg1+/9LX4e4Xn8K77/hPFE1ZB8RbISilqJgmXvYMGhJXNAqgYBiYrznQWUPHoYN7cMf2bfjjy96A1QMjvvsv3kCPKJ2mZtme+Etz9j03FcdfrRtBNqaAUoqXS1U8MVPCroqOrEJwbiaBc/uSSKoKrl2SRU5V8KmXp1ANKLd99WGh2YWUznL+Sn2FTNmwEqWMVrB++1PBusZZyv2iAMbnZ0EAKEo94j05O4BL1q3H3mNj+M/nHhOWUKYm/uGhu6GbBm48cwMSivXxx3eccT6yyRR+/NwT2OJybvbFssoYKxXwwOH9EFVmBQR/fP7l+MvNb8QDu7fj5ju+jpmq7Gvb7nJtEb8LKWbFYj3pWJ7th2GaeH7soF1yhHLbxfIMAph2sz2xpHH75hSCP1o9iJymwqTAdw7P4E93jeMLR2dxz1QePzqWx8dfmsSHd43hpYKVKr9sKI03DaV9y22XvovDLqQEOV4qWe9dp8FKOw+oBP2KgpQHDy5Xkx+ovp4AGFEVnJtL4FXpOAbiGpKqld8u6CaOlnX8Jl/G0/kyih57+51EmGcpUVI/hPsrKzMaS7hfWS2G05atQkmv4iDz5exzV65FTNXw5MF9mK6UpeW+ODmGI9OTOGXpCuTiCZRLBby6Npjlp7ue5V1OwHnU5XfO3ID/94Yb8ZuD+/GuH34F46Uwr254y13VN4C/v/QNSKkads1P45nDB/DwkZdgCO4lAuBVQ8uQpAAIQTaewJUnno43n7kBX3r0PtwjHdgS7dzaz4aRdrE9sSS6fa8eTGNlMgYKih8dncV/js97SArgxZKOj+87hn86eQkGYxresawPd00VUArVXrVO34VlO8H5sZ1NgqD2PE2AC3NJbMwlsToVw0htsJBJKeYMEy+XdTw3X8bDs0UcrJqgAeUGzZaMc9NxvGUki/P7k4gpSt1mjG4UwFsAzFYN3DuZxw8n5nE01Jvzrb7o7cntJhUVWUVFUtUw2jeIv77sGqwbWYavPfIrbJ855nArc9b8nHunxmVFAQCmKyXsn5/G6NASrEvnMFkqYFm2H5RS7Bw/7KMvxDoT4KZTz8Zn3vQeTMzN4E3f+TeMFedDnp+33BOHl+HDm6+HQggURYFJKbbseQE3//Ar2JefcbGaquJr7/iAJ/Kbzs9jopjHQDyBMV9HG3BubWM7oXHqiSWN2VcB8NrBNAgIjpar+NYY79zc5R6sGrj9yCw+uHoQA3ENG7IJPDhXFrLt0Hfh2bBZl3aKrLPpXu5XCN4ynME1I1n0xzXLcdFagFVD+ynFaCqOi/rTuGXlAJ6YKeDbY3N4oaRLyxU4OKvhH1QJPrC8H5cNZRAjxNnP+v4bAWjtN4ijQF9MxQ1Lc3jtUAbfOjKDOycLTJ67Xc9aWGl9ZSKE4L/e+SHopgGVKEjFYqgaBj774M/xNw/c5WKTtXRjKeBZJqUUem3UoaooUAiBVkt1ymeEkeubS2Xw2RtuQUzTMJLrx6bRE/Gdnc+EOj+23FlDx023fwG7xw9jrFRAStVwzvJR/NFFV+GyE0/DbW98D6773hdQNeudF8M08Q8P3IWXZ6cAWCnb5ckMrjrpDPzlpjfh9SeegTd8+3OYYgbTRDm3hWN70m2SJASrUlb09thsCXnBl1B4eWy+jFsMiqRK8KoM6+B60l4Rt98EwAWZOP5odBBLE5ozHzKxN1IKSomTS7QvsaYQbBxI49y+FH40Nofbx+dQEFx+gYMjODmh4f+sGcLa2sSZlDKq1ZybfXwQ1BSqe+pcTMXvjg5ifTqOzx2awbwpc05B6cMwbPvlkX07cHR+Bn2JJK498wJMz83gc4/dj1ndPZT+SDEPAFid9f/SQlqLYWkyA8M0cLhUgEEppkvW6MQVuQE8NT0RSb9ULI6fbX8SP9nxNP7pupvw+Rvei0Pf+iweOLQvUjlF08C3X3jStW777CQeeHkPHn7/R7DplDOxNtOHXXP1iQBMSvH97dvwpPOszZJPbP0FvnXDe/Hmszbgt04/H59/6qFIuiysLNyorp4ESXibDSvE6XwfqQQNkLPKndFNHCpVMKipIFKH2An14XirZ2LndsNgGu9dNYCkamcHa1NFUgAUTABVc3RMJpIQIKEqeMfyPqxLxvDPL09hhptUmnsngOLEuIqPrRvG2lTc7cgYpSipHR2kdiDCpEGtnRRCcMVQBh8eHUSSWc8eq/6Xf2Aahl0YoZTikw//Ajff9S287Udfxee23I3RoSX42pvfi/64+53BfRNHQSnFactHrRtPIkvSWawZGMb47DQmSkVQUOw7dhSEEOdZnI9GnjXThXncfMfX8e9PPYy/vfv76E9n8M23/y7OHFzqu5+8XDd7qDCPZ8YOIqZqOKlvOERZVhT7i13PAgDOWD7atA6tYWWcLIvQDrYnljRv33ztVQBQgriq+LJ2uUmFYEkihsGEZjWqTerQfexCiv8gr+sH03j/6CASijXfMa1FTJQCpOZjaC3Lar+kTykVsMCFAyn85Zqhmq+pi8I6jT5FwV+dMIyRuAYQCnvCZTtKc30M1Z6QmXNedohpT9q8YSCFDy3vZyI8h2T+8nnaMGyQAXlpnjUoxV/cdwfufPZxXLJuPb72xvc4aUkAePjoAbw8OYHzVp2AS1eeIC33fa/aiEwyhbt3PoeCbo1yvP35J0Apxc3nXYqVqaxUBwUEI/Gka12lWsVstQITwD8+/it85tc/xaqBIXz/HR/E2kxfjWIfwoqE78bU2RhRMJzKwKQmDhdmEfaGSseTIIQwL403rkNrWL+6wy+3i+2JJc3bd9akmK4YAKG4MJtw0lh+5Z6Q1JDRFIAQ7C5WfdlW67t47GKJXIfz0wn8zqoBxBRSe8jG5AAJrf21vBsllnsj9f8J2XP6kvjA8n5X1KbYTkMB8P7lfViZjNWesRHnAHaUVh9IUPtuHKO/Y96aY7NZQghetySLS7LRZ0jpRNFB8f6f/BeeOLAH15+5Af94xRuh1gxRNg3868N3I6Zq+Nx1N2G98w6YJQQEbznpTPzJpW9AoVLGZx691+lEPHhoH+7b8QzWDi3BF9/4bqxI5TzHXpXO4p8234A/3HCFVD8TwEfuvxO3P/kwTlm2Ct9+6/uRi9nfaPJLyQBXrz0VK9JZD3vNutNw3sq12Hn0EHbWnrX5CQFw9vByfGjjJlT0Ku7Zzc724q9D8LpWsLaWfssLwfbEksbsqwN4YrYEUODkTAIbM6JvkdVFA8HbluSggsAwKZ6YK0nZxakPx0M9C74304Tg90cHEFdI/fEXtR6FWUEUqf+mAKF20BTAAnj9SBYbmHrgzGSyPqnhyuGsYydKqOPkXBleQhCPpZFKD8I0dRQLkzD0Cmq+Fqx3RW2dSgh+e3kfntw9gUKIB8HhJcpFbR07Virg5h99FT97zx/jDy67Gi9MjeMLv3kIFMDnn9yCi0ZPxNvPvggPvO//4LvPPIrHj76MmKriDSesx7WnnwdCCD7809uxbeKwcywTwAfv+jZ+nBvANaefh4eWr8Zd25/EkxOHkVQ1vHrFWmw66XSs6B/CJ+67Q6KuZf+KaeAPf347lmX6sPnUs/DFa2/C++78JoquwS/sVbX+vv+C1+DytafgV7u349cH9yBfreI1K0/A287eCEII/va+O7gyAJUQ/MOm6zFdtEZKqqqKoWwOF6xci3Q8iS89ci9+8dJOwTHFOoi3tZLlhd93MdieWBLdvncem8flQ2kkVAV/uHoIY3vGsbfCD9Si0EDw/mU5nNOXBAXFI9MFvCwc6d0J9aGb65lIF/e9ee1gBqOpuNO5tz2CHU/ZQVIslsbA8CgSyRwMvYKZ6cMo5I/VttdZdlyIpgA3Le/DU3smUKbMTCZvWZKDRsA4KvvQBCDW34GhNTjptNdgaHgtFFW1vgNXLeHowe3Y9cL9KJfnwBq8/m05YG06jo25BH41W4L/RfFrrMKwvEEbZ4vVCubLJeim6dl/+9Q43veDL+P2d/4ePr75Buw+Noa7D+xCydRxy/98A4+9vBd/cPGV+INLXudEs7ph4MkDe/B3D9yJ/9n7gkeHXbOTuPIb/4K/ePXr8O6zL8aHLnkdlFrKVzcMPH/kAD639Zf46tNba1pS5Msl5mzqqbrJSgnv+fHX8D/v/D1ce9q5+Nixo/jLB38K8Xsj1r6/2vMCLl6xFm8/52K887xLavluYNfYIXz83h/jWzt+49K3WK2iUCnjknXr65ajFMVyCY+9tBtf3PYgvr/zaeiUPU/2t1eHurSL5dfb+/rVsXawPbGkOfu+WNbxg6OzeOeKfowkVHzq5KX48fgcHpwp4nDFQFohWJ9O4M0jWZzdlwQIMFE28KXDM77lLnx9ON7rmaVjmih4w0im5peY747aPooQKIqGE0+9DGtO3IB4POX4EdM0cWx8L7Y//TPL0dW9nONnKAVOzSRwTjqOR/MVENz6AbpEU/D5U5chp6mutsJ5JQDAyjXn4oxzroHCPHNipViYwbattyM/N+Y+JwD2t1K3zRTxf/cdYzYG9cSD1rdXEooKVVFQMnSYksgzpcVAYA3vZ4fPA0BCVXFm/whW9A3CNE3smBzDS/lZVGnwO4IpVcPJuQGsyPZDNw28MDWB8XLBc4yUZs29V9SrENkprqjQau+ylaQRXF2SqoY16RxOHBiBpqo4NDuF52eOCV99SKgqVMHcpZRSVAwDhjQ96K9De1l2G6tfUL1rnI3rBjY8vh/xUrumwusOMTQFj114AkoJe/B2i+wL4H8t78N1S630IwWFQYGySaESIK5YWSVCCI6WqvjE/km8WKoGlhtFh85kAVU3ccnWPQvyRe/d65fhwAr/EeQXpOP4u5OXWI+xqPdsVFXDqy54C5attDrN9pgOWwghKBXnsG3rdzA3c8TZZn+YG7Vyf3lsHp86OG29JnBGKo6sZj2Oo7C9Ka3tBAwMjuL0s692nJvooOnMAF51/vV4fMs3oOvl+sFqmlNCcVI6jmGV4JgR5Nzs33y0wbPtbSDLpgH4TlIMFHXZVFhA2TCwbfIoMHk0sg5Fo4pnpifwTMArA27H5i27YhqouM5BzgLW6Mcdc1PYMTcVqG/ZMADYZTdyLcLwrWb5OuYn7WJ7Yklr7FsB8B9HZvFCoYJ3L+/D8mQMqgKkFcVqJShFyaTYOp3H14/M4rBuhiq3XfouHNt5ck4u4WSlqD2IpHYeBMCaEzdi2cr1rokj7N/24MVEMoszzrkWj2/5JgyjUovhak6uVu6ZuQRiqL0Hd0I6Vh8UQuteELXI68RTL4WmuR/gOi/kMYr0DSzHslVn4OD+J+F6EkcsZ5lVFQzHNRwruqc59UpY57UYDWS7WVt67PHP9sSS5u1rALh3toStcyWckY7jjHQcGU2FQSkOl3X8Zr6MA9VwX9RYCH0Xlu0cOTUVh51SdEeggBZLYvW6CyTz4cK1vn9wJYaXnoSxw9ut8mo+wy53QFOxIqZaDu7EuFY/mF1ILSmaSOUwMGS9x8Q7NFvs9YQQLFtxOg7ut18Wtv2qtY+iEJwQU7FD6ODYcoOcW7NpzE5gRfuJnhnxZfbYxlmRdFpdeCVL8/YtUODxfAWP5yuBbLt06Fx2McXSsz+mAiBsqtBRP5MdQSrtTXE6YznsdGTN1wwvXYejh56vv/zNlBsjQEZTrFcG0s4Lj7WQsf4aOWKxJLRYwimcfx+OX5/K9MNpdFwO2lqwjuX23F6Yb5z82LD7dBor2k8U5cmWe2x0ViS9HnbnSCdci+OZXUyx9NQULnJjFhNJ69UoKhjvwAZRtiSSOatUB3eXqxDr9TcYlO0FuAuh1ASlpufdNvsvnys1mcEI1GV7wpyL6KLILlQUNuz+ncZSye8e23q2ke0LwfbEkk64Fsczu7hi0NozN8I4slrzWK1YrxrxWULez9hSrRStKNB+RseWS61pBBWA4phuD4Ovm8oO4kqleZRL81KvyipBKcXM9GFnQkxCmbJq/NGqgfZf6DDOp5NYVvj9KPe3xzbHihiySGxPLOmEa3E8sp1Q99w65KtG/W61B5vY2+aPoVIRf3mE9z+UUkwfO2C95A0K2BM018rVKUXJMK2ZTPaWqqi5vnocV5tf0tDLOHzgWS6qo67UpL3NNA0cfOmpOutEetaJVk2KIxUD7Yl+2ChU1rvvJBYMGyaF1mNby7LbqIRpN9sTSzrhWhyPrLXOiKvQF+CfqQZn2/jp0WxXQQFUyvM4fOBZF88+d2N9TiE/hbEjLzhTdcEV4VnfjjtcNayZTLYXKjCoNeOIq4mm1n77dj+CkWUno39whXMw9uD275f2PI6ZyZddB2IvxERVx5GqLrkgvHMQ/WZZ1NaLGjH+N+1Alj8fv/Ptsa1jRdLKDlejbE8s6YRrcfywhkrw2HlrIpTVuBhCB+eWp/NlvMkJiqx31+zWkQLY/eKvMTA0iv7BlQAgTE0aegXbn/65laJE7Q242i1u0QS78hWUKOwITsehUrWWlrRn6K5Hc9VKEU8++l1MHTvgHMQVuRkG9u16BLu23wcwLzFT7scTs6XaF3SDDCFzFDLGc8QuY8Ocb49tDduTnryChBBUY+qC/DMV2dcZ6vJ0voLJ2lRqRNDx1KsFPPnI7Th6+MXa+A/3oMb8/BSefPR7ODa2C1ZyknWRNaEUD0xbqU4NAAqU4r7JAm5eFXcOSAk7YzNQKs7isQe/gaUr1mPpivVIpQdATQNzs2M4dOBpzE4fcuB6rEJqh6WoGhR3T+a503VHeOL1fiyf7gvqxXcKy6cVgqLUHtt6lt8vrBNsF9sTSzrhWhzP7OLKrElx71QeNy7vh+NrXARBpZzHU49+D30DKzGy9CQkU33Q9QqmJ1/GxNguGEa1RtYHLtpTdQHAwVIVj85bH7KtzZlD8ZPJPN4wksGShMbu5ihAAFBq4Oih52vvHij11wlA7aPUDsyqa63/9VQeu8v2CMuw6bogtrPTA/5sUAQia5x7bOOsyOnJGod2sT2xpBOuRY9dDPYHE/O4aiiDwbg913/NNdXmdLS/EjAzdQizU4cc10J9WLt0ExTfOzpX+8i288FTghmT4j8PzcD+ICqBXSJ4F2utoiazQX4jUwCTFR1fPzqLcLOhRW0UBModNyzQeY65m1mR01totieWdMK16LGLwU4ZFF85NAPdtAaZEPs/AtQ/twbLmRHUp44MYCkoHpsu4t6ZonPUmoOzGt17Z4v4+ficM3STChSvvWLg/LX3pqjP5syyVdPEZw9M4ahw/jdXySGMJGKDGpJuY3vSfumUzktPOuNaHM+siPfbf2HYe2aKuMv2NZTxK65XB4idH7RKoJCzFDhUquIzB6fAjtN0IjiLIfjC4Vn8cmIezjd3bOWc4ZoWbXtQACCU1tczbNk08W8vTeLhefbDgjJhQ9mwbBjpBpZKfvfY1rNAZ9SJnljSCdfieGZFvN/+C8NSAF88Mos7x+ZgTcxvB2xM2ESps+w8NiNidl+hio/tncCk4b7XtfrhLAUqAD57eAZHqwbevqwPCVURDNWs8U7UyWyv/R4v6/jcgUk8mrdn25flaUWGCMu6de8ult1HFMr32PawLAeGlXGtYHviLwt5LV6JbGdKFdZXIF4u67h5ZT8yGvO1GtS/8eaEXy4/Y/0xATw8WcDnD81g0vA+BNNcdE3KFPjG+DyezVfwvhV9OCmTgOq8kUfrDs1pS6x1lFJUTIqHpwv46pFZn7RkkENolA2STmJl58g3zPz599jWsOwyOJ7frzmWEoJyMgZTMkv6K0VMTeGm71v4a/HKYmX7hpGFYXUAP54q4NlCBe9ZlsP5fSnr+321rwIQ+2OiIM6u9uwlB4tVfOfoLO6fLUGX6EBw6wd8u5kagA3ZBK4cTOO8XBJZzRvRmZRivKTjodkifjlVwK5yJ33YsfMuqrjBDVNej20v25Oe9GQx5cS4hssHUtiQS2JVMoakag0qsT9iO1XR8dR8GQ/NFPFEvoxyQJKk5uBkjYC7dxAjwAkxFUviGuKqAgqKom7ipbKOcd2sffrSvwy3NMOKRMTI9utUtpN1O15Y0bZ21dMe22Pbw47G0/jYiRciVvsQNQAoioKRkSVQ1OCXrjtZVFhfA4gpBBqxUpFQNaiqBp1xaj87sAP/31P3Q3afcylKHnIvVymws2JgZyXKhwP5SKVVrIgTMbIyF48diifxz+dfhZiqMpOFWn/ta8eODrIruvN/5wJTmPZ+lMIE8PjEQXx5n3s+N7eeYfSVsxoINMKObrJmEqCopw5ojfV2rlqjQ3OsbFuP7bHdxapQ0B9LOg7O+U5aKgNVVX327U6JxWLQNM2VQczGE777eAaZBIuspwx4Gxn2N98zaQUratT4sjqPjSkKTh1YgoQWg0jYadBkH5mVsVNV2YhVP3uHZ982eiredsKZoLAcquVc4fw2a3rYb0nazhsM6/rLMJ957iHszM+0VN9g8esl99ge2+lsjQzxfLeZdqUTWMDvPMX3vxatMYCElfWa/RqkVrHN6r64rK7rMAy/iDhc5Y3FYvLRrp5jB3Uw5OxAMoV1/cO+X3YPU4lF7FdfjHNU8/qKWf4Y3lizx/bY7mAt8XMWoo+FHi9sXcQ+QYvWODcizUaHYXjZfrRD2boUCgXk8/wcndFl6dKlgrSETJ+wHQwxazumcrks1SeoQrIfzY3FxJFsq/QNrlOd1/HpsT22FRLUwewm1m+Zo8FEcH7iFyrzjbWsgWd7I/zvZlh2Pb/dr5HrBFYu/PeP2O8g2etlrKA05phsmlR45NCsfazp6WmYptmwvoQQJBIJDA0N+ejTvL7RO0496Un3icg5yDqaovXdwMraFo52frmm6hKDwYWIl2Xl+JUZlZVJlPB+8VneObHRjf1XdIFZRizt6THKbqIo+oZJuwZo0Sa2Jz3pLuHTecez2Ocq79S7pbvHknqkEx76hmdFD05ljsEvL+290KIL7xfdNM62Ql9xRW2PvuJttMf22C5mLXklODn2+3Bhztc1F6Wt3kEOAAAgAElEQVSgOL9DRWDbIQvZKLbXOYgkbKpBvI1N7/rpQhtgw+kQ9dyCc+qsDs2ysv17bI/tPta+d/zuoTDRTrexESI4Gcg+43AVDW9j59eYhD2xKGy7UlSdwLZC+OtBuW3837BstIoaVsQjQGU6NHpudv3i6zVh/qHH9tguYWukIO0f5VFGt7FRpIHXBODDi9a30wlE0b1zWdHFFT1MFTkWlvVuJ4LfbGQj2h7M8sdsVF9/aZ2+IifdnvJ7bI9dSLZ+H/EDTMKOWuw21vP6kdOWiNtW7hmcrOHhexEioYLt7Wbb5TwXlmUfnPKVVHSBRay9rS4ie7KVoFHWq3sj+vLLwaNAW31uojrUY3tst7HM2oCOY5SoqFNZ+TmKy+Xeg+MhkVeUKShqXBaalfV8OpNlL5ZoCL29no96ZKxXB15E66Ky4vNoRF8+CmyPvmHZoPrXY3ts57KvhAEmtkR5RBLwHhzfk5At8z0Pv228NMqKlv0ijs5j/Ybb86MQg1i3iOzJOl6RnuFZWUo1ir5ylu8gNK+vf884TGekziYNExpz/johKLkmtrW2pXUKhekQVAhBheEIpchw368qKgoMxa2HalKkzDpHARRVJeDTO42dW4/tRvaVJ+Efc4R60VvUYMsaVNEy2/AERYRRWNF2mYPsTNbvpUV+mY1ygkcs2scK43ijsuIK1oy+7ghO9rdRfVmW1VnkECHg3OzZL81g2WTJ0XtqIIktJw962I07jiFXrH82ateyDLaP5pzllG5i09NjgB3xAnjslCEc7bMnj7WOtzRfwYYdk87xTFXBr08fwVySvXXl+kY5tx7bbWxtS4QZQXiJMuS+E1iWD0EGObg66G4k2AsRZj9ZA9Qsy4tsn85kg59BuTlR+o+V+vowFUXkKKKzsoEkYfTl+UZ1CM+6lwe1BK4aGoUSqkxLVsZKyBSrznIpqWF0KOXh1pIViFfrkdeabBxn99VnPo+ZFCeQFa59lg6nkE+4b8nsgI4VqaKzTAnByNI0yhE+h7K3OItH58ZrS7I6G9ShbI5NKiqWJdIRLN35MqdXcKzKT1e3kPZ1i6xTyc/76tf57HTWsYa0U+8OyiQOTpZ2A7eO7xH7SVDI3Sh7fEhQIx80Qkq8XtQxceiG2TDT5YTR119ap6+sPg3FEnj36Bn1r9X7aWPfbKPBPWNKKchq2fNRRtZ6b2ahnOTW4aIQvXM2DXzP2D7GwckkyjWKzp6WHsStp150HN3VBPeM7cVnX34uNB+l7KgSJmKTOZRuYuX7iQMjiYPzi6KCHN9CsbzH9nOKncZKCEnPRTYE379hFDX6Mn2jsBAOIomqL6+3+DliK/SVXRPreLlcFpVSGdVqNVKKpFvYXC4HbdIvUePXUWgdSwiQy+ZQLBSEET1fd/zOrRPYdDoNTdPQTpsFs3WR6brY9a/dbJAIXvQOn98Mn6YMK1FY3gn7GaUTWQHB9VjYv36DNmxxX3DembpDd/FyGNZbsRrRN3zKoVl9ZZ0Kt65Rer/dxPK/BWTtb5hHD42zhBDEuI9VivTtBJuFYTVNg6IoaKfNwrG1PSgVNvj+ncjuZb2OUMwKpuoK5z3Ds60ujxfK/A1ykJ3EBl9sdhh9lBRE/Riy68reQNFZv95iWH1FrxG4pXX6uhsOCH4HC3tu3cRKtgp+ezsyrWX9pZNsFmUYenttFoYVd9KCnJ2r1C5jxdvEbMAzOP4vu01UcWVsUPmNsnzE4iedw1IKGKYJohEkk0nk83lpmo91FHzqTz6IQ2RTkR1FjiGYlaUno+rrnwpqnb7uOusvouhU1vB1OiuXdnU6w7GiesGvFy13GiuXhbVvuEEYPqV2GRtFJEOx+EZC1lsm3D/RdrYnza9vhmWPb4tof17XxWdN00Sh9iwiFoshlUoJL3BQOoeX+o1n6yCzmc1EZ3XdcHRIp9MN68v3NuVOujl95R0n7zp2YAbvpPnUarewzNkJbMDage8wtIOFo1sn2ywMKz7PsHZoJVuXKBmhIOk21n3P16WJz+WEOagtfLTVKpZ1JkG99M5iC4UCDMMAIQSZTMYV4Ti0IEKzl1mWvQl10+R04B0u2+jz+gaz5XIZuq6DUopMJuP6inhYfVmW1b8d+gY3FF7def356LNbWLcE3VeizmarWUs62WZhWfF5LoZ9vY65Wa4bWXGA5fs1AZlR7fWs4f1YkXKi9VFZXtrlRNvDUkqd1KSmaU4Ux99M7F97P74RI4RAURRQSjFWLsB9XexGntWLdQDRWEop5ufnAQCqqrqiuLD6ihhKKXTaen3dLO8Mmb0EzpbVUba901m32DYQ2YH/22qW0aLDbRaGdUu7bBaGFUc47Dr7/hJFRLwD7wZWLKL6RqHIHYvM2YiYMKxf2Y2y/DY/PTqHtZvlYrEIXddBCEE2mw11M4luSDaKGi/MQXxdZNcqOlsqlVCtWi87p9NpKIoSSV92nVYbWVcxdEy6Xpptnb7++1gS9maKcuN1AusVu/axy/z2drBe6VSbRbdvu2zWuH35+07W+RFt63TWX9w2EqQog6Kx4IrrZXknyvdE2sHa0rmsaZqYn58HpdQTDfE3E5/iY8V2cBQUO+dnJDrw+hFuORxr6zA3N+fonc1mI+nLsqqqWtFspYyCXmm5vmElXBrEe/N1Ohte7ChhMdnOsFk0+y6+zcJKlDrTbazML2neDbKGmwjW+R2MZUXL7WSp4HdnsQTWBbSjoXg8jmw2i3g8jqiiqioIISjrVUxXSnDbjBeRTtFYSikqlQoqlQoSiQRSqRTy+TwMw3ClJG2Wr6iiCG6sXMCMZ9qj1ugbVoIiIPZcuoGNJmHv7faxnWCz6PZdXJsB1v3EPq6QlurT6ew21rtNbLOQU3XZwq8Lmy4URTm844rK+jViMqdInDUDsThOzQwgG0uCtVOhWsGL81OYqpbhnus9uNzQLLHW2Rdpfn4eg4ODUBQFyWRSUFY4KehVTFUKIelGe0f1m39ubg7xeByEEAwNDcE0vRYLEms2COBYMQ/dl2y+N2eJvPEQ3UzsYAP2b7ew4exg/5bZphWsRIsOtFkYVny+YezQSlamk1g6IdJqFevdJmY1b1pHBIsuAM+JLkxQT7pZNqzU2aWxJD5wynm4avQUZGIJj6EopSjpFdx/aA++sHMbXi7lQ5UbRQf7LO1jl8tlVCoVZLPZCOV5Za6gY0qvMmv87BTUkRCzzpUnBNVqFaVSCalUynFU/M0Wthd2qGCnVlurr3eZrUP+EvT8sBtYuYRtUNvHdqrNwrDMWiG7MPat6yW6zxq9F7uR9Yng/HoJIqfj5s/vX4KPnHWpUIlGZc/sJD767K9RpfaQd/64YRyL94RPyvTj0xuuxspsv9SQhBCkYglcveY0XLBkNf7i8Z/jmdljvuVG0UF2CtVqFSMjIyHLFcsRM8zM5jIJxxLivtHn5+eRyWQQi8UiHMsre4vzoXWoadJSNkwD0a1sp0on26zb7CvSq9OjsIVgaylKWRqQL8QbRb11zek4cXCpp2BRLptdljkYSilG+4Zwyr5n8fzcpEC3MA7Gq2dKUfH3527Gylw/COTHZh3dknQWf3felXjflh9jVq/AiBRFylmry+DNm7f/5pFF3+FZ23a27rquI5FIYHBwEM2IGhc5yOb15UUjBEOJFAgIhhNpYV2QjZxjt3ULC1g3ebY2nqwKirLT++cfMfhFEM2yzNYOt1lYtn6u7bJZGFZ8zUWy2M6mnazsntfqG2WGlEVOBMvjKVy8bE2gcryifsuEEMRVDdetPBnPv/ioQKcgp+LRBAqAm1eux0n9I54G2k8vAFiVHcDfnH4Jth87gtsObQ+hh1gH2RrRDeQXpsscslcH/prKOgrRWCLQwXXkCPr6pxlaoy/PfvC0Dfi9815jpVjLFcxNTaMM//rKSlBd7jQWAE6hSfwhrE7oDNHxJToBK5HNOh/KLXuO2iQbTt9OsFk0+7bTZmFYbxsik3BtR+ey7F8BDVF7wAwyCXJuXtm8bC36E96PPfopGpbdtOpEfHH3k5h2PVPy0HA3YOLGPkZUXNy3zJk5xP4nOzb/94Klo5gv5LnyZY1oGIcjb+T5ix/UGRCVIY5k+IvPM+FYPkXZjL7ea9B6fXl21FBxcO9+Rw/71Qz+mrPCRtr8705nASCTSmHN0uXO9uHxaRyh9pAeWadBJM2wcuk0m4Vla0ton82C2Lo+YdrXsJ24Tmbl+4jaA9dMJnwl9K+YCoAb1pwWMYy0LkaY3saSVA6XjIz66iBu7ODZhwDORy39KytcjPPX1YA2poOLYVA+orH/iiIk0e9ozwX4Xk50lkhuukb0Da4HzevLi6HrzisO9svqrP4iW7LOmP/d6ay9rCgKVFW13pl0Ntl24htUkf1awYql02wWhmWWan/bZTM/llsruZ+Co5/uYeXbxOUyn8sRVUJ5xTy7bwTr+sMNiuBvNr8G2d6mEII3r17vq0MUieqI2ykK6jdPUKo0qMcjPy823cHePM2xzm0nqahR9BXr3lp9ebaJyVdD3ZydxLZGohyvOd06wWatsW+7bObPijrL/HphqV3KhrlWitdolPsrlsuXroESsiceNmrj2TNHVmJYk7343J4bPVoFb4y1G9mgHoroQorWi+3LRpZBnZcIrE8k3Ii+Yr1bqK8PK3p+yOvHbmM7JN3ABgtvJ1FnQZShaJSt69apNgvLMntJzlm0rh1sXXdWonSGu5H1Bkpi1mcmE38vGq/NnuGnSLOiEIIEkfW5/Y4ZfOLO1gg54Sjl+rGqz768Tf0aKrH97fSGX5qIcuujsHDp1Yy+4jRDq/X1NhS87vY60TMX0Xl2E2uLiPWKyJ6tYt26yPTtBJuFYRu3Q+tZWSaIleBr3z2srI6LRDKTSWsligMMzwalphqTKMaLpkOdVSU43/CLHIIocnLr69fj4/WNztrP4ER6NKKvuBfWOn3533eM78eW2XEAwEgsiff1XeDRQ9S4yVIonczav/dX8vjJ9H6HnzUNuEXWsRBJoyyztoNtFpb1nmNYO7SSDaNf5zusKGy4jlpdOAcXpvdu/R6bmEBxtIhUKuVqtGQ3GR/+B7EAcOjQIeiG4TquWE8/CZOqgUeHcOU2xioSJyHSwS/C9L/hZLqx1zM6KyUFDitI33C2bk5fnt06Nw7MWb9PSuVwCz1feB5B59JN7JhRxq+KE559mVK4v37SPBumrvht7wSWIQTrZEyr2Rop7Cy6RdT+disr388bcHD5P35HkbGt3z/51b04cuSIc8CgSstuD8t+73vfw0ylJNUhnESvKK0ul2ftj9v45/brDMsG8e5OgCidYv/lOwzhWJWzkeg5Rlh9+Wcd7dDXzYbr7PC6s+cgOt9OZiVnGHJde9hOt1l32VdCCqJR22nIsirdwMrbFHGHNiCCa17aFcZKSkDUsL71EqyD4nNcv9A8LCvWgV9HGmJVhJMo+tbXs9tbo693vfz68L1F+2aSRdrdxLpFZAfZPq1nu8Vm3WFfcVsWxqHwgUansyzHrqvbxtniLAdEcOEkSiTiVcyfDTgyt9yaaC388aPqYLG2kxBdSF4H0QWVRU1iHfiwvTlWZSoiq18j+orPvbX6elm5BNUJ0Q3ZyaxgrZRfOFZSQofYLCwrKWHRWNH19nPGfs6m21n2vuccHG+k8KkdvqHj14tSkGFYuW6A3JlQyW8BKXC8wTle9nd0VmH2kTnTML0dGcuVFLAcjWUrjCitwG4Lq6+8J9a8vt5t/o0WIVbeX/bpH9k5250VWSpLxPLlmqbpuXHDpHNYfcPXBZHzl12HVrIMGTJV1cnswtgsOLqLluEJt//xwAaMogzfKPgdWOZto7BiHWTppuAKIdKBD5PDlRtFB4tViFwt/thsyC7bFk2ipKG9rN8Amaj6ytIRrdS3Edm5cye2bNkCTdOwefNmjI6OOucjPXJt27Zt2/D0008jHo/j2muvFU5CzTt/0zTxwAMPYO/evejr68M111zjmULMZnkdqtUq7r77boyNjWHp0qW4+uqrnY/IhpfFYU2TYGxsGOVyDMuXH0M8LvrgrSWsHSqVBI4eHYamGVixYgz8qXptBkxP92NmJovBwRn098/7sHX7mqaCI0dGUK2qWLVqHKpabeB+A9pn37q075FLd0vDrwlcc/kmLF26FOVy2fnopS3VqlUR7G+EiRo7wLoolUoFsVgMiqI4rK7roJTirW95K375/L0YN2WfwhT1psJd5CjhsL9E0cFar9Yehto6+EVCvNMNl0KxdRDpwjvmaKwK/2G6UfT1RvKt11fOytO8L730Evbv3w8A6Ovrw+joqOt8ZJkHwzCwdetWjI+Pg1KKjRs3YmBgQHrObPS1fft2HDlyBIQQnHXWWTj11FOltmR1mJqawmOPPQYAmJycxObNm6FpWoQGj7URu9xqltlS0212NoN77tkI0yRYt+4wLrtsGwC5fe39nnjiDOzatQqKQnHddQ9hYGBKylJKYRgaHnzwPExNZdDXV8C11z6IWKwSaN/9+1fhwQfPBqXAxo3bsX79bold22WzIJZb43PNg7NT3cvW9oDIVgHP4OQ91uVLl8IwDHzyk59EqVRybbv99tuxdevWQJUMw8CnP/1pjI+Pu9Zv3boV//3f/43Va1Yjpsp8cJSUpYAMqAjhpLG0qcI0+HyKVLQs6mWKWK8OotSHjAnH2u/widJwUfXl2Xbo6/7rf21tPTKZjKNroVAI7IjY6w3DwPy8FR2oqopMJiNl2QZVVVWk02mHm5mZkbK8DvbxKKWIxWKIx+MhnJus3opSC61iOZJSqCoFIVbDNDOTAaV1zs9ms7O52npAVc1A+xJCQYj1bclCIYlKJSZlWftOT9s6ESiK6WL9z28h7QsnCyKyA8+IpNtYsYjZ2lRdfN7X7/mSu5HavHmzp+E644wzMDw87BuZ2PLa174WhmG42KVLl+LMM8+UHjd62iokGSnMbzx1pjBL7IXkL6qo4srWB+st7k1HZRUQj86N6utfiVujr5cT/YbrfDKZjLM8OzvLNZby61WpVFAsFkEpRTwed5Ujs4td7tDQkLN+ZmbGl2XLmp2ddemt1mYY8u+o8XZYWNbWPRYzEI9b77nqegyGofra115XLMYBWF+2SCZLviylFIpiIh6v1o6joFLxpnBF9i0WEwAsR5pOl1ysvyyUfVHTz7tPFOfQbWwUUdw9BVHv2F9WrlzpWiaEYHBw0HmGYIvshhsdHfWsS6VSrhveXyfRQ1n/xk4e+XgZ93ZZuVF0oGA/dhpWH3tbMCvTgXWyQfrKWYW4o6/m9fXTvXl9vb8DNKDU9WX12dlZGIbh2s7+ZjtFdrQHALFYDMlkUsryZeVyOed3Pp/3ZdnfdrQHAIODgyGcm580m70Ix9rnpmk6YjHr8UO1qsEwVF/7AtZzu2IxBoBC0wxoWlXK1iM0IJutP9+rVJKh7Fsu2xyQyZSE7ELZrFEJat+6jQ3XntTXMxFc88b3Uy6sh2785uyEnkVj5YaNxMJFbWxDL4tYCLc9PKsyEVxQGqGxKLO1+sojbW+ja+vIOptqtYpKpSJMY/HRhp0uJIQgHo8jFotJWXYdpdSVFs3n874sq0OhUHB0zWaznmMFi20f9m872LrYuqmqjlisAkopKhUNuq742hcAqtU4TNN6spJOV2ClHoPtm0qVYBVLUColQtm3zlEkk2Vh1qK9NgtimSVJuylz4qKOUKez7F+vT2HLqdsu4HM5InGz9rM29oA7d+7ExMSEq8LwYiv/0EMPOYrb7MTEBHbs2CFR3tZB9DvsdmZrJEfj16hGYCWNjzhq9G4Pw0ZxtlFYJQIbTd8o0uy5yRtdwMog2IOeTNNEqVRy6c/fhPY/NrU4NDTkcTSiyNf+a/OUUkxPT/uyrA62UwUsBye3syza5xsJWcPaLMssMeeUyVidB10nqFS8zw95O5TLCVAKUEqQTpdC2zeZLIHUsg+FQjzQvgCpcdbtmkiUJBmLdtosHCvrzARFO2EyBJ3EyvaTEACcFCUvlPsrllgsBkKsh+SsUpqmOekZmSL2zW+aJlKplIuNx+NOmayy4XUMn0IQpUT49fJyo+hQZ13V2KeXwovIAcsvdJieYnRWieBbounrJ43rK2blOlBKoWka+vr6AFgDR+bm5oQRK9sYE0IwNzfnbMvlcr4s/7u/v99ZLhaL0HVdyrK9WDZFOTIy4mPnMJ0w0mYWLt0IAVKpsrOuXE4G2qxUioFSa+CI/fxNxrK/7WdohBAUCglflhACw1BRqagAqBMpiiPjdtssiJVnyPj7z+/e6zbW2z6LWckQRT/j1huQVCqFd73rXR7lNm/e7Cjhp6SiKLjxxhs97BlnnAEA0Kn4ZVt3Iybq9QRHcPbxWh/BBekgvoHtZf7YbMokiPXqIBPCMK1ko+nLp9sWQ1/P3jX9+vv7nUhqbm4uVEfETheyKccgx26Xyz6z1mtfHbdfs+FZuzzDMIQpSpsN35ng0zvtYMWSShVrqUMrJRhks0Ih2sAP22b1Z3AU5XLSlwWsVCilCggB0mn5+3nh6li77BtNoj4q6mTWu158HQQfPA0Sr5flDyZbL1JSxAbvK+qhi06QjZyYtQLD8emH4EhOFCWG0cE9yIRvtES2FOkrtxGrg+zaihxAODaoakbR18u2Xl9/VrB3rR7YQ/wBoFgsOvqKWPs3O6JxeHjYl2WFEOuZne3kDMNwjun3jKJarboiPX5gV3jxRlntZFk7pFJW6hC1lCDP8TazUpRWXcpkyr6sowUhtWjPqhPlctyXtY4Th2kSUEqcSLHx9Hq77BtRiwjZk05mxddBzCr1xsBPxCk/tpKIKkxQhYjCynSQR3L8OmaPEJGQuBcpKzeKDtbwZlkngLeDLBISseLj8frYjF/P04cNqKBR9PXvzbVIXyknrm98yhCwnnOJ6gN7DW0HZ59jX1+flBVlChRFQX9/Pyil0HXdlRblWftvqVRCuVx2HHIikfCw3vMN6pzxqfdWsXVh7ZDJVJznXMViItBm5XIChNSdox/L2iEeL0NRKCi1o0A5S4g1UtNypFaUKe9QttNmYdjakqSDzm7jnznK9utkFvDLWnltVMuBBPbLhb/ZCiFyFH4e2C89GEUHcWMmYwWlSnQQN76t0KEewdnli9Jf7LIsbRMcwQXpG50ljL6i40fR1xvBtV5f93Z5RMeeE6XUeU2FUorJyUnh9WLrvWEYrgkP7AhQxLK/7WWrsc8424JeMLcZe4RnOp12ZjDhWbENWDvw9bddLBzdbf0sJ2U5Hjt1KLeZ5QQtu1gDR8LaV1EMJJNV5PNxx3kBptS+9mAWgCKbLQuvhVsWw751nf2cgF/bKuvYdyorF3HnQxGsZYS/mLyH9NnTp0fhl+rhWbFOogiutRLNyNFYp5kV9E5E0TDbqPHbvZGz7EYQ2awR1nvt+N9R9BVHyK3Ul9/Oc/DobDsbW/L5fL0kztHZzol9nSCRSDgfAhaxsg5CLpdzthUKBSlrl1UsFp1JlpPJpDMwS97xEQnhbEHaxDJbGDskk8VaUsB6gTvIZvm89ZK3pplIJKqh7UuI9SyNEALTVFGtxn3tWy4nnHNIpcq+1619NgtimSVJhClqS0XtTjeyYnH7B62+IPaAoYrkKqU9l2RYCTc5rLg36N6OAKZG+kQgMjachNOBvRFlPUiRfn7LXkcRFN2JIp1g1nEfISO0cPrKpHl9G63X2WwWiqLANE1ndhI/vcvlshPBpdNpz/ysMmHrAT+biR8L1J0gYA2KiW7fMHWmvaymGUgkdJRKMWeGEplQar1KAACqajizkwAK5uczME3vvrGYjlSqAEKARKIMSq2XxavVGBIJ9+AR1r5WpAgQQpFIlDzlhpOFsG9tD5+OEL8sc4TdxnJrIOpUad5GwU/kPTL2wFu2bJF+bkQkq1evximnnCIsL6wO8gridVCySiBKS8odh8he4ViC+gUSp0LdEobxHpdNefC6gWGisYTUGwJAfK2i6OtlW6uvPPXjL7lcDpqmoVKpYH5+HpRSKIoiPbdisYhq1WpwE4mE74THslRnNpt1tk1PT/uyhBCHAeqzmPCs2yYykaXFWs26xUodmkgmqyiVYiiXNZimClU1hKxpih1cpRLHz3/+atcIS8Cy0cqV43jtax8BgFokRmEYCsplDdmszL5AoRAHIRSKQl2vMrAsp2EEO7SKhaOPXz2TLR9PrMxOggiObxjCNwq2UEqdd9vCiN0w+AuvR5ievL+IKoZ/49yMDvV19nyO7DH9jh/FIdePy0cwfg45POv3/LARfeX6t0Zf/0jOq7d9PqlUynFwc3NzqFarzjyPPAvAifLs9KYfKzp3QohrmD87/F/EAu4oj02phu8M8RKlExCVFYsVIZUBpGupwxhU1RDazDQVlMvWRMnJZBWKYtTWk9qIR7tMOLpVq5qzzppui8A0gVLJPWKTt1mpZKUoVdV6didn22mzcGzj17s7JUoGjpuL0ikC7vXiCso/YxEpIVoXLe0nE5lu4Tw7IO4x+PfS+HKj6FBn2cMGPXsUP2cLo1+U7eFZz5kJOghh9Y2eWxf9bpb16kKpNVlyPB53ltkBJKJztEc9AsDw8LCrHvGszEb9/f3OczT7uZ+fPe1XCQBr1KaMDZbwnYBWsO7shT0NFmovV2tSmxmGglJJAyH2NF3WetNUYJp2dsF93oahOlN71afrcg9o8dqMoFKxokFrouaKh3WfY2N2aJ6Foxf7V8aErROdzMqdm7hcxbtR5PDEDbntEES9LXudrOfq5xz9JQofnm3sWVtjLDvdFetURflm2XZZbprZE/6pDn5bODbouFH09a5rvb7yjoi4XrL62t9yo5S6HA7PUkqddKGdavRjHQ2433bkB8B5yVzGAu5putjnd9E6P6IMTjtYjnR0pLWXsGltpn8rQhPZzJrKSwFgzy1prbeiN8WZvDkWqyIWs8wd0mUAACAASURBVCI8awJnK7VsTddl7cO+C+fWB6DUjvDqEzr7d9baZbMwbL09lWWFbEZ233YbK95HzDIpSrvXwP91HVZ6MFkO2HZivCOUpW2CJUp6IHwvSJZWa60OFsu/Ls33wESNYVCaS2xLVreg6xuOJXDbR3bjR9G3buvW6+tlnaMK9WLFnq7Lft61atUqab1gJ1oWfQcu6FiEECSTSSctWi6XUalUXO+2sazIqYZLVckiENtGvN1axXrF1td+xmWaluOR2YedgcQafWlxhqFAUUxcc83DyGbrTv/550/Gjh1rYJoEmkZqUR8FpcR5Xic6FqX2J3ngOF8Z6z5X+3xF29plXwToVr9fRfccf492OsszzBrmd92OmrfyEe5vc+KnaHO5Y94x89tkvSCO9GmsxWGwLBoIz9rFinot/seX3ZBBukKgn58DkLOyyZab15c/bmv0dbOyjhu3d0039pmYPUuJjGWfmfGzmPCsTBRFQV9fn/M1gWKxKHRwgPXc2n7Jm5371V9EnQJHuwVivXZIJOozxVjD88Ws7XQA4vr8jWEooBTQtKrzYVIAiMWqMAzFGV2ZTFagKBSGQZDPJ6TXQ9djqFatrzZaM62EbacWw75iEbWzovZFlFXpVNZeJ3KA4nveeg+OGwNLub/hJEw0xqclg/Ks/sI7YgpviM//dusBeCsCb1y5EdkeVhgdvB0H+3j8sUQOgHfEctbWQXQTiFIe0Vi+QooqYzR9/a538/oGRW5+Yqcogfq33mT1lXWA/PMwP2HvCUKIa7g/O3kzz5ZKJZim6aRS3ZOTy2zqf1+Ie8GtZr3Czilpf2RUJPZUXpRaUZ99joZhPWlRVffIbU2r1pyflaJMJKzZTID6MzaXltT+YkH9dYVk0m8eSv7cFse+QfUsTITUDawtopQsQ6PekUVJATDmBkS9XLkBw9zEbCMocyhsWY1FdqwTCdYn7DGi6RJWB/c58+cdZBORIxbr4Bdl8mmQcKzC6SyqjGH19bKt19fLQriO73RRSjEwMOD8tp/BsTelvc00Tdc8lOzXMUTlipy9zbKjIaempqRsPp93XsURDTCJFnWwNvO7n5thmS2cHdgBI4VCQmqzUsn+ACl1IitKKQxDAyEUqmq4yo3FdOi6AsOw6p+mVRGL6bWyElKbsdvS6ZLwutWlnTYLw7rrmYvgoh6/Tle3sYK9IbDXmAZgF4A17vWixkK8LGq4SqWSa4RXkNhz8PnflKIwPcxNHD4StXUI/ywjig4MS9zH85Pm0rh8z4+1oV9kI2dlEVwj+oqdc2v1FS9764SoV8hOnTU5OWntyfQ8bbZaraJatQYi5HI55yVvEWuXwZ4/y7BRIzuDCs+yXxpn9WTZYGmkoW6e5TMW1ihKCkIUZz5Kkc1KJetzOopiOt9nI4TAMDQoiglFcb9eEI8bME0CXa+/k5hOV1AoJJmXyr3XIp+3ZzEBstmSR19vxqT9NpOz8nbE7z71296prGy/2hrBMt2lAfRRgFzpLULWgLsrHXvx7cZv06ZNkV70TiQSnsoc3Pj5iSyNJSAj93abZ51mWHDcKPo01ilojvW4itA9rMXRV7xdcm6cbvaMJJVKBaVSCYZhCKfDYtOF/CTLonL9bDA4OOj8Zmcq4YV95mfvE70zFNRItJe19bUmQjZr77nJBn8Q5921REKHptXbF11Xoaom7BGS9r6xmAFCrGdqtljp0D4UizGYpuJJawKofckbANzfnBPbd2FtJtvWXPar+yRkO/moAuB+QPThteBeisjj2imaTCbj+nf//ffj+9//Po4dO4Z0Ou3axn/36vi/SG5nzjqJ5iKghRFRWjWMdPJ1FaXFEomEM3ijXC47ERPPzs/PO5MVpNNpT2qSL1eW1rVTlPbyzMyMlGUdHJtKbfDsub/tZXk7KApFOl0FUE8dirhi0XJU8bgOTatfC8PQEI8bANy8xVDouuaw9c/mAJVKQmjfupO1p/fyS5ctjM2CxC/zJKtD3cja10HeljisCZD7FYA8BJBD9RwmFcBEsM17YF4J9vfg4CA2bdqE8fFx4bMJ9rf35NmLHubCh+3Zu9MlwQ1w+HL9WE9fLeC40RouPo8vOip/E0Vhg7/1FzWqEx+3VfrykR7716uLfW6EENfL3qVSCdWqeHJf+3kYpdT1ZW4Ra/9j6zzLsh0+28GJWPY9OTtFKXKsXrsE26F9rCUiO1iRlf1NOOKxmWmqzjtysVjFSUcCgK4rtWjNXa6m6bUIrj7XrX0cSknt0zvea2E72VjMmg5MpO/C2Sw8K2uPeYa/d7uJ5e8rjgbTFhwC8JCCW2+bBfDNejoySirQqwR/UHv9/v37sWXLFs+zBBErTk+G6T15G+OgysBGIvLGgS+fLTeKDrW/PhdX1HthbRtcie3j8efON/iivyFY4u2UNKqvt6K3QV9hHfBPmdl6q6rqvCpQLBZdz5VZ1o6mCLEmTObrNl8u36CybDqdRiKRqEUSZSfVz7KUWs/grOdRCrLZrLBc8TmLOhQim7WarYvIDvanb6pVBboe89hM11XoegyU2l8FqB9P11XEYoanXDvKq1TqGSLrI6nWQBV+QItlXzjP4KyXxr3lejtl7bJZEOu2qUzYesPvI2qDO5Vlef+2AwDwTdx622ztytMvA/hfABnxlFg/rHeNxCGJlq+66iqUy2XPO0IiVh5NBeWpiWC9f2MmS7OKRVRuFB2Id0vI5zUimwTr2Rp92fUE4QaZhNHX2ylqvb7evzKnJ9bTTv8RQoQDp+wIzmb8XvKW9VrZ9YlEAvF4HIVCwXnux37nzYpmTEeXWCyGXC7nKsM/gmYbTJEDEv1uBcuQAjvUP15qTagci1VdrK6rqFZVEGI7uPr+1aoKVdU95aqqlfZkHZw1A4o1rZc1obK7DlqRXQyEWO/Ricr12rddNpOzWaX+WohfXWMjYb7zKTqvTmb5c3U6MkSBCoJy/UnbBIAvA85UXdgD4PN1A9p//W4Ut1K2yBrd4eFhrFq1yvVCql+ayys8Gyak9xdZDyG8RNGBsZHkeH69G/7Cithwugm1iMD66xBFXxHben1FjZG38RVlFCilLufBOjKWnZycdG5KdpouEctv45fZl7btZ3si1n4vT1VVhxf3bMPaIYrNGmU5jRh97Re3KSWu53C2VKsaqlWrUU8my659q1XVidbYclXVgKJQlMuqwyYSpdq7cPXXDlib2RM+A0Ai4X5xvFPsmyAK/vqUDdAC7hteV7YuyhxLN7KXDa3ElSOjYHzX52H5NCgAFNz6RRMgnwKwzW3kcA5IdBOLmLASvsFjnTG7Xi5BzjhcqrIRHeps2ItoN5oiHeXRERsN8Wk89l9jLIHcLlH19bKt11fM+je6rI7sbCbT09PCHqTt+FRVdZ7B2fvLypVdP0KIMypS13UUi0UPa5qmo0symUQs5p2/0StR7NAultuT0bf+Xhv7Qne93Eol7sxIkkrVZz4B7FGUurDceNxAtVpPeVojMA2wz+BYmxmG4nyBwE5nisptzg7NshRLUlnYU/6F6ZTLmGKxiPHxcUxMTGB8fBzj4+Mol4Nebg8uV8RNTU25jnXs2DHpaHtZuaLO8gnZAWueN0u2AeRTuPU2EwA0ANYWohRAzVsA3AeglqpkDc82GN6Dim5mUePttxzco5fp0GrnGZ2NpEOI4/iF5yJ7B9vMPrLfzRTMym7yRvX1jzyb19fN+nfaROdlT2JMKcXOnTuFzMTEBAixnoeJUpRB9Yhnc7mcs7xt2zaX0wSs9+503WrQBwcHoSgKwgmR/LZtI4siWsH6i/VRUYubn1dcX28AgLm5epoxmy1zTklDMilKH1sOjn1NwH6uVqloyOc1T9q5WCQolzVQipDTdLXTZmKWUkChBDnV/hSQWEdRHWTXzc/P48Mf/jCOHj3q2u/000/HRz/6UWeAVdRyRezWrVvx6U9/2nO/33TTTXjrW98aulyRnxlOpLFvchwAmQBwCwhxhhhrsKI4Ex/7ggngWdz6gVsA/BeAAfFFEDd67EH5ho0P7UUNn4ytC+9sozifzpIwPS+ZjdhtPGuXbom8Q1Lf3ggrdqiN6Cu+zq3WV8R67S7qaAH1WUIIIahUKsKjsc/D4vG4MDXpl+Xgt7GzmYh605VKxeFzuZxvucwZwmsvUZQrs22zLLNVoG8yWYGqWp/E2bFjEi+99IBre6WSgD1Rsv28zi7HMDRnMAgv1mwm9WeYmmY/V0vgyJEyfv3rB0Epm4ZcC8O4tqaT+zhyaZfNxKwBiqlSEasTGRRLJcQzWd/gQJa1mp6exsGDBz2ObP/+/SgUClIHF1SuSPbs2QPTNKEoisOapondu3c3Ve707CxOSubwgF6ZBnALbr3tWXY7+wKa1Q289ba7cOsHfgvAN+BEcqx4GzqR82J/y6KzIFZ2XHlvXdT7kYe6vO7hIsigRvb/b+9sQ+04zjv+n909L/fci6Rr6UqubNWSovol+EsbxZZtZBI3xtjILlJrbEJpU9qoLrVJIdBiaMkNJcWmpFCbflFKvrQfTKBYWIiaBkpa1dh1lLgqsWMbNcjWi21JuVf33nPP656dftgze2bnPDM7500659x54HB2Z37zzDOzs/O2O7MmG0QaNeoluyhR88b8PECtXFR71c6CHSs3zllT0/b2UjIce7srDHoUJ3euZDexrk3Ijh07UuVGfuFDfM9Nfb5I6VU7dLK7PGr0PC8VJwB89tlniU3yFKqqV0mhkl9qPmSV+WGzaXsLhSaCoIVWy0OptIBbbtmVYi9d2oHlZYb4+3G1VJ6Fod9eB9etNwha0kdP411QZmYaWFsrwfc345ZbbgNjnenNcnk3Ll+OX0KZna1rr5s5faPN3xaAj8sr2OLnsbxyDZtn54z3mu6e45zj2Wefxe7du+F5HrZs2QLGGM6cOZOs+aTCZOlVWc45br75ZiwuLqJYLGJmZgalUgn1eh1nzpzpSa9aX58/fx777/5COM/yv4/FY6+rfGeKsvMPLB57HYtHDyJu5PbrIrOtrNSMN4W1ndPVN3KA7Q2m2mEeWej09mJDzMqfyzHlgzwdqJ5T7KjsTVHMnGe92Ns9TTl8e9P++lGcLg8LhQLm5uZQLpeTT+Kknw11RlPUlnM6vVRlKc7ltXTiGZx838gLwOfn57uuR/YMCNXYqfkybLYjlL3xG4stcJ5DqzWHUqkUa0nyOs6TXK6FXC69HrHV8pHLhaTeIAjRbAapfCmVGgAYomgGxeIcfL9zDavVLYgPOWZnu6co6c7DqPJMz15aW8YXt+0EynWyzqSm8qi03HPPPfA8D57nYevWrfA8D/Pz810bffeil2LvuusubNsWj5dmZ2fJl7Fs9Kput5c2Xy3Cq/z25l3/9W9yG9aemewewcUSYfHYh1g8+mUAfwbgOYBvb0cBuXKgbia1R2qqEE2spFGJlyluao+eCtNtn5oGyha6MJtsyWZTRZjIH9tG3nyzqTcH1Yj0zqrTq/YjMpu0ZY2Qh5E2aM5pEevMyuUyKpUKPvjgg9Rbi+KbbEBnwXViQcZ11LHyFOXly5dx9uzZZPF3q9XChQsXkrxUn8+peiVXnRXSsb5RGpw1kIwlHytlDGg0ZhC/yi/uDY56fQ6cI/mmG9DJs2YzXgdH621ifb0A+VKIKc5mM48o8uH7nTyr1WbAGMA5Utt0qXr7z4fhsL+ol/FoYQ5r6+nlFKro7lPOOVZWVpJtEj0vfu7peR7q9TpqtVryLDirjlfdKbcoipKXoYIgSI6jKEIURckWeCa9lOyb315p1Oofc87F5zziR27t40By6Gr9sHisgm8f/Rtw/s/g+AMw9jUAtwIsaQxNjZjOX2bsep9Ub0d1sy8cph62ape5MPdig8RIunWNrXpuP3JTRzM2PXd7NpUii5Fcb2kbvr10Ryi7ZyjE87zk6wD1eh1vvfUWmR7OeWofyV6mY1W2WCyiWCyiVqvh8uXLuHLlCsnGo5GSVRzt0OjOF8pvlCwtjAGzsw2srHCUy9vw3ntPJK/+t1oeVla2g7HOxsydDmj8FqW8TECWIAjRaKT3DxUvpIRhgJ///FEUCvGz1ShiWFubB8ARBBz5PP3MVbG8z3wYjL0c1pDjQDGIGwrTTEGiRSk7S0tLyQtKYmrd8zxUKhU0Gg0sLCwkrKmOV/WqbBRFOH/+fLIhgjyCu3DhAhYWFsg9Xk3TlqLenJmZuXl9ff31Z555RswzR5AaOXmKkpII3zrmATgH4FtY/PqLALsHwINbi7NPArhbjdSUyTY3vTpt5TFci220uVEEozQsjIEBW5AepdIaNDZ6zGsArPO5YK0tGhskCRgrAkhqJpFWXQOgG1mqrB8/TFilK/6shtCO9Zm3hXPumRowW3tlNmBeBUBt2PbqGcADCxjYJmFPElopr+rUo64RF18CUFlKrzin2Fwuh9nZ2a43CVW2WCymGjidXp+xBoCy/eiBOh+M9cHyAOZkH9XeeBF2PLL65S9vBedynsVhCoV6EkZIGHqpZQKy3nw+RBR5aLU6Swk6H0tlWF7e2WbTZbJQaCaf36GuGwAEjNUAdDYFvY75e6lVx0plfUse8ITNurpLV17lHXhU0U1R2uiluGq1miwJaLVayXGz2ez6cr2NXpHmZrPpNRqNd5AeuZEjOPmfEg+L36sB+BGAH33lx1/30W7gdK2sbKzqrxvKymwAr/HtL3zljj9888S17ous68V3N4R/+rnfKP7q9l/5se/7t4t4RBy6kaVc2PP5PO6/de/rOPvfT/Zrg8x+9Za7ngHw92qe6GyRj00j4jsXdr4N4Ms2PWYpZE/s9uLsTxhjd1NTCb3aKx8vPvDYH//Th+/8YNj2mtz+8tfu/bzveW8CKKqVmGyz3HDJtquNlzy1KLvr9OpY3/cxMzNDTsvINhSLxaRiMOn90vbd33/h7Olv6PIhWwZn/3zfF7/EGPtXtOsXyl4xJRg7x/dKzLU1M4a5ObGcoHO/yQ2cqjefD8G5hyjqjPLEx1JlvUI6I4POVKjO3odu/tw/vvh/P/1mL/kwLDYE0CpXXuXF4mM2danqBoDcmUekf2VlJR2r0nE16VVZ+UUsNa4oipLn2Fl6KWnvA/s2qBnI9jM4ysMoe/bs8c6fPz/X/SCYFpORurAizHs//I8ivvu9EOnG1/5bPACeevuPAqryNc0ty6zv+5gtzQKLx2zmLDIlf+KJSI6LusGEu1oxmkYHLJ5WVm3sJc+y2dcOddms2mdrr8zO5HLC9uHam2ZT3Pxrh0IVohpm9U1FOX3iOAgCq2261DwhZwvaz/1kngorbwZt0uszRpULKm9s7v++2NLJ30rlNWVvqVSDnB2xn0g7APD2Nl0dKIo8RFH8DI/Sm8u1khGckGKxE4/QC8jbQ3U+4WPqqPmMhVg8JuqmoedZFrv2ne/8Tz6ff0zXiaRELkv1ej31DK5QKMDzPERRlPrYrpoHWXpVNgxDVCqVpDNWKBSSY9/3jQvLqTpSllqtVg6C4ENdeHkEB+mfyly5gSk9//zzvyNuLpMR8TRBPnmoKCQM4y/rym+hiW9qiXBRFOWr1ervAniBsEEWq4ZZiK7CkNMgV76WYm2DPMWnFhpqpKOruGwKNMzXtB/WM43IerFXZqU8GLa9KksKYUci8jfeqOkTMZoqlUpdZUs9VuOkWADJps2ym8wyFk+dep7XpTurUiCk+03qEbI6e+PX8lnS+KQ7EYC8REDkQ6vlw/M4fD8i9eZyYfujp/J2XfVkzV2sF1Ic8XO9Uqmess1g/3XJM0rK5fJPtm7dStqoG3HJeVqtVpHP55O3KEUD12q1kjWfunvWpFdl6/U6ms1mVwMnwqysrGDnzp3WehV5H4D6NlCSd/QyAQ0sS6PRCMSNrrvpEwXtN2Vko8XnReRvbMnzyMKPc57+WFxH5N67VcNi0xMxsF29/R5tSFjTBdSd60ZExMVXK3t1lCOf98OSz9/6sVfTqAzbXplNcVR5pW7gPXv24MCBA1haWtJWJnfccUdqzVzWtI38T7H79+/H2tpa13M4IUEQ4P777zfqVYTqBOjyDyNkE1HtnZ2twPM4okg0cnLZiN3m5iqpchU/W+Pw/e5OImPxyC4ewXUWGAdBC6VSHaurRajTg2IEt2lTpcsGTf5ejzwj2Xfffff9Xbt2VRhjXW8aUfeder9dvXo18ZfDAZ2P7VIzMCa9FCsaSzUexhjCMES5XM60V2dDGIbv5XI5bUdX13iomWl6NpcSU+XXQ4/SZIsQyibrUVQvtrRZqqbpxYaEVUdwJrtULmtElGGDamfPLGPMWA76sdfyWvRlr4btcjP11IMgwCOPPGJjY+aojYqLYufn55MtjGzi0+mVJCsfsvJ16Gx3mq/hwQffwdoa/Wbo7GwNCwtLqYovl2vg3nt/lrx8oupdWFjCAw+cwcxMVbqeIQ4e/Ck+/XRrVxyxfwt7917QjjQNaTX5DT1/19bWQgCRaUaFcos7Bi1Uq9VkM3ExLe55HnzfT56Zme5fSi/FVqtVFIvFZNlBqVRKjmdmZlCv1zPt1dnAOW8cPXpU7dAmnYVAcpAzlOoBJ8e6ab0ssZknpnq3UtymHrkYRel6+aQd1AiU6k1oRkqyTTY2RO04yQftpsqR6oFpWGpqmTrXTUMbWdE462zvw96singgexW/VGctw46UWIycU6zQN2y2VxskUTuq6rHMUf6DsolQdnPO4Xkct912ySJtHT2+H2LXrk+E5i52ZqaC3burSTihd9u2ZWzbttxlg23+KjKqPMtirYRKRxiGyQd8xRSl+DHGsLq6mpkHtvkjRoPiJ+IQx+osxRAGQkk9EEgOVINBjU4yDeixcNhIVkGgCoDaICfntqMm+bhdYWgb/SwbQBRctVLTxWsaFWlsVONTharsrFjROJts6MXeHkZvfdkL+hqIjgYajUbmtkQ2do4rKx4HgO4kUve7qXwPwg49bTeSlWSUeZbFAtB3GFQ/OY1hGKLRaCQ75Yj1np7noVqtYnl5uWsBtpx2nV6KXV9fR71eT71JKfRWq9Xk009ZejOEnKHwoO8NUEM+Umx7wjbGCl1Ugg1iVRg4p7/Mq07zqD/JDm0hs7VBYmW9XXbI/qbpM5VV4vKUY5vnWTasVnq1l6gsRmGvR4QBgAsXL178z08++SSKougX1HWX/1X3cWeXl5ffP3v2bLi+vv4vSj6p+dA1uh02K14V130eRYhcOVJlZlxY6YsOI8szCzaxVxViKi/l1mg0UKvVknTIv2aziVqtlnyxQtaXpZdir1y5kuhV46pWqyiXy1Z6M9JM5ZFneskkqxdsjLzfEZwuIwnb1HNdzydzJEGNnPoQow2KkFOUup4Y5W6wU47bNIJU7bRlMzs7tvYS7CjsBRXm+PHjd4Zh+ND6+vq+er0e5XK5q5zzvYakTZR4nhetrq5ebjabd5ZKpcPHjx+f45y/fvjwYd1yAW1eDYl9q16v38E539JqtX7IOd+SnYrxFM/z/qRWq/0751zs0zaqPLNhtSNQ00xJtVolX2ASDUcURak3H231Uqz8oWA5HmG32KnHRq+hc0LVAZFYJqACciBd71crQ56epGwBehhhRlEU+r5/lXO+yhgLoOwiQg292+cVAGHb7TKh2toGaBpedfQo20C5Z00VqHFobLC5cXSslzW6trVXZkdor06eAPBie6qksXnz5ku+71/NCDNJEpXL5VUACILgWQCPId6kwXYtp/Wo3YZ9/PHHKwDOvvLKKzeFYRhljaLGWXK53KWnn36aWns11DzLYnn8nZ8K5zzVYaZGnuq52I6LSW9gyqP/VqtVkZdw6cTmOtbrdXiel0f7pUY5HsZYWKlUGln2GuKmynPSwdVt1SX3gHXzwZ+KE900m2n6jarY5WMp7KoUzHb+OiUHDhxovPnmm78ZxDvW3sQ5/wvG2O8B2ESN4jjnFcbYDwD8NedcpFOXkVY2EG4NOd4oimqMsUvt+MnRpVyANb2d/wU9VUd1YuQG2Zrlmm26hGTZq2OleIZqL+jym7IRwMdRFD0ZBIHWVsp93Nlms/k1AIcyOiTUCF3uKAyVLZVKIeKGdhOVFmGnbcfoerNtN9ERui55pmNbrda5lZWVX8/lcqnOda1Wi7I+gnvx4kUcPHhwE2PsDcbYTZxzLC0tCe/39+3b9+hHH33UUHc06UdWV1ejhx9++KuMse+27UuWDtx+++0vvPHGG/9w7ty5zAFUsVj05BFlFEVYX18X2yeSs2fqQm9ZqAwW5zUA9wH0ot8uRe01b2oPwzR3LLXy6vozU89HTWByfN999zUQNyqV06dPf4Nz/leMsc9zzm8S8bbjvMYYew/Atf379+sqzb5sEMI5/zvG2EuyW6vVigD6lV8lrHYoz+IXaahG16bBtWLlRrh9jvZUTVcHwHK6Weg/Nwp7Nedygx0yxv72yJEjIejrqpvhGHv25Zdffo1z/k3O+Z2gRe0IiH+T3oFYxlgZgLLlXSzUdL2u7NwoVjOlPtI807GnTp0KT506dUlxtx0V4sSJE58irsf3ApDXKv/sqaeeunTo0CFrXVly5MiRlwCcRnv2rN0m1AqFwlsnT56snTx5ctAo1PogAjrv1aoZo8so3fMYqjKnjrP09sJmxZWl/0az0KQD0Ie94eyJEye6Nluen5+v7d27N1SnXNVz2U3xiwBEO3fuHHXaEvdXX331fsbY/itXrpyu1WpvP/fcc6ESTj2mZOzZl156aeeOHTseKhQKmzjn3z98+HBNx46DvY4dKmvDm8JOEwsPncqCGi6q/hRr46+698ua3CkZJ9bm2FN+jh2cNbnpyp5jHTvJLHVvUO7TyiaiyzzqmFJik8FdkQ7ATrr0kg7HjpYdFzsc69jrwW5o0TVY1LGtrlGxVOMIwm/c2KzOhOru2OGwlFDXTCeOdewksWrZ1/1PO0sGUituUyVOhdVGMgLWVAB0DGmHYwAABLVJREFU+m4kmxXOtjJ27HBZ2/COdeyksBteqAYEhJvqn9VzyGp1sxquLJYSnQ3jyFLp0vGOHQ6r+pvOHevYSWdN9fWGYFnbs5e3cnRuJvdRiYhP92/D3AhWuAnJejPQscNhoTCUqDeLYx07qSz1NqX8r9M5bWxKPOXfhpH/s3oSWe69sJRfVss+DqwuXFYYxzrWsY61ZXV1OeU+lawaQLSAQKclpBqviPgXYalwEaHDG5ClbJZtUY/HiQXodMi6HDsaFoS/jnesY6eBlf0p92lmrSFKsU5MFc2wWF28Nm7jwOrSorugjh0dqxPHOnZaWOqeMB1PE9u39JLZo5ReEjYOrMzI/7r8dOxwWCdONproyr1N528qWKqyoCprqoVUW07KzWTcoKwpjE7GkTWl37HDY23LTi/lzLGOHXc2q4M4zWxKdJk4LDFVNP2wusSNOyuO5fzWnTt2uCykf1Uc69hpYyle9ZtmNjOQLtNsWd2FGZSlJMt/HFlbd8cOh/WUH6AvX4517KSzquj8p5KVHbLWr6nrDnSRmHRlrWfol+2VGScWMF8407lje2ept13Vt14d69hpYFXxJH9d3T1VbND+jxRAJ6q/aVGdqeEaFitf3EjDjyMrxFRAHTtaVhW1XDnWsZPOUueyHm+DsVbSS6CsnvUg7DB1XW9WF45yd+zwWNXP9oZxrGMnkTWFpWQq2V4q6X7cTRdnEHZaZdwb50lns8I61rHTxI6q/p001gr2iH/bcLowg7AmN52MA2sKOwmFZZJZcW7j5ljHTgNLyYZi1UZFF8iG0bGm/0HYXmwYJzZLB8U4djB2nMuDYx07CpYKq/ObRpY+Mbjbcr24DcraVHjjxJp4qiA7dnisGk5lbSoPxzp2klhdXbXRWFIGbaQG4fphbQrGOLAqJ7OUu2MHZ5042UhC1UO6umlqWVMDRlXWpgpc9vMMvGpQP6zOdp2MK2vKa8eOhs26Zo517DSwuvpTx00j2+WhiqnSsHUfBWtKOIjjSWVV3rH9s06cbDTppa6eSlZXWagVsu44q5IZNUudm2RcWNv8tfF3rB1LlTH1OOvcsY517ISwAbp3IxHH6u4c4hgGdyj+slA7kAyDnUQx7Tog3HT57tjBWaC3MuVYx04iq/qp94Ja708rSzso7lTLqRMTSxkyKJuVEePG6sKrx7o4HNsfC+JYp8+xjp101lTf2BxPC6uFbBSprC4ykxH9stMixgvj2KGxtmFMFYVjHTsprPwz+U0zm/KkhHJXK4ysxifLv19WDWcbZhxYwWeF1+WHY3tnKRnkejnWsePMZtXTauMwlazs0ItCk7tNg9dL45jFjntBsw1/oxvdaWdN572EdaxjJ4l1MmIZ9UW26bGPK0t1DBw7GpaScaiAHOvYUbFZ98pGYVOeagWhO9fxurA6Q/phKbttZRxYGx1ZFbRje2NtG0NdI+pYx04aaxN+mtmUIxXY5tiGzTofFmvixoXVhcsK49jRsOQN4VjHTgFr4jcaS0K9Zp4uvI3efljdP2XPOLMeEc6xw2WpfzWsbdl3rGMnlaXcp5bNCky5Uwp17qO6aDY2mOy6kSwVzlRZO3Y4rI4xuTvWsZPMbmj5f8aflpyWA0zIAAAAAElFTkSuQmCC;rotation=-90;" vertex="1" parent="1">
          <mxGeometry x="2084" y="56.120000000000005" width="393.7" height="367.75" as="geometry" />
        </mxCell>
        <mxCell id="akU_VqpwlgIZYW7BHdBq-21" value="" style="rounded=0;whiteSpace=wrap;html=1;fontSize=24;" vertex="1" parent="1">
          <mxGeometry x="2200" y="-0.24" width="70" height="60" as="geometry" />
        </mxCell>
      </root>
    </mxGraphModel>
  </diagram>
</mxfile>
